G04 (created by PCBNEW (2013-07-07 BZR 4022)-stable) date 07/12/2013 12:57:39*
%MOIN*%
G04 Gerber Fmt 3.4, Leading zero omitted, Abs format*
%FSLAX34Y34*%
G01*
G70*
G90*
G04 APERTURE LIST*
%ADD10C,0.00393701*%
%ADD11C,0.0001*%
%ADD12R,0.08X0.08*%
%ADD13C,0.08*%
%ADD14C,0.2559*%
%ADD15C,0.0945*%
%ADD16C,0.075*%
%ADD17O,0.062X0.09*%
%ADD18R,0.062X0.09*%
%ADD19R,0.0827X0.0827*%
%ADD20C,0.0866*%
%ADD21C,0.0394*%
%ADD22C,0.035*%
%ADD23C,0.02*%
%ADD24C,0.01*%
G04 APERTURE END LIST*
G54D10*
G54D11*
G36*
X64192Y-12921D02*
X64192Y-13141D01*
X64192Y-13175D01*
X64192Y-13206D01*
X64192Y-13233D01*
X64192Y-13257D01*
X64192Y-13278D01*
X64192Y-13297D01*
X64192Y-13313D01*
X64192Y-13327D01*
X64191Y-13338D01*
X64191Y-13347D01*
X64191Y-13354D01*
X64191Y-13360D01*
X64190Y-13364D01*
X64190Y-13366D01*
X64190Y-13367D01*
X64185Y-13374D01*
X64178Y-13379D01*
X64170Y-13382D01*
X64167Y-13383D01*
X64161Y-13384D01*
X64152Y-13385D01*
X64140Y-13388D01*
X64126Y-13390D01*
X64109Y-13394D01*
X64090Y-13397D01*
X64070Y-13401D01*
X64047Y-13405D01*
X64024Y-13410D01*
X63999Y-13414D01*
X63973Y-13419D01*
X63961Y-13421D01*
X63930Y-13427D01*
X63902Y-13432D01*
X63877Y-13437D01*
X63855Y-13441D01*
X63836Y-13445D01*
X63819Y-13448D01*
X63804Y-13451D01*
X63792Y-13453D01*
X63782Y-13455D01*
X63773Y-13457D01*
X63766Y-13459D01*
X63761Y-13461D01*
X63756Y-13462D01*
X63753Y-13463D01*
X63751Y-13465D01*
X63749Y-13466D01*
X63747Y-13467D01*
X63746Y-13469D01*
X63745Y-13470D01*
X63745Y-13471D01*
X63744Y-13473D01*
X63742Y-13478D01*
X63738Y-13487D01*
X63734Y-13497D01*
X63729Y-13510D01*
X63722Y-13525D01*
X63715Y-13543D01*
X63708Y-13561D01*
X63700Y-13582D01*
X63691Y-13603D01*
X63682Y-13626D01*
X63677Y-13639D01*
X63666Y-13666D01*
X63656Y-13691D01*
X63647Y-13712D01*
X63640Y-13731D01*
X63633Y-13748D01*
X63628Y-13762D01*
X63623Y-13774D01*
X63619Y-13784D01*
X63617Y-13792D01*
X63614Y-13799D01*
X63613Y-13805D01*
X63612Y-13809D01*
X63611Y-13813D01*
X63611Y-13816D01*
X63611Y-13818D01*
X63612Y-13820D01*
X63613Y-13822D01*
X63613Y-13824D01*
X63614Y-13826D01*
X63618Y-13831D01*
X63623Y-13838D01*
X63629Y-13848D01*
X63637Y-13860D01*
X63646Y-13874D01*
X63657Y-13889D01*
X63669Y-13906D01*
X63681Y-13925D01*
X63695Y-13945D01*
X63709Y-13966D01*
X63724Y-13987D01*
X63731Y-13998D01*
X63746Y-14020D01*
X63761Y-14041D01*
X63775Y-14062D01*
X63788Y-14081D01*
X63800Y-14099D01*
X63811Y-14115D01*
X63821Y-14129D01*
X63830Y-14142D01*
X63837Y-14153D01*
X63843Y-14161D01*
X63847Y-14167D01*
X63849Y-14170D01*
X63849Y-14171D01*
X63851Y-14178D01*
X63850Y-14186D01*
X63849Y-14189D01*
X63848Y-14191D01*
X63844Y-14196D01*
X63837Y-14202D01*
X63829Y-14211D01*
X63819Y-14222D01*
X63806Y-14234D01*
X63792Y-14249D01*
X63776Y-14265D01*
X63759Y-14282D01*
X63740Y-14301D01*
X63720Y-14321D01*
X63699Y-14342D01*
X63690Y-14351D01*
X63667Y-14374D01*
X63646Y-14395D01*
X63627Y-14414D01*
X63611Y-14430D01*
X63596Y-14445D01*
X63583Y-14457D01*
X63572Y-14468D01*
X63563Y-14478D01*
X63554Y-14485D01*
X63547Y-14492D01*
X63542Y-14497D01*
X63537Y-14501D01*
X63533Y-14504D01*
X63530Y-14506D01*
X63527Y-14508D01*
X63525Y-14508D01*
X63523Y-14509D01*
X63521Y-14508D01*
X63519Y-14508D01*
X63518Y-14507D01*
X63517Y-14507D01*
X63515Y-14506D01*
X63510Y-14503D01*
X63502Y-14498D01*
X63493Y-14492D01*
X63481Y-14484D01*
X63467Y-14474D01*
X63451Y-14464D01*
X63434Y-14453D01*
X63416Y-14440D01*
X63397Y-14427D01*
X63377Y-14413D01*
X63362Y-14403D01*
X63334Y-14384D01*
X63310Y-14367D01*
X63288Y-14352D01*
X63268Y-14338D01*
X63251Y-14327D01*
X63236Y-14316D01*
X63222Y-14307D01*
X63211Y-14300D01*
X63202Y-14293D01*
X63194Y-14288D01*
X63187Y-14283D01*
X63182Y-14280D01*
X63177Y-14277D01*
X63174Y-14275D01*
X63171Y-14274D01*
X63169Y-14273D01*
X63168Y-14273D01*
X63167Y-14273D01*
X63166Y-14273D01*
X63164Y-14273D01*
X63163Y-14273D01*
X63162Y-14273D01*
X63160Y-14273D01*
X63157Y-14273D01*
X63155Y-14274D01*
X63151Y-14275D01*
X63148Y-14276D01*
X63142Y-14279D01*
X63136Y-14282D01*
X63127Y-14286D01*
X63117Y-14292D01*
X63105Y-14298D01*
X63089Y-14306D01*
X63075Y-14314D01*
X63056Y-14324D01*
X63041Y-14332D01*
X63027Y-14339D01*
X63017Y-14345D01*
X63008Y-14349D01*
X63001Y-14352D01*
X62995Y-14354D01*
X62991Y-14355D01*
X62988Y-14355D01*
X62985Y-14355D01*
X62983Y-14353D01*
X62981Y-14352D01*
X62980Y-14350D01*
X62979Y-14348D01*
X62976Y-14343D01*
X62973Y-14335D01*
X62968Y-14324D01*
X62962Y-14311D01*
X62956Y-14295D01*
X62948Y-14277D01*
X62940Y-14257D01*
X62930Y-14235D01*
X62921Y-14212D01*
X62910Y-14187D01*
X62899Y-14160D01*
X62888Y-14133D01*
X62876Y-14105D01*
X62864Y-14076D01*
X62852Y-14046D01*
X62839Y-14016D01*
X62827Y-13986D01*
X62814Y-13955D01*
X62801Y-13925D01*
X62789Y-13895D01*
X62777Y-13866D01*
X62765Y-13837D01*
X62754Y-13809D01*
X62743Y-13783D01*
X62732Y-13757D01*
X62722Y-13733D01*
X62713Y-13710D01*
X62705Y-13690D01*
X62697Y-13671D01*
X62690Y-13654D01*
X62684Y-13639D01*
X62680Y-13627D01*
X62676Y-13618D01*
X62673Y-13612D01*
X62672Y-13608D01*
X62672Y-13608D01*
X62672Y-13603D01*
X62673Y-13599D01*
X62676Y-13594D01*
X62680Y-13590D01*
X62687Y-13584D01*
X62697Y-13578D01*
X62705Y-13572D01*
X62714Y-13566D01*
X62724Y-13560D01*
X62732Y-13554D01*
X62739Y-13549D01*
X62742Y-13548D01*
X62748Y-13543D01*
X62755Y-13537D01*
X62764Y-13531D01*
X62773Y-13524D01*
X62775Y-13523D01*
X62796Y-13506D01*
X62817Y-13487D01*
X62837Y-13465D01*
X62857Y-13443D01*
X62874Y-13420D01*
X62885Y-13405D01*
X62905Y-13370D01*
X62922Y-13334D01*
X62936Y-13297D01*
X62948Y-13259D01*
X62955Y-13220D01*
X62960Y-13181D01*
X62961Y-13141D01*
X62959Y-13102D01*
X62954Y-13063D01*
X62946Y-13024D01*
X62934Y-12986D01*
X62929Y-12972D01*
X62912Y-12934D01*
X62892Y-12898D01*
X62870Y-12864D01*
X62845Y-12833D01*
X62817Y-12804D01*
X62787Y-12777D01*
X62754Y-12753D01*
X62720Y-12731D01*
X62696Y-12719D01*
X62660Y-12703D01*
X62625Y-12690D01*
X62590Y-12681D01*
X62553Y-12675D01*
X62516Y-12671D01*
X62486Y-12670D01*
X62468Y-12671D01*
X62452Y-12671D01*
X62438Y-12672D01*
X62424Y-12674D01*
X62408Y-12676D01*
X62397Y-12678D01*
X62360Y-12687D01*
X62323Y-12699D01*
X62287Y-12714D01*
X62252Y-12731D01*
X62219Y-12752D01*
X62188Y-12775D01*
X62158Y-12800D01*
X62134Y-12825D01*
X62108Y-12857D01*
X62084Y-12890D01*
X62064Y-12925D01*
X62047Y-12962D01*
X62033Y-13000D01*
X62022Y-13040D01*
X62014Y-13082D01*
X62013Y-13088D01*
X62012Y-13099D01*
X62011Y-13112D01*
X62011Y-13127D01*
X62011Y-13143D01*
X62011Y-13160D01*
X62012Y-13176D01*
X62013Y-13190D01*
X62014Y-13203D01*
X62014Y-13207D01*
X62021Y-13248D01*
X62032Y-13288D01*
X62046Y-13326D01*
X62063Y-13363D01*
X62083Y-13398D01*
X62107Y-13433D01*
X62111Y-13439D01*
X62122Y-13452D01*
X62135Y-13466D01*
X62149Y-13480D01*
X62164Y-13495D01*
X62178Y-13508D01*
X62192Y-13519D01*
X62197Y-13523D01*
X62205Y-13529D01*
X62214Y-13536D01*
X62223Y-13542D01*
X62229Y-13547D01*
X62230Y-13548D01*
X62236Y-13552D01*
X62244Y-13557D01*
X62253Y-13563D01*
X62262Y-13569D01*
X62267Y-13572D01*
X62278Y-13580D01*
X62287Y-13586D01*
X62293Y-13591D01*
X62297Y-13596D01*
X62299Y-13600D01*
X62300Y-13604D01*
X62300Y-13608D01*
X62299Y-13610D01*
X62297Y-13616D01*
X62293Y-13624D01*
X62289Y-13635D01*
X62284Y-13649D01*
X62277Y-13665D01*
X62270Y-13683D01*
X62262Y-13703D01*
X62253Y-13725D01*
X62243Y-13749D01*
X62233Y-13774D01*
X62222Y-13800D01*
X62210Y-13828D01*
X62199Y-13856D01*
X62187Y-13885D01*
X62174Y-13915D01*
X62162Y-13945D01*
X62149Y-13975D01*
X62137Y-14006D01*
X62124Y-14036D01*
X62112Y-14066D01*
X62100Y-14095D01*
X62088Y-14124D01*
X62076Y-14151D01*
X62065Y-14178D01*
X62055Y-14203D01*
X62044Y-14227D01*
X62035Y-14250D01*
X62026Y-14270D01*
X62019Y-14289D01*
X62011Y-14306D01*
X62005Y-14320D01*
X62000Y-14332D01*
X61996Y-14341D01*
X61994Y-14347D01*
X61992Y-14350D01*
X61992Y-14350D01*
X61990Y-14352D01*
X61988Y-14354D01*
X61986Y-14355D01*
X61983Y-14355D01*
X61979Y-14355D01*
X61975Y-14353D01*
X61969Y-14351D01*
X61961Y-14347D01*
X61951Y-14343D01*
X61940Y-14337D01*
X61926Y-14329D01*
X61909Y-14320D01*
X61897Y-14314D01*
X61879Y-14305D01*
X61865Y-14297D01*
X61852Y-14290D01*
X61843Y-14285D01*
X61835Y-14281D01*
X61828Y-14278D01*
X61823Y-14276D01*
X61820Y-14275D01*
X61817Y-14274D01*
X61814Y-14273D01*
X61812Y-14273D01*
X61810Y-14273D01*
X61808Y-14273D01*
X61807Y-14273D01*
X61806Y-14273D01*
X61805Y-14273D01*
X61804Y-14273D01*
X61802Y-14273D01*
X61800Y-14274D01*
X61797Y-14276D01*
X61793Y-14278D01*
X61789Y-14281D01*
X61783Y-14284D01*
X61776Y-14289D01*
X61767Y-14295D01*
X61757Y-14302D01*
X61745Y-14310D01*
X61731Y-14320D01*
X61715Y-14331D01*
X61697Y-14343D01*
X61676Y-14357D01*
X61653Y-14374D01*
X61628Y-14391D01*
X61607Y-14405D01*
X61587Y-14419D01*
X61567Y-14432D01*
X61549Y-14445D01*
X61532Y-14456D01*
X61516Y-14467D01*
X61502Y-14476D01*
X61491Y-14485D01*
X61481Y-14491D01*
X61473Y-14496D01*
X61469Y-14499D01*
X61467Y-14501D01*
X61458Y-14506D01*
X61450Y-14508D01*
X61442Y-14508D01*
X61442Y-14508D01*
X61440Y-14507D01*
X61436Y-14503D01*
X61429Y-14497D01*
X61420Y-14488D01*
X61409Y-14477D01*
X61395Y-14464D01*
X61379Y-14448D01*
X61360Y-14429D01*
X61339Y-14409D01*
X61316Y-14385D01*
X61290Y-14359D01*
X61280Y-14349D01*
X61257Y-14326D01*
X61236Y-14305D01*
X61217Y-14286D01*
X61201Y-14270D01*
X61186Y-14255D01*
X61173Y-14243D01*
X61163Y-14231D01*
X61153Y-14222D01*
X61145Y-14214D01*
X61139Y-14207D01*
X61134Y-14202D01*
X61130Y-14197D01*
X61126Y-14193D01*
X61124Y-14190D01*
X61123Y-14188D01*
X61122Y-14187D01*
X61121Y-14185D01*
X61121Y-14185D01*
X61120Y-14179D01*
X61121Y-14174D01*
X61121Y-14173D01*
X61123Y-14171D01*
X61126Y-14166D01*
X61130Y-14159D01*
X61137Y-14149D01*
X61145Y-14138D01*
X61154Y-14124D01*
X61165Y-14108D01*
X61176Y-14091D01*
X61189Y-14072D01*
X61203Y-14053D01*
X61217Y-14032D01*
X61232Y-14010D01*
X61239Y-14000D01*
X61254Y-13978D01*
X61268Y-13957D01*
X61282Y-13937D01*
X61295Y-13917D01*
X61308Y-13900D01*
X61319Y-13883D01*
X61329Y-13868D01*
X61338Y-13855D01*
X61345Y-13845D01*
X61351Y-13836D01*
X61355Y-13830D01*
X61357Y-13826D01*
X61357Y-13826D01*
X61358Y-13824D01*
X61359Y-13822D01*
X61360Y-13819D01*
X61361Y-13817D01*
X61361Y-13814D01*
X61360Y-13810D01*
X61359Y-13806D01*
X61358Y-13801D01*
X61356Y-13794D01*
X61353Y-13786D01*
X61349Y-13776D01*
X61345Y-13764D01*
X61339Y-13750D01*
X61333Y-13734D01*
X61326Y-13716D01*
X61317Y-13694D01*
X61308Y-13670D01*
X61297Y-13643D01*
X61295Y-13639D01*
X61286Y-13616D01*
X61277Y-13594D01*
X61268Y-13573D01*
X61261Y-13553D01*
X61253Y-13535D01*
X61247Y-13519D01*
X61241Y-13504D01*
X61236Y-13492D01*
X61232Y-13483D01*
X61229Y-13476D01*
X61227Y-13472D01*
X61227Y-13471D01*
X61226Y-13469D01*
X61225Y-13468D01*
X61224Y-13467D01*
X61222Y-13465D01*
X61220Y-13464D01*
X61217Y-13463D01*
X61213Y-13461D01*
X61208Y-13460D01*
X61202Y-13458D01*
X61194Y-13456D01*
X61184Y-13454D01*
X61173Y-13452D01*
X61159Y-13449D01*
X61143Y-13446D01*
X61125Y-13443D01*
X61104Y-13439D01*
X61081Y-13434D01*
X61054Y-13429D01*
X61024Y-13424D01*
X61010Y-13421D01*
X60984Y-13416D01*
X60959Y-13412D01*
X60934Y-13407D01*
X60911Y-13403D01*
X60890Y-13399D01*
X60870Y-13395D01*
X60852Y-13392D01*
X60837Y-13389D01*
X60824Y-13386D01*
X60814Y-13384D01*
X60806Y-13383D01*
X60802Y-13382D01*
X60801Y-13382D01*
X60793Y-13378D01*
X60786Y-13372D01*
X60781Y-13365D01*
X60781Y-13363D01*
X60780Y-13360D01*
X60780Y-13355D01*
X60780Y-13347D01*
X60779Y-13337D01*
X60779Y-13323D01*
X60779Y-13306D01*
X60779Y-13286D01*
X60779Y-13264D01*
X60779Y-13237D01*
X60779Y-13208D01*
X60779Y-13175D01*
X60779Y-13139D01*
X60779Y-13138D01*
X60780Y-12921D01*
X60785Y-12914D01*
X60789Y-12910D01*
X60793Y-12907D01*
X60794Y-12906D01*
X60797Y-12905D01*
X60802Y-12904D01*
X60811Y-12903D01*
X60822Y-12900D01*
X60836Y-12898D01*
X60853Y-12895D01*
X60871Y-12891D01*
X60892Y-12887D01*
X60914Y-12883D01*
X60938Y-12878D01*
X60963Y-12874D01*
X60989Y-12869D01*
X61009Y-12865D01*
X61042Y-12859D01*
X61074Y-12853D01*
X61102Y-12848D01*
X61128Y-12843D01*
X61151Y-12838D01*
X61171Y-12835D01*
X61188Y-12831D01*
X61202Y-12828D01*
X61213Y-12826D01*
X61220Y-12824D01*
X61225Y-12823D01*
X61225Y-12823D01*
X61231Y-12819D01*
X61236Y-12814D01*
X61237Y-12813D01*
X61238Y-12810D01*
X61241Y-12804D01*
X61245Y-12796D01*
X61250Y-12785D01*
X61256Y-12772D01*
X61262Y-12758D01*
X61269Y-12741D01*
X61277Y-12724D01*
X61285Y-12705D01*
X61293Y-12686D01*
X61301Y-12666D01*
X61310Y-12646D01*
X61318Y-12627D01*
X61327Y-12607D01*
X61335Y-12588D01*
X61342Y-12571D01*
X61349Y-12554D01*
X61355Y-12539D01*
X61361Y-12526D01*
X61365Y-12514D01*
X61369Y-12506D01*
X61371Y-12499D01*
X61373Y-12496D01*
X61373Y-12496D01*
X61373Y-12489D01*
X61371Y-12483D01*
X61371Y-12482D01*
X61370Y-12480D01*
X61367Y-12475D01*
X61362Y-12467D01*
X61355Y-12457D01*
X61347Y-12445D01*
X61338Y-12431D01*
X61327Y-12415D01*
X61315Y-12398D01*
X61302Y-12379D01*
X61289Y-12359D01*
X61274Y-12338D01*
X61259Y-12315D01*
X61247Y-12298D01*
X61232Y-12275D01*
X61217Y-12253D01*
X61202Y-12232D01*
X61189Y-12212D01*
X61176Y-12194D01*
X61164Y-12177D01*
X61154Y-12162D01*
X61145Y-12148D01*
X61137Y-12137D01*
X61131Y-12127D01*
X61126Y-12120D01*
X61123Y-12116D01*
X61122Y-12115D01*
X61121Y-12109D01*
X61121Y-12102D01*
X61121Y-12100D01*
X61122Y-12099D01*
X61122Y-12098D01*
X61123Y-12096D01*
X61125Y-12094D01*
X61127Y-12091D01*
X61130Y-12087D01*
X61134Y-12083D01*
X61139Y-12077D01*
X61145Y-12071D01*
X61153Y-12063D01*
X61162Y-12054D01*
X61172Y-12043D01*
X61185Y-12031D01*
X61199Y-12017D01*
X61215Y-12001D01*
X61233Y-11982D01*
X61253Y-11962D01*
X61276Y-11939D01*
X61279Y-11936D01*
X61302Y-11913D01*
X61323Y-11892D01*
X61342Y-11874D01*
X61358Y-11857D01*
X61373Y-11843D01*
X61386Y-11830D01*
X61397Y-11819D01*
X61406Y-11810D01*
X61414Y-11802D01*
X61421Y-11796D01*
X61426Y-11791D01*
X61431Y-11787D01*
X61434Y-11784D01*
X61437Y-11781D01*
X61439Y-11780D01*
X61441Y-11779D01*
X61442Y-11778D01*
X61443Y-11778D01*
X61449Y-11778D01*
X61455Y-11779D01*
X61455Y-11779D01*
X61457Y-11780D01*
X61462Y-11783D01*
X61470Y-11788D01*
X61479Y-11794D01*
X61491Y-11802D01*
X61505Y-11812D01*
X61521Y-11822D01*
X61538Y-11834D01*
X61557Y-11847D01*
X61577Y-11861D01*
X61598Y-11875D01*
X61621Y-11890D01*
X61639Y-11903D01*
X61662Y-11919D01*
X61684Y-11934D01*
X61705Y-11948D01*
X61725Y-11962D01*
X61744Y-11975D01*
X61761Y-11987D01*
X61777Y-11997D01*
X61791Y-12007D01*
X61803Y-12015D01*
X61812Y-12021D01*
X61819Y-12026D01*
X61824Y-12029D01*
X61826Y-12030D01*
X61828Y-12032D01*
X61830Y-12033D01*
X61833Y-12033D01*
X61835Y-12034D01*
X61838Y-12034D01*
X61842Y-12034D01*
X61847Y-12033D01*
X61853Y-12031D01*
X61860Y-12029D01*
X61869Y-12026D01*
X61879Y-12022D01*
X61891Y-12017D01*
X61906Y-12011D01*
X61923Y-12004D01*
X61942Y-11996D01*
X61964Y-11987D01*
X61989Y-11977D01*
X62003Y-11972D01*
X62032Y-11960D01*
X62057Y-11949D01*
X62080Y-11940D01*
X62099Y-11932D01*
X62115Y-11925D01*
X62129Y-11919D01*
X62140Y-11914D01*
X62148Y-11910D01*
X62154Y-11908D01*
X62157Y-11906D01*
X62157Y-11906D01*
X62161Y-11901D01*
X62164Y-11895D01*
X62165Y-11894D01*
X62165Y-11891D01*
X62167Y-11885D01*
X62168Y-11876D01*
X62171Y-11864D01*
X62173Y-11850D01*
X62177Y-11833D01*
X62180Y-11814D01*
X62184Y-11793D01*
X62189Y-11771D01*
X62193Y-11747D01*
X62198Y-11721D01*
X62203Y-11695D01*
X62207Y-11670D01*
X62212Y-11643D01*
X62217Y-11617D01*
X62222Y-11592D01*
X62227Y-11568D01*
X62231Y-11546D01*
X62235Y-11525D01*
X62238Y-11507D01*
X62241Y-11491D01*
X62244Y-11477D01*
X62246Y-11466D01*
X62248Y-11457D01*
X62249Y-11452D01*
X62250Y-11450D01*
X62253Y-11446D01*
X62257Y-11442D01*
X62258Y-11441D01*
X62264Y-11437D01*
X62486Y-11437D01*
X62708Y-11437D01*
X62714Y-11442D01*
X62719Y-11446D01*
X62722Y-11450D01*
X62723Y-11451D01*
X62723Y-11454D01*
X62724Y-11459D01*
X62726Y-11468D01*
X62728Y-11480D01*
X62731Y-11494D01*
X62734Y-11510D01*
X62738Y-11529D01*
X62742Y-11550D01*
X62746Y-11572D01*
X62751Y-11596D01*
X62755Y-11621D01*
X62760Y-11648D01*
X62765Y-11675D01*
X62771Y-11707D01*
X62777Y-11737D01*
X62782Y-11763D01*
X62786Y-11787D01*
X62790Y-11807D01*
X62794Y-11825D01*
X62797Y-11841D01*
X62799Y-11854D01*
X62802Y-11866D01*
X62804Y-11875D01*
X62806Y-11883D01*
X62807Y-11889D01*
X62809Y-11895D01*
X62810Y-11899D01*
X62811Y-11902D01*
X62813Y-11904D01*
X62814Y-11905D01*
X62815Y-11907D01*
X62817Y-11908D01*
X62818Y-11909D01*
X62819Y-11909D01*
X62821Y-11910D01*
X62826Y-11913D01*
X62834Y-11916D01*
X62845Y-11920D01*
X62858Y-11926D01*
X62873Y-11932D01*
X62890Y-11939D01*
X62908Y-11947D01*
X62928Y-11955D01*
X62949Y-11963D01*
X62971Y-11972D01*
X62971Y-11972D01*
X62997Y-11983D01*
X63021Y-11993D01*
X63041Y-12001D01*
X63059Y-12009D01*
X63075Y-12015D01*
X63088Y-12020D01*
X63099Y-12024D01*
X63109Y-12028D01*
X63117Y-12030D01*
X63123Y-12032D01*
X63129Y-12033D01*
X63133Y-12034D01*
X63136Y-12034D01*
X63139Y-12033D01*
X63142Y-12033D01*
X63144Y-12031D01*
X63147Y-12030D01*
X63149Y-12028D01*
X63152Y-12027D01*
X63157Y-12023D01*
X63165Y-12018D01*
X63176Y-12011D01*
X63188Y-12002D01*
X63202Y-11992D01*
X63219Y-11981D01*
X63236Y-11969D01*
X63256Y-11956D01*
X63276Y-11942D01*
X63297Y-11927D01*
X63319Y-11912D01*
X63335Y-11901D01*
X63358Y-11886D01*
X63379Y-11871D01*
X63400Y-11857D01*
X63420Y-11843D01*
X63438Y-11831D01*
X63455Y-11819D01*
X63471Y-11809D01*
X63484Y-11800D01*
X63495Y-11793D01*
X63504Y-11786D01*
X63511Y-11782D01*
X63515Y-11780D01*
X63517Y-11779D01*
X63522Y-11778D01*
X63528Y-11778D01*
X63529Y-11778D01*
X63530Y-11779D01*
X63532Y-11779D01*
X63534Y-11781D01*
X63536Y-11783D01*
X63540Y-11786D01*
X63544Y-11789D01*
X63549Y-11794D01*
X63555Y-11800D01*
X63563Y-11807D01*
X63572Y-11816D01*
X63582Y-11826D01*
X63594Y-11838D01*
X63608Y-11852D01*
X63624Y-11868D01*
X63642Y-11885D01*
X63662Y-11905D01*
X63684Y-11928D01*
X63693Y-11936D01*
X63716Y-11959D01*
X63736Y-11980D01*
X63755Y-11999D01*
X63771Y-12015D01*
X63786Y-12029D01*
X63798Y-12042D01*
X63809Y-12053D01*
X63818Y-12062D01*
X63826Y-12070D01*
X63832Y-12077D01*
X63837Y-12082D01*
X63841Y-12087D01*
X63844Y-12090D01*
X63847Y-12093D01*
X63848Y-12096D01*
X63849Y-12097D01*
X63850Y-12099D01*
X63851Y-12100D01*
X63851Y-12101D01*
X63851Y-12102D01*
X63851Y-12109D01*
X63849Y-12115D01*
X63848Y-12117D01*
X63845Y-12122D01*
X63840Y-12129D01*
X63833Y-12139D01*
X63825Y-12151D01*
X63816Y-12165D01*
X63805Y-12181D01*
X63793Y-12198D01*
X63780Y-12217D01*
X63767Y-12237D01*
X63752Y-12258D01*
X63737Y-12280D01*
X63726Y-12296D01*
X63710Y-12319D01*
X63695Y-12340D01*
X63681Y-12361D01*
X63668Y-12381D01*
X63655Y-12400D01*
X63643Y-12417D01*
X63633Y-12432D01*
X63624Y-12446D01*
X63616Y-12458D01*
X63610Y-12467D01*
X63605Y-12474D01*
X63603Y-12478D01*
X63602Y-12480D01*
X63599Y-12489D01*
X63599Y-12495D01*
X63600Y-12497D01*
X63602Y-12503D01*
X63605Y-12511D01*
X63610Y-12522D01*
X63615Y-12535D01*
X63621Y-12550D01*
X63628Y-12566D01*
X63635Y-12583D01*
X63643Y-12602D01*
X63651Y-12621D01*
X63660Y-12641D01*
X63668Y-12661D01*
X63676Y-12681D01*
X63685Y-12700D01*
X63693Y-12719D01*
X63701Y-12737D01*
X63708Y-12754D01*
X63715Y-12769D01*
X63720Y-12782D01*
X63726Y-12794D01*
X63730Y-12803D01*
X63733Y-12809D01*
X63734Y-12813D01*
X63735Y-12813D01*
X63739Y-12818D01*
X63745Y-12822D01*
X63746Y-12823D01*
X63749Y-12824D01*
X63756Y-12825D01*
X63765Y-12827D01*
X63778Y-12830D01*
X63794Y-12833D01*
X63813Y-12837D01*
X63835Y-12841D01*
X63860Y-12846D01*
X63887Y-12851D01*
X63918Y-12857D01*
X63950Y-12863D01*
X63960Y-12865D01*
X63987Y-12870D01*
X64013Y-12874D01*
X64038Y-12879D01*
X64061Y-12883D01*
X64083Y-12887D01*
X64103Y-12891D01*
X64121Y-12895D01*
X64137Y-12898D01*
X64150Y-12900D01*
X64161Y-12902D01*
X64168Y-12904D01*
X64173Y-12905D01*
X64174Y-12905D01*
X64181Y-12909D01*
X64187Y-12914D01*
X64192Y-12921D01*
X64192Y-12921D01*
X64192Y-12921D01*
G37*
G54D12*
X58000Y-16800D03*
G54D13*
X59000Y-16800D03*
X60000Y-16800D03*
X61000Y-16800D03*
X62000Y-16800D03*
X62000Y-10700D03*
X61000Y-10700D03*
X60000Y-10700D03*
X59000Y-10700D03*
X58000Y-10700D03*
G54D12*
X31750Y-16800D03*
G54D13*
X32750Y-16800D03*
X33750Y-16800D03*
X34750Y-16800D03*
X35750Y-16800D03*
X35750Y-10700D03*
X34750Y-10700D03*
X33750Y-10700D03*
X32750Y-10700D03*
X31750Y-10700D03*
G54D12*
X52750Y-16800D03*
G54D13*
X53750Y-16800D03*
X54750Y-16800D03*
X55750Y-16800D03*
X56750Y-16800D03*
X56750Y-10700D03*
X55750Y-10700D03*
X54750Y-10700D03*
X53750Y-10700D03*
X52750Y-10700D03*
G54D12*
X47500Y-16800D03*
G54D13*
X48500Y-16800D03*
X49500Y-16800D03*
X50500Y-16800D03*
X51500Y-16800D03*
X51500Y-10700D03*
X50500Y-10700D03*
X49500Y-10700D03*
X48500Y-10700D03*
X47500Y-10700D03*
G54D12*
X42250Y-16800D03*
G54D13*
X43250Y-16800D03*
X44250Y-16800D03*
X45250Y-16800D03*
X46250Y-16800D03*
X46250Y-10700D03*
X45250Y-10700D03*
X44250Y-10700D03*
X43250Y-10700D03*
X42250Y-10700D03*
G54D12*
X37000Y-16800D03*
G54D13*
X38000Y-16800D03*
X39000Y-16800D03*
X40000Y-16800D03*
X41000Y-16800D03*
X41000Y-10700D03*
X40000Y-10700D03*
X39000Y-10700D03*
X38000Y-10700D03*
X37000Y-10700D03*
X39400Y-22550D03*
X39400Y-19550D03*
G54D12*
X27500Y-16250D03*
G54D13*
X27500Y-18250D03*
G54D14*
X62500Y-24750D03*
X27000Y-22250D03*
X62500Y-19000D03*
X28000Y-11000D03*
G54D13*
X57000Y-25000D03*
X55000Y-25000D03*
G54D15*
X40500Y-24750D03*
X43000Y-24750D03*
G54D12*
X44000Y-26250D03*
G54D13*
X45000Y-26250D03*
X46000Y-26250D03*
X47000Y-26250D03*
X48000Y-26250D03*
X49000Y-26250D03*
X50000Y-26250D03*
X51000Y-26250D03*
X40000Y-26250D03*
X43000Y-26250D03*
G54D12*
X60750Y-22750D03*
G54D13*
X60750Y-20750D03*
G54D16*
X58000Y-22500D03*
X58000Y-20500D03*
X39000Y-24750D03*
X37000Y-24750D03*
G54D13*
X52750Y-25000D03*
X52750Y-26000D03*
X59250Y-25000D03*
X59250Y-26000D03*
G54D17*
X44000Y-23000D03*
X45000Y-23000D03*
X46000Y-23000D03*
X47000Y-23000D03*
X48000Y-23000D03*
X49000Y-23000D03*
X50000Y-23000D03*
X51000Y-23000D03*
X52000Y-23000D03*
X53000Y-23000D03*
X54000Y-23000D03*
X55000Y-23000D03*
X56000Y-23000D03*
G54D18*
X43000Y-23000D03*
G54D17*
X56000Y-20000D03*
X55000Y-20000D03*
X54000Y-20000D03*
X53000Y-20000D03*
X52000Y-20000D03*
X51000Y-20000D03*
X50000Y-20000D03*
X49000Y-20000D03*
X48000Y-20000D03*
X47000Y-20000D03*
X46000Y-20000D03*
X45000Y-20000D03*
X44000Y-20000D03*
X43000Y-20000D03*
G54D19*
X26750Y-25000D03*
G54D20*
X27750Y-25000D03*
X28750Y-25000D03*
X29750Y-25000D03*
X30750Y-25000D03*
X31750Y-25000D03*
G54D19*
X26750Y-26250D03*
G54D20*
X27750Y-26250D03*
X28750Y-26250D03*
X29750Y-26250D03*
X30750Y-26250D03*
X31750Y-26250D03*
G54D19*
X57000Y-18500D03*
G54D20*
X56000Y-18500D03*
X55000Y-18500D03*
X54000Y-18500D03*
X53000Y-18500D03*
X52000Y-18500D03*
G54D19*
X48000Y-18500D03*
G54D20*
X47000Y-18500D03*
X46000Y-18500D03*
X45000Y-18500D03*
X44000Y-18500D03*
X43000Y-18500D03*
G54D19*
X33750Y-26250D03*
G54D20*
X34750Y-26250D03*
X35750Y-26250D03*
X36750Y-26250D03*
X37750Y-26250D03*
X38750Y-26250D03*
G54D21*
X62450Y-13150D03*
G54D22*
X34660Y-18610D03*
X41550Y-24400D03*
X29350Y-24100D03*
X35550Y-23800D03*
X33300Y-23550D03*
X31400Y-18600D03*
X31050Y-22950D03*
X56750Y-9650D03*
X51500Y-9650D03*
X46250Y-9650D03*
X41000Y-9650D03*
X35750Y-9650D03*
X35750Y-14950D03*
X56750Y-14950D03*
X51500Y-14950D03*
X46250Y-14950D03*
X41000Y-14950D03*
X30200Y-11750D03*
X53750Y-11750D03*
X48500Y-11750D03*
X43250Y-11750D03*
X32750Y-11750D03*
X38000Y-11750D03*
X53750Y-15750D03*
X48500Y-15750D03*
X43250Y-15750D03*
X38000Y-15750D03*
X32750Y-15750D03*
X28850Y-14200D03*
X54750Y-12150D03*
X28750Y-12900D03*
X44250Y-12150D03*
X29500Y-12200D03*
X33750Y-12200D03*
X30500Y-10050D03*
X29450Y-13800D03*
X28000Y-14600D03*
X49500Y-12150D03*
X34750Y-18000D03*
X34750Y-15350D03*
X55750Y-15350D03*
X50500Y-15350D03*
X45250Y-15350D03*
X40000Y-15350D03*
X29700Y-12550D03*
X39000Y-12150D03*
X33500Y-18150D03*
X52000Y-20000D03*
X37900Y-17950D03*
X37900Y-19450D03*
X37850Y-23450D03*
G54D23*
X27750Y-25000D02*
X27750Y-24700D01*
X30750Y-21700D02*
X30750Y-21550D01*
X27750Y-24700D02*
X30750Y-21700D01*
X27500Y-16250D02*
X29600Y-16250D01*
X31300Y-17950D02*
X31300Y-17970D01*
X29600Y-16250D02*
X31300Y-17950D01*
X30750Y-18000D02*
X30750Y-17420D01*
X30750Y-21550D02*
X30750Y-18000D01*
X30750Y-17420D02*
X31300Y-17970D01*
X31300Y-17970D02*
X31820Y-18490D01*
X31820Y-18490D02*
X34540Y-18490D01*
X34540Y-18490D02*
X34660Y-18610D01*
X40000Y-26250D02*
X41100Y-26250D01*
X41550Y-25800D02*
X41550Y-24400D01*
X41100Y-26250D02*
X41550Y-25800D01*
X27750Y-26250D02*
X27750Y-25000D01*
X36750Y-26250D02*
X36750Y-26400D01*
X39250Y-27000D02*
X40000Y-26250D01*
X37350Y-27000D02*
X39250Y-27000D01*
X36750Y-26400D02*
X37350Y-27000D01*
X26750Y-25000D02*
X26750Y-24800D01*
X28750Y-19500D02*
X27500Y-18250D01*
X28750Y-23200D02*
X28750Y-19500D01*
X27850Y-24100D02*
X28750Y-23200D01*
X27450Y-24100D02*
X27850Y-24100D01*
X26750Y-24800D02*
X27450Y-24100D01*
X33300Y-23550D02*
X33300Y-22550D01*
X31000Y-22450D02*
X29350Y-24100D01*
X33200Y-22450D02*
X31000Y-22450D01*
X33300Y-22550D02*
X33200Y-22450D01*
X58000Y-20500D02*
X60500Y-20500D01*
X60500Y-20500D02*
X60750Y-20750D01*
X58250Y-26000D02*
X58250Y-24000D01*
X58750Y-23500D02*
X58750Y-20500D01*
X58250Y-24000D02*
X58750Y-23500D01*
X49000Y-20000D02*
X49000Y-19350D01*
X59150Y-19050D02*
X59150Y-20500D01*
X57800Y-17700D02*
X59150Y-19050D01*
X50650Y-17700D02*
X57800Y-17700D01*
X49000Y-19350D02*
X50650Y-17700D01*
X37750Y-26250D02*
X37750Y-24150D01*
X37400Y-23800D02*
X35550Y-23800D01*
X37750Y-24150D02*
X37400Y-23800D01*
X26750Y-26250D02*
X26750Y-25000D01*
X50000Y-23000D02*
X50000Y-23250D01*
X50000Y-23250D02*
X52750Y-26000D01*
X52750Y-26000D02*
X58250Y-26000D01*
X58250Y-26000D02*
X59250Y-26000D01*
X60750Y-20500D02*
X59150Y-20500D01*
X59150Y-20500D02*
X58750Y-20500D01*
X58750Y-20500D02*
X58000Y-20500D01*
X38750Y-26250D02*
X39500Y-25500D01*
X39750Y-25500D02*
X40500Y-24750D01*
X39500Y-25500D02*
X39750Y-25500D01*
X37750Y-26250D02*
X38750Y-26250D01*
X32250Y-19900D02*
X31200Y-19900D01*
X28750Y-25000D02*
X28750Y-24100D01*
X28750Y-24100D02*
X31200Y-21650D01*
X31200Y-21650D02*
X31200Y-19900D01*
X31200Y-19900D02*
X31200Y-18800D01*
X43150Y-20700D02*
X42650Y-20700D01*
X42650Y-20700D02*
X39450Y-17500D01*
X39450Y-17500D02*
X36550Y-17500D01*
X36550Y-17500D02*
X34150Y-19900D01*
X34150Y-19900D02*
X32250Y-19900D01*
X53000Y-20000D02*
X53000Y-20300D01*
X53000Y-20300D02*
X52600Y-20700D01*
X52600Y-20700D02*
X43150Y-20700D01*
X31200Y-18800D02*
X31400Y-18600D01*
X28750Y-26250D02*
X28750Y-25000D01*
X53000Y-20000D02*
X53000Y-18500D01*
X41250Y-21000D02*
X37650Y-21000D01*
X30400Y-26900D02*
X29750Y-26250D01*
X32150Y-26900D02*
X30400Y-26900D01*
X32500Y-26550D02*
X32150Y-26900D01*
X32500Y-25800D02*
X32500Y-26550D01*
X37300Y-21000D02*
X32500Y-25800D01*
X37650Y-21000D02*
X37300Y-21000D01*
X54000Y-20000D02*
X54000Y-20600D01*
X53600Y-21000D02*
X41250Y-21000D01*
X41250Y-21000D02*
X41100Y-21000D01*
X54000Y-20600D02*
X53600Y-21000D01*
X29750Y-25000D02*
X29750Y-24250D01*
X29750Y-24250D02*
X31050Y-22950D01*
X29750Y-26250D02*
X29750Y-25000D01*
X54000Y-20000D02*
X54000Y-18500D01*
X52750Y-25000D02*
X55000Y-25000D01*
X51000Y-23000D02*
X51000Y-23250D01*
X51000Y-23250D02*
X52750Y-25000D01*
X56300Y-9650D02*
X61500Y-9650D01*
X62000Y-10150D02*
X62000Y-10700D01*
X61500Y-9650D02*
X62000Y-10150D01*
X51150Y-9650D02*
X56300Y-9650D01*
X56300Y-9650D02*
X56750Y-9650D01*
X46000Y-9650D02*
X51150Y-9650D01*
X51150Y-9650D02*
X51500Y-9650D01*
X41000Y-9650D02*
X46000Y-9650D01*
X46000Y-9650D02*
X46250Y-9650D01*
X35750Y-9650D02*
X41000Y-9650D01*
X45000Y-26250D02*
X45000Y-23000D01*
X52000Y-23000D02*
X52000Y-23500D01*
X56250Y-24250D02*
X57000Y-25000D01*
X52750Y-24250D02*
X56250Y-24250D01*
X52000Y-23500D02*
X52750Y-24250D01*
X39000Y-24750D02*
X39250Y-24750D01*
X40000Y-24000D02*
X43000Y-24000D01*
X39250Y-24750D02*
X40000Y-24000D01*
X43000Y-26250D02*
X43000Y-24750D01*
X43000Y-24750D02*
X43000Y-24000D01*
X43000Y-24000D02*
X43000Y-23000D01*
X44000Y-26250D02*
X44000Y-23000D01*
X56000Y-23000D02*
X56500Y-23000D01*
X57000Y-22500D02*
X57000Y-18500D01*
X56500Y-23000D02*
X57000Y-22500D01*
X56000Y-20000D02*
X56000Y-18500D01*
X48000Y-20000D02*
X48000Y-18500D01*
X47000Y-20000D02*
X47000Y-18500D01*
X46000Y-20000D02*
X46000Y-18500D01*
X45000Y-20000D02*
X45000Y-18500D01*
X44000Y-20000D02*
X44000Y-18500D01*
X43000Y-20000D02*
X43000Y-18500D01*
X47000Y-26250D02*
X47000Y-23000D01*
X33750Y-26250D02*
X33750Y-25500D01*
X34500Y-24750D02*
X37000Y-24750D01*
X33750Y-25500D02*
X34500Y-24750D01*
X59950Y-14950D02*
X60850Y-14950D01*
X62000Y-16100D02*
X62000Y-16800D01*
X60850Y-14950D02*
X62000Y-16100D01*
X35750Y-14950D02*
X41000Y-14950D01*
X56300Y-14950D02*
X59950Y-14950D01*
X51150Y-14950D02*
X56300Y-14950D01*
X56300Y-14950D02*
X56750Y-14950D01*
X45850Y-14950D02*
X51150Y-14950D01*
X51150Y-14950D02*
X51500Y-14950D01*
X41000Y-14950D02*
X45850Y-14950D01*
X45850Y-14950D02*
X46250Y-14950D01*
X30200Y-11750D02*
X32750Y-11750D01*
X53500Y-11750D02*
X58650Y-11750D01*
X59000Y-11400D02*
X59000Y-10700D01*
X58650Y-11750D02*
X59000Y-11400D01*
X48500Y-11750D02*
X53500Y-11750D01*
X53500Y-11750D02*
X53750Y-11750D01*
X43250Y-11750D02*
X48500Y-11750D01*
X38000Y-11750D02*
X43250Y-11750D01*
X38050Y-11750D02*
X38000Y-11750D01*
X32750Y-11750D02*
X38050Y-11750D01*
X53400Y-15750D02*
X58800Y-15750D01*
X59000Y-15950D02*
X59000Y-16800D01*
X58800Y-15750D02*
X59000Y-15950D01*
X48150Y-15750D02*
X53400Y-15750D01*
X53400Y-15750D02*
X53750Y-15750D01*
X42900Y-15750D02*
X48150Y-15750D01*
X48150Y-15750D02*
X48500Y-15750D01*
X37700Y-15750D02*
X42900Y-15750D01*
X42900Y-15750D02*
X43250Y-15750D01*
X32750Y-15750D02*
X37700Y-15750D01*
X37700Y-15750D02*
X38000Y-15750D01*
X28850Y-14200D02*
X28850Y-13900D01*
X28850Y-13900D02*
X29300Y-13450D01*
X29300Y-13450D02*
X29950Y-13450D01*
X29950Y-13450D02*
X30000Y-13500D01*
X29550Y-13450D02*
X29300Y-13450D01*
X29300Y-13450D02*
X28850Y-13900D01*
X31900Y-13500D02*
X47700Y-13500D01*
X30000Y-13500D02*
X31900Y-13500D01*
X29950Y-13450D02*
X30000Y-13500D01*
X29550Y-13450D02*
X29950Y-13450D01*
X53400Y-13500D02*
X47700Y-13500D01*
X54750Y-12150D02*
X53400Y-13500D01*
X47700Y-13500D02*
X47500Y-13500D01*
X46000Y-26250D02*
X46000Y-23000D01*
X28750Y-12900D02*
X32000Y-12900D01*
X32000Y-12900D02*
X31900Y-12900D01*
X31900Y-12900D02*
X38400Y-12900D01*
X43500Y-12900D02*
X38400Y-12900D01*
X44250Y-12150D02*
X43500Y-12900D01*
X38400Y-12900D02*
X38100Y-12900D01*
X29500Y-12200D02*
X31650Y-12200D01*
X33750Y-12200D02*
X31650Y-12200D01*
X31650Y-12200D02*
X31550Y-12200D01*
X30500Y-10050D02*
X35150Y-10050D01*
X55300Y-10050D02*
X60700Y-10050D01*
X61000Y-10350D02*
X61000Y-10700D01*
X60700Y-10050D02*
X61000Y-10350D01*
X50150Y-10050D02*
X55300Y-10050D01*
X55300Y-10050D02*
X55450Y-10050D01*
X55750Y-10350D02*
X55750Y-10700D01*
X55450Y-10050D02*
X55750Y-10350D01*
X44900Y-10050D02*
X50150Y-10050D01*
X50150Y-10050D02*
X50200Y-10050D01*
X50500Y-10350D02*
X50500Y-10700D01*
X50200Y-10050D02*
X50500Y-10350D01*
X39600Y-10050D02*
X44900Y-10050D01*
X44900Y-10050D02*
X45000Y-10050D01*
X45250Y-10300D02*
X45250Y-10700D01*
X45000Y-10050D02*
X45250Y-10300D01*
X34750Y-10700D02*
X34750Y-10450D01*
X40000Y-10300D02*
X40000Y-10700D01*
X39750Y-10050D02*
X40000Y-10300D01*
X35150Y-10050D02*
X39600Y-10050D01*
X39600Y-10050D02*
X39750Y-10050D01*
X34750Y-10450D02*
X35150Y-10050D01*
X52750Y-13800D02*
X53900Y-13800D01*
X53900Y-13800D02*
X55350Y-12350D01*
X29450Y-13800D02*
X32050Y-13800D01*
X55400Y-12350D02*
X55350Y-12350D01*
X55350Y-12350D02*
X53900Y-13800D01*
X52750Y-13800D02*
X32050Y-13800D01*
X32050Y-13800D02*
X31850Y-13800D01*
X60000Y-10700D02*
X60000Y-11000D01*
X60000Y-11000D02*
X58650Y-12350D01*
X58650Y-12350D02*
X55400Y-12350D01*
X28705Y-13555D02*
X28695Y-13555D01*
X28000Y-14250D02*
X28000Y-14600D01*
X28695Y-13555D02*
X28000Y-14250D01*
X31420Y-13200D02*
X30150Y-13200D01*
X29090Y-13170D02*
X28705Y-13555D01*
X30120Y-13170D02*
X29090Y-13170D01*
X30150Y-13200D02*
X30120Y-13170D01*
X43150Y-13200D02*
X31420Y-13200D01*
X31420Y-13200D02*
X31400Y-13200D01*
X48450Y-13200D02*
X43150Y-13200D01*
X49500Y-12150D02*
X48450Y-13200D01*
X43150Y-13200D02*
X43050Y-13200D01*
X34750Y-18000D02*
X34750Y-16800D01*
X34750Y-15350D02*
X40000Y-15350D01*
X55450Y-15350D02*
X60800Y-15350D01*
X61000Y-15550D02*
X61000Y-16800D01*
X60800Y-15350D02*
X61000Y-15550D01*
X50150Y-15350D02*
X55450Y-15350D01*
X55450Y-15350D02*
X55750Y-15350D01*
X44950Y-15350D02*
X50150Y-15350D01*
X50150Y-15350D02*
X50500Y-15350D01*
X40000Y-15350D02*
X44950Y-15350D01*
X44950Y-15350D02*
X45250Y-15350D01*
X48000Y-26250D02*
X48000Y-23000D01*
X29700Y-12550D02*
X31900Y-12550D01*
X38600Y-12550D02*
X31900Y-12550D01*
X39000Y-12150D02*
X38600Y-12550D01*
X31900Y-12550D02*
X31500Y-12550D01*
X31750Y-17850D02*
X31750Y-16800D01*
X32050Y-18150D02*
X31750Y-17850D01*
X33500Y-18150D02*
X32050Y-18150D01*
X52500Y-16150D02*
X58000Y-16150D01*
X58000Y-16150D02*
X58000Y-16800D01*
X47200Y-16150D02*
X52500Y-16150D01*
X52500Y-16150D02*
X52650Y-16150D01*
X52750Y-16250D02*
X52750Y-16800D01*
X52650Y-16150D02*
X52750Y-16250D01*
X42050Y-16150D02*
X47200Y-16150D01*
X47200Y-16150D02*
X47450Y-16150D01*
X47500Y-16200D02*
X47500Y-16800D01*
X47450Y-16150D02*
X47500Y-16200D01*
X36700Y-16150D02*
X42050Y-16150D01*
X42050Y-16150D02*
X42250Y-16150D01*
X42250Y-16150D02*
X42250Y-16800D01*
X31750Y-16800D02*
X31750Y-16500D01*
X37000Y-16150D02*
X37000Y-16800D01*
X32100Y-16150D02*
X36700Y-16150D01*
X36700Y-16150D02*
X37000Y-16150D01*
X31750Y-16500D02*
X32100Y-16150D01*
X57250Y-11350D02*
X57650Y-11350D01*
X58000Y-11000D02*
X58000Y-10700D01*
X57650Y-11350D02*
X58000Y-11000D01*
X52750Y-11350D02*
X57250Y-11350D01*
X47500Y-11350D02*
X52750Y-11350D01*
X52750Y-11350D02*
X52750Y-10700D01*
X42200Y-11350D02*
X47500Y-11350D01*
X47500Y-11350D02*
X47500Y-10700D01*
X37000Y-11350D02*
X42200Y-11350D01*
X42250Y-11300D02*
X42250Y-10700D01*
X42200Y-11350D02*
X42250Y-11300D01*
X31750Y-10700D02*
X31750Y-11050D01*
X37000Y-11350D02*
X37000Y-10700D01*
X32050Y-11350D02*
X37000Y-11350D01*
X31750Y-11050D02*
X32050Y-11350D01*
X37900Y-19700D02*
X37900Y-19950D01*
X37900Y-19950D02*
X37025Y-20825D01*
X30750Y-25000D02*
X30750Y-24950D01*
X33800Y-24050D02*
X37025Y-20825D01*
X31650Y-24050D02*
X33800Y-24050D01*
X30750Y-24950D02*
X31650Y-24050D01*
X37900Y-19700D02*
X37900Y-19000D01*
X30750Y-26250D02*
X30750Y-25000D01*
X37900Y-17950D02*
X37900Y-19000D01*
X37900Y-19000D02*
X37900Y-19450D01*
X52000Y-20000D02*
X52000Y-18500D01*
X41100Y-21350D02*
X39100Y-21350D01*
X55000Y-20500D02*
X54150Y-21350D01*
X54150Y-21350D02*
X41100Y-21350D01*
X55000Y-20000D02*
X55000Y-20500D01*
X37850Y-22600D02*
X37850Y-23450D01*
X39100Y-21350D02*
X37850Y-22600D01*
X31750Y-26250D02*
X31750Y-25000D01*
X55000Y-20000D02*
X55000Y-18500D01*
G54D10*
G36*
X37550Y-19805D02*
X36777Y-20577D01*
X33655Y-23700D01*
X31650Y-23700D01*
X31516Y-23726D01*
X31402Y-23802D01*
X30887Y-24317D01*
X30886Y-24317D01*
X30614Y-24316D01*
X30363Y-24420D01*
X30249Y-24534D01*
X30137Y-24421D01*
X30100Y-24405D01*
X30100Y-24394D01*
X31119Y-23375D01*
X31134Y-23375D01*
X31290Y-23310D01*
X31410Y-23191D01*
X31474Y-23034D01*
X31475Y-22865D01*
X31410Y-22709D01*
X31291Y-22589D01*
X31134Y-22525D01*
X30965Y-22524D01*
X30809Y-22589D01*
X30689Y-22708D01*
X30625Y-22865D01*
X30625Y-22879D01*
X29502Y-24002D01*
X29426Y-24116D01*
X29400Y-24250D01*
X29400Y-24405D01*
X29363Y-24420D01*
X29249Y-24534D01*
X29137Y-24421D01*
X29100Y-24405D01*
X29100Y-24244D01*
X31447Y-21897D01*
X31447Y-21897D01*
X31447Y-21897D01*
X31523Y-21783D01*
X31549Y-21650D01*
X31550Y-21650D01*
X31550Y-20250D01*
X32250Y-20250D01*
X34150Y-20250D01*
X34283Y-20223D01*
X34283Y-20223D01*
X34397Y-20147D01*
X36694Y-17850D01*
X37481Y-17850D01*
X37475Y-17865D01*
X37474Y-18034D01*
X37539Y-18190D01*
X37550Y-18200D01*
X37550Y-19000D01*
X37550Y-19198D01*
X37539Y-19208D01*
X37475Y-19365D01*
X37474Y-19534D01*
X37539Y-19690D01*
X37550Y-19700D01*
X37550Y-19805D01*
X37550Y-19805D01*
G37*
G54D24*
X37550Y-19805D02*
X36777Y-20577D01*
X33655Y-23700D01*
X31650Y-23700D01*
X31516Y-23726D01*
X31402Y-23802D01*
X30887Y-24317D01*
X30886Y-24317D01*
X30614Y-24316D01*
X30363Y-24420D01*
X30249Y-24534D01*
X30137Y-24421D01*
X30100Y-24405D01*
X30100Y-24394D01*
X31119Y-23375D01*
X31134Y-23375D01*
X31290Y-23310D01*
X31410Y-23191D01*
X31474Y-23034D01*
X31475Y-22865D01*
X31410Y-22709D01*
X31291Y-22589D01*
X31134Y-22525D01*
X30965Y-22524D01*
X30809Y-22589D01*
X30689Y-22708D01*
X30625Y-22865D01*
X30625Y-22879D01*
X29502Y-24002D01*
X29426Y-24116D01*
X29400Y-24250D01*
X29400Y-24405D01*
X29363Y-24420D01*
X29249Y-24534D01*
X29137Y-24421D01*
X29100Y-24405D01*
X29100Y-24244D01*
X31447Y-21897D01*
X31447Y-21897D01*
X31447Y-21897D01*
X31523Y-21783D01*
X31549Y-21650D01*
X31550Y-21650D01*
X31550Y-20250D01*
X32250Y-20250D01*
X34150Y-20250D01*
X34283Y-20223D01*
X34283Y-20223D01*
X34397Y-20147D01*
X36694Y-17850D01*
X37481Y-17850D01*
X37475Y-17865D01*
X37474Y-18034D01*
X37539Y-18190D01*
X37550Y-18200D01*
X37550Y-19000D01*
X37550Y-19198D01*
X37539Y-19208D01*
X37475Y-19365D01*
X37474Y-19534D01*
X37539Y-19690D01*
X37550Y-19700D01*
X37550Y-19805D01*
G54D10*
G36*
X64220Y-26970D02*
X64065Y-26970D01*
X64065Y-24439D01*
X64065Y-18689D01*
X63827Y-18114D01*
X63387Y-17673D01*
X62812Y-17434D01*
X62189Y-17434D01*
X61614Y-17672D01*
X61173Y-18112D01*
X60934Y-18687D01*
X60934Y-19310D01*
X61172Y-19885D01*
X61612Y-20326D01*
X62187Y-20565D01*
X62810Y-20565D01*
X63385Y-20327D01*
X63826Y-19887D01*
X64065Y-19312D01*
X64065Y-18689D01*
X64065Y-24439D01*
X63827Y-23864D01*
X63387Y-23423D01*
X62812Y-23184D01*
X62189Y-23184D01*
X61614Y-23422D01*
X61404Y-23631D01*
X61404Y-20855D01*
X61394Y-20597D01*
X61314Y-20402D01*
X61208Y-20362D01*
X61137Y-20433D01*
X61137Y-20291D01*
X61097Y-20185D01*
X60855Y-20095D01*
X60597Y-20105D01*
X60402Y-20185D01*
X60362Y-20291D01*
X60750Y-20679D01*
X61137Y-20291D01*
X61137Y-20433D01*
X60820Y-20750D01*
X61208Y-21137D01*
X61314Y-21097D01*
X61404Y-20855D01*
X61404Y-23631D01*
X61400Y-23636D01*
X61400Y-23100D01*
X61400Y-22300D01*
X61362Y-22208D01*
X61291Y-22138D01*
X61199Y-22100D01*
X61137Y-22099D01*
X61137Y-21208D01*
X60750Y-20820D01*
X60679Y-20891D01*
X60679Y-20750D01*
X60291Y-20362D01*
X60185Y-20402D01*
X60095Y-20644D01*
X60105Y-20902D01*
X60185Y-21097D01*
X60291Y-21137D01*
X60679Y-20750D01*
X60679Y-20891D01*
X60362Y-21208D01*
X60402Y-21314D01*
X60644Y-21404D01*
X60902Y-21394D01*
X61097Y-21314D01*
X61137Y-21208D01*
X61137Y-22099D01*
X61100Y-22099D01*
X60300Y-22099D01*
X60208Y-22137D01*
X60138Y-22208D01*
X60100Y-22300D01*
X60099Y-22399D01*
X60099Y-23199D01*
X60137Y-23291D01*
X60208Y-23361D01*
X60300Y-23399D01*
X60399Y-23400D01*
X61199Y-23400D01*
X61291Y-23362D01*
X61361Y-23291D01*
X61399Y-23199D01*
X61400Y-23100D01*
X61400Y-23636D01*
X61173Y-23862D01*
X60934Y-24437D01*
X60934Y-25060D01*
X61172Y-25635D01*
X61612Y-26076D01*
X62187Y-26315D01*
X62810Y-26315D01*
X63385Y-26077D01*
X63826Y-25637D01*
X64065Y-25062D01*
X64065Y-24439D01*
X64065Y-26970D01*
X59904Y-26970D01*
X59904Y-26105D01*
X59900Y-25991D01*
X59900Y-24871D01*
X59801Y-24632D01*
X59618Y-24449D01*
X59379Y-24350D01*
X59121Y-24349D01*
X58882Y-24448D01*
X58699Y-24631D01*
X58629Y-24799D01*
X58629Y-20599D01*
X58619Y-20351D01*
X58543Y-20167D01*
X58440Y-20130D01*
X58369Y-20201D01*
X58369Y-20059D01*
X58332Y-19956D01*
X58099Y-19870D01*
X57851Y-19880D01*
X57667Y-19956D01*
X57630Y-20059D01*
X58000Y-20429D01*
X58369Y-20059D01*
X58369Y-20201D01*
X58070Y-20500D01*
X58440Y-20869D01*
X58543Y-20832D01*
X58629Y-20599D01*
X58629Y-24799D01*
X58625Y-24809D01*
X58625Y-22376D01*
X58530Y-22146D01*
X58369Y-21985D01*
X58369Y-20940D01*
X58000Y-20570D01*
X57929Y-20641D01*
X57929Y-20500D01*
X57559Y-20130D01*
X57456Y-20167D01*
X57370Y-20400D01*
X57380Y-20648D01*
X57456Y-20832D01*
X57559Y-20869D01*
X57929Y-20500D01*
X57929Y-20641D01*
X57630Y-20940D01*
X57667Y-21043D01*
X57900Y-21129D01*
X58148Y-21119D01*
X58332Y-21043D01*
X58369Y-20940D01*
X58369Y-21985D01*
X58354Y-21970D01*
X58124Y-21875D01*
X57876Y-21874D01*
X57646Y-21969D01*
X57470Y-22145D01*
X57375Y-22375D01*
X57374Y-22623D01*
X57469Y-22853D01*
X57645Y-23029D01*
X57875Y-23124D01*
X58123Y-23125D01*
X58353Y-23030D01*
X58529Y-22854D01*
X58624Y-22624D01*
X58625Y-22376D01*
X58625Y-24809D01*
X58600Y-24870D01*
X58599Y-25128D01*
X58698Y-25367D01*
X58865Y-25534D01*
X58862Y-25541D01*
X59250Y-25929D01*
X59637Y-25541D01*
X59634Y-25534D01*
X59800Y-25368D01*
X59899Y-25129D01*
X59900Y-24871D01*
X59900Y-25991D01*
X59894Y-25847D01*
X59814Y-25652D01*
X59708Y-25612D01*
X59320Y-26000D01*
X59708Y-26387D01*
X59814Y-26347D01*
X59904Y-26105D01*
X59904Y-26970D01*
X59637Y-26970D01*
X59637Y-26458D01*
X59250Y-26070D01*
X59179Y-26141D01*
X59179Y-26000D01*
X58791Y-25612D01*
X58685Y-25652D01*
X58595Y-25894D01*
X58605Y-26152D01*
X58685Y-26347D01*
X58791Y-26387D01*
X59179Y-26000D01*
X59179Y-26141D01*
X58862Y-26458D01*
X58902Y-26564D01*
X59144Y-26654D01*
X59402Y-26644D01*
X59597Y-26564D01*
X59637Y-26458D01*
X59637Y-26970D01*
X53404Y-26970D01*
X53404Y-26105D01*
X53394Y-25847D01*
X53314Y-25652D01*
X53208Y-25612D01*
X52820Y-26000D01*
X53208Y-26387D01*
X53314Y-26347D01*
X53404Y-26105D01*
X53404Y-26970D01*
X53137Y-26970D01*
X53137Y-26458D01*
X52750Y-26070D01*
X52679Y-26141D01*
X52679Y-26000D01*
X52291Y-25612D01*
X52185Y-25652D01*
X52095Y-25894D01*
X52105Y-26152D01*
X52185Y-26347D01*
X52291Y-26387D01*
X52679Y-26000D01*
X52679Y-26141D01*
X52362Y-26458D01*
X52402Y-26564D01*
X52644Y-26654D01*
X52902Y-26644D01*
X53097Y-26564D01*
X53137Y-26458D01*
X53137Y-26970D01*
X39774Y-26970D01*
X39852Y-26892D01*
X39870Y-26899D01*
X40128Y-26900D01*
X40367Y-26801D01*
X40550Y-26618D01*
X40558Y-26600D01*
X41100Y-26600D01*
X41233Y-26573D01*
X41233Y-26573D01*
X41347Y-26497D01*
X41797Y-26047D01*
X41873Y-25933D01*
X41873Y-25933D01*
X41900Y-25800D01*
X41900Y-24651D01*
X41910Y-24641D01*
X41974Y-24484D01*
X41975Y-24350D01*
X42383Y-24350D01*
X42277Y-24605D01*
X42277Y-24893D01*
X42387Y-25158D01*
X42590Y-25362D01*
X42650Y-25386D01*
X42650Y-25691D01*
X42632Y-25698D01*
X42449Y-25881D01*
X42350Y-26120D01*
X42349Y-26378D01*
X42448Y-26617D01*
X42631Y-26800D01*
X42870Y-26899D01*
X43128Y-26900D01*
X43367Y-26801D01*
X43384Y-26784D01*
X43387Y-26791D01*
X43458Y-26861D01*
X43550Y-26899D01*
X43649Y-26900D01*
X44449Y-26900D01*
X44541Y-26862D01*
X44611Y-26791D01*
X44614Y-26784D01*
X44631Y-26800D01*
X44870Y-26899D01*
X45128Y-26900D01*
X45367Y-26801D01*
X45500Y-26669D01*
X45631Y-26800D01*
X45870Y-26899D01*
X46128Y-26900D01*
X46367Y-26801D01*
X46500Y-26669D01*
X46631Y-26800D01*
X46870Y-26899D01*
X47128Y-26900D01*
X47367Y-26801D01*
X47500Y-26669D01*
X47631Y-26800D01*
X47870Y-26899D01*
X48128Y-26900D01*
X48367Y-26801D01*
X48500Y-26669D01*
X48631Y-26800D01*
X48870Y-26899D01*
X49128Y-26900D01*
X49367Y-26801D01*
X49500Y-26669D01*
X49631Y-26800D01*
X49870Y-26899D01*
X50128Y-26900D01*
X50367Y-26801D01*
X50500Y-26669D01*
X50631Y-26800D01*
X50870Y-26899D01*
X51128Y-26900D01*
X51367Y-26801D01*
X51550Y-26618D01*
X51649Y-26379D01*
X51650Y-26121D01*
X51551Y-25882D01*
X51368Y-25699D01*
X51129Y-25600D01*
X50871Y-25599D01*
X50632Y-25698D01*
X50499Y-25830D01*
X50368Y-25699D01*
X50129Y-25600D01*
X49871Y-25599D01*
X49632Y-25698D01*
X49499Y-25830D01*
X49368Y-25699D01*
X49129Y-25600D01*
X48871Y-25599D01*
X48632Y-25698D01*
X48499Y-25830D01*
X48368Y-25699D01*
X48350Y-25691D01*
X48350Y-23580D01*
X48395Y-23549D01*
X48500Y-23394D01*
X48604Y-23549D01*
X48785Y-23671D01*
X49000Y-23713D01*
X49214Y-23671D01*
X49395Y-23549D01*
X49499Y-23394D01*
X49501Y-23400D01*
X49639Y-23571D01*
X49831Y-23676D01*
X49863Y-23683D01*
X49950Y-23634D01*
X49950Y-23050D01*
X49942Y-23050D01*
X49942Y-22950D01*
X49950Y-22950D01*
X49950Y-22365D01*
X49863Y-22316D01*
X49831Y-22323D01*
X49639Y-22428D01*
X49501Y-22599D01*
X49499Y-22605D01*
X49395Y-22450D01*
X49214Y-22328D01*
X49000Y-22286D01*
X48785Y-22328D01*
X48604Y-22450D01*
X48499Y-22605D01*
X48395Y-22450D01*
X48214Y-22328D01*
X48000Y-22286D01*
X47785Y-22328D01*
X47604Y-22450D01*
X47499Y-22605D01*
X47395Y-22450D01*
X47214Y-22328D01*
X47000Y-22286D01*
X46785Y-22328D01*
X46604Y-22450D01*
X46499Y-22605D01*
X46395Y-22450D01*
X46214Y-22328D01*
X46000Y-22286D01*
X45785Y-22328D01*
X45604Y-22450D01*
X45499Y-22605D01*
X45395Y-22450D01*
X45214Y-22328D01*
X45000Y-22286D01*
X44785Y-22328D01*
X44604Y-22450D01*
X44499Y-22605D01*
X44395Y-22450D01*
X44214Y-22328D01*
X44000Y-22286D01*
X43785Y-22328D01*
X43604Y-22450D01*
X43560Y-22516D01*
X43560Y-22500D01*
X43522Y-22408D01*
X43451Y-22338D01*
X43359Y-22300D01*
X43260Y-22299D01*
X42640Y-22299D01*
X42548Y-22337D01*
X42478Y-22408D01*
X42440Y-22500D01*
X42439Y-22599D01*
X42439Y-23499D01*
X42477Y-23591D01*
X42536Y-23650D01*
X40050Y-23650D01*
X40050Y-22421D01*
X39951Y-22182D01*
X39768Y-21999D01*
X39529Y-21900D01*
X39271Y-21899D01*
X39032Y-21998D01*
X38849Y-22181D01*
X38750Y-22420D01*
X38749Y-22678D01*
X38848Y-22917D01*
X39031Y-23100D01*
X39270Y-23199D01*
X39528Y-23200D01*
X39767Y-23101D01*
X39950Y-22918D01*
X40049Y-22679D01*
X40050Y-22421D01*
X40050Y-23650D01*
X40000Y-23650D01*
X39999Y-23650D01*
X39866Y-23676D01*
X39752Y-23752D01*
X39752Y-23752D01*
X39752Y-23752D01*
X39305Y-24199D01*
X39124Y-24125D01*
X38876Y-24124D01*
X38646Y-24219D01*
X38470Y-24395D01*
X38375Y-24625D01*
X38374Y-24873D01*
X38469Y-25103D01*
X38645Y-25279D01*
X38875Y-25374D01*
X39123Y-25375D01*
X39353Y-25280D01*
X39529Y-25104D01*
X39624Y-24874D01*
X39624Y-24870D01*
X39776Y-24718D01*
X39781Y-24914D01*
X39876Y-25141D01*
X39989Y-25190D01*
X40429Y-24750D01*
X40423Y-24744D01*
X40494Y-24673D01*
X40500Y-24679D01*
X40505Y-24673D01*
X40576Y-24744D01*
X40570Y-24750D01*
X41010Y-25190D01*
X41123Y-25141D01*
X41200Y-24942D01*
X41200Y-25655D01*
X40955Y-25900D01*
X40940Y-25900D01*
X40940Y-25260D01*
X40500Y-24820D01*
X40059Y-25260D01*
X40108Y-25373D01*
X40377Y-25476D01*
X40664Y-25468D01*
X40891Y-25373D01*
X40940Y-25260D01*
X40940Y-25900D01*
X40558Y-25900D01*
X40551Y-25882D01*
X40368Y-25699D01*
X40129Y-25600D01*
X39871Y-25599D01*
X39632Y-25698D01*
X39449Y-25881D01*
X39395Y-26011D01*
X39341Y-25882D01*
X39232Y-25838D01*
X39161Y-25909D01*
X39161Y-25767D01*
X39117Y-25658D01*
X38863Y-25562D01*
X38591Y-25571D01*
X38382Y-25658D01*
X38338Y-25767D01*
X38750Y-26179D01*
X39161Y-25767D01*
X39161Y-25909D01*
X38820Y-26250D01*
X38826Y-26255D01*
X38755Y-26326D01*
X38750Y-26320D01*
X38744Y-26326D01*
X38673Y-26255D01*
X38679Y-26250D01*
X38362Y-25933D01*
X38341Y-25882D01*
X38291Y-25862D01*
X38267Y-25838D01*
X38250Y-25845D01*
X38232Y-25838D01*
X38208Y-25862D01*
X38161Y-25881D01*
X38161Y-25767D01*
X38117Y-25658D01*
X37863Y-25562D01*
X37591Y-25571D01*
X37382Y-25658D01*
X37338Y-25767D01*
X37750Y-26179D01*
X38161Y-25767D01*
X38161Y-25881D01*
X38158Y-25882D01*
X38140Y-25930D01*
X37820Y-26250D01*
X37826Y-26255D01*
X37755Y-26326D01*
X37750Y-26320D01*
X37744Y-26326D01*
X37673Y-26255D01*
X37679Y-26250D01*
X37355Y-25925D01*
X37329Y-25863D01*
X37137Y-25671D01*
X36886Y-25567D01*
X36614Y-25566D01*
X36363Y-25670D01*
X36249Y-25784D01*
X36137Y-25671D01*
X35886Y-25567D01*
X35614Y-25566D01*
X35363Y-25670D01*
X35249Y-25784D01*
X35137Y-25671D01*
X34886Y-25567D01*
X34614Y-25566D01*
X34363Y-25670D01*
X34357Y-25676D01*
X34305Y-25624D01*
X34213Y-25586D01*
X34158Y-25586D01*
X34644Y-25100D01*
X36468Y-25100D01*
X36469Y-25103D01*
X36645Y-25279D01*
X36875Y-25374D01*
X37123Y-25375D01*
X37353Y-25280D01*
X37529Y-25104D01*
X37624Y-24874D01*
X37625Y-24626D01*
X37530Y-24396D01*
X37354Y-24220D01*
X37124Y-24125D01*
X36876Y-24124D01*
X36646Y-24219D01*
X36470Y-24395D01*
X36468Y-24400D01*
X34500Y-24400D01*
X34499Y-24400D01*
X34368Y-24426D01*
X37444Y-21350D01*
X37650Y-21350D01*
X38605Y-21350D01*
X37602Y-22352D01*
X37526Y-22466D01*
X37500Y-22600D01*
X37500Y-23198D01*
X37489Y-23208D01*
X37425Y-23365D01*
X37424Y-23534D01*
X37489Y-23690D01*
X37608Y-23810D01*
X37765Y-23874D01*
X37934Y-23875D01*
X38090Y-23810D01*
X38210Y-23691D01*
X38274Y-23534D01*
X38275Y-23365D01*
X38210Y-23209D01*
X38200Y-23199D01*
X38200Y-22744D01*
X39244Y-21700D01*
X41100Y-21700D01*
X54150Y-21700D01*
X54283Y-21673D01*
X54283Y-21673D01*
X54397Y-21597D01*
X55247Y-20747D01*
X55323Y-20633D01*
X55323Y-20633D01*
X55331Y-20592D01*
X55331Y-20592D01*
X55395Y-20549D01*
X55500Y-20394D01*
X55604Y-20549D01*
X55785Y-20671D01*
X56000Y-20713D01*
X56214Y-20671D01*
X56395Y-20549D01*
X56517Y-20368D01*
X56560Y-20153D01*
X56560Y-19846D01*
X56517Y-19631D01*
X56395Y-19450D01*
X56350Y-19419D01*
X56350Y-19094D01*
X56386Y-19079D01*
X56392Y-19073D01*
X56444Y-19125D01*
X56536Y-19163D01*
X56636Y-19163D01*
X56650Y-19163D01*
X56650Y-22355D01*
X56459Y-22545D01*
X56395Y-22450D01*
X56214Y-22328D01*
X56000Y-22286D01*
X55785Y-22328D01*
X55604Y-22450D01*
X55500Y-22605D01*
X55395Y-22450D01*
X55214Y-22328D01*
X55000Y-22286D01*
X54785Y-22328D01*
X54604Y-22450D01*
X54500Y-22605D01*
X54395Y-22450D01*
X54214Y-22328D01*
X54000Y-22286D01*
X53785Y-22328D01*
X53604Y-22450D01*
X53500Y-22605D01*
X53395Y-22450D01*
X53214Y-22328D01*
X53000Y-22286D01*
X52785Y-22328D01*
X52604Y-22450D01*
X52500Y-22605D01*
X52395Y-22450D01*
X52214Y-22328D01*
X52000Y-22286D01*
X51785Y-22328D01*
X51604Y-22450D01*
X51500Y-22605D01*
X51395Y-22450D01*
X51214Y-22328D01*
X51000Y-22286D01*
X50785Y-22328D01*
X50604Y-22450D01*
X50500Y-22605D01*
X50498Y-22599D01*
X50360Y-22428D01*
X50168Y-22323D01*
X50136Y-22316D01*
X50050Y-22365D01*
X50050Y-22950D01*
X50057Y-22950D01*
X50057Y-23050D01*
X50050Y-23050D01*
X50050Y-23634D01*
X50136Y-23683D01*
X50168Y-23676D01*
X50360Y-23571D01*
X50498Y-23400D01*
X50500Y-23394D01*
X50604Y-23549D01*
X50785Y-23671D01*
X50960Y-23705D01*
X52107Y-24852D01*
X52100Y-24870D01*
X52099Y-25128D01*
X52198Y-25367D01*
X52365Y-25534D01*
X52362Y-25541D01*
X52750Y-25929D01*
X53137Y-25541D01*
X53134Y-25534D01*
X53300Y-25368D01*
X53308Y-25350D01*
X54441Y-25350D01*
X54448Y-25367D01*
X54631Y-25550D01*
X54870Y-25649D01*
X55128Y-25650D01*
X55367Y-25551D01*
X55550Y-25368D01*
X55649Y-25129D01*
X55650Y-24871D01*
X55551Y-24632D01*
X55519Y-24600D01*
X56105Y-24600D01*
X56357Y-24852D01*
X56350Y-24870D01*
X56349Y-25128D01*
X56448Y-25367D01*
X56631Y-25550D01*
X56870Y-25649D01*
X57128Y-25650D01*
X57367Y-25551D01*
X57550Y-25368D01*
X57649Y-25129D01*
X57650Y-24871D01*
X57551Y-24632D01*
X57368Y-24449D01*
X57129Y-24350D01*
X56871Y-24349D01*
X56852Y-24357D01*
X56497Y-24002D01*
X56383Y-23926D01*
X56250Y-23900D01*
X52894Y-23900D01*
X52455Y-23460D01*
X52500Y-23394D01*
X52604Y-23549D01*
X52785Y-23671D01*
X53000Y-23713D01*
X53214Y-23671D01*
X53395Y-23549D01*
X53500Y-23394D01*
X53604Y-23549D01*
X53785Y-23671D01*
X54000Y-23713D01*
X54214Y-23671D01*
X54395Y-23549D01*
X54500Y-23394D01*
X54604Y-23549D01*
X54785Y-23671D01*
X55000Y-23713D01*
X55214Y-23671D01*
X55395Y-23549D01*
X55500Y-23394D01*
X55604Y-23549D01*
X55785Y-23671D01*
X56000Y-23713D01*
X56214Y-23671D01*
X56395Y-23549D01*
X56517Y-23368D01*
X56521Y-23345D01*
X56521Y-23345D01*
X56633Y-23323D01*
X56633Y-23323D01*
X56747Y-23247D01*
X57247Y-22747D01*
X57323Y-22633D01*
X57323Y-22633D01*
X57350Y-22500D01*
X57350Y-19163D01*
X57463Y-19163D01*
X57554Y-19125D01*
X57625Y-19055D01*
X57663Y-18963D01*
X57663Y-18863D01*
X57663Y-18036D01*
X57625Y-17945D01*
X57555Y-17874D01*
X57463Y-17836D01*
X57363Y-17836D01*
X56536Y-17836D01*
X56445Y-17874D01*
X56392Y-17926D01*
X56387Y-17921D01*
X56136Y-17817D01*
X55864Y-17816D01*
X55613Y-17920D01*
X55499Y-18034D01*
X55387Y-17921D01*
X55136Y-17817D01*
X54864Y-17816D01*
X54613Y-17920D01*
X54499Y-18034D01*
X54387Y-17921D01*
X54136Y-17817D01*
X53864Y-17816D01*
X53613Y-17920D01*
X53499Y-18034D01*
X53387Y-17921D01*
X53136Y-17817D01*
X52864Y-17816D01*
X52613Y-17920D01*
X52499Y-18034D01*
X52387Y-17921D01*
X52136Y-17817D01*
X51864Y-17816D01*
X51613Y-17920D01*
X51421Y-18112D01*
X51317Y-18363D01*
X51316Y-18635D01*
X51420Y-18886D01*
X51612Y-19078D01*
X51650Y-19094D01*
X51650Y-19419D01*
X51604Y-19450D01*
X51500Y-19605D01*
X51395Y-19450D01*
X51214Y-19328D01*
X51000Y-19286D01*
X50785Y-19328D01*
X50604Y-19450D01*
X50499Y-19605D01*
X50395Y-19450D01*
X50214Y-19328D01*
X50000Y-19286D01*
X49785Y-19328D01*
X49604Y-19450D01*
X49500Y-19605D01*
X49498Y-19599D01*
X49360Y-19428D01*
X49168Y-19323D01*
X49136Y-19316D01*
X49050Y-19365D01*
X49050Y-19950D01*
X49057Y-19950D01*
X49057Y-20050D01*
X49050Y-20050D01*
X49050Y-20057D01*
X48950Y-20057D01*
X48950Y-20050D01*
X48942Y-20050D01*
X48942Y-19950D01*
X48950Y-19950D01*
X48950Y-19365D01*
X48863Y-19316D01*
X48831Y-19323D01*
X48639Y-19428D01*
X48501Y-19599D01*
X48499Y-19605D01*
X48395Y-19450D01*
X48350Y-19419D01*
X48350Y-19163D01*
X48463Y-19163D01*
X48554Y-19125D01*
X48625Y-19055D01*
X48663Y-18963D01*
X48663Y-18863D01*
X48663Y-18036D01*
X48625Y-17945D01*
X48555Y-17874D01*
X48463Y-17836D01*
X48363Y-17836D01*
X47536Y-17836D01*
X47445Y-17874D01*
X47392Y-17926D01*
X47387Y-17921D01*
X47136Y-17817D01*
X46864Y-17816D01*
X46613Y-17920D01*
X46499Y-18034D01*
X46387Y-17921D01*
X46136Y-17817D01*
X45864Y-17816D01*
X45613Y-17920D01*
X45499Y-18034D01*
X45387Y-17921D01*
X45136Y-17817D01*
X44864Y-17816D01*
X44613Y-17920D01*
X44499Y-18034D01*
X44387Y-17921D01*
X44136Y-17817D01*
X43864Y-17816D01*
X43613Y-17920D01*
X43499Y-18034D01*
X43387Y-17921D01*
X43136Y-17817D01*
X42864Y-17816D01*
X42613Y-17920D01*
X42421Y-18112D01*
X42317Y-18363D01*
X42316Y-18635D01*
X42420Y-18886D01*
X42612Y-19078D01*
X42650Y-19094D01*
X42650Y-19419D01*
X42604Y-19450D01*
X42482Y-19631D01*
X42440Y-19846D01*
X42440Y-19995D01*
X39894Y-17449D01*
X40128Y-17450D01*
X40367Y-17351D01*
X40500Y-17219D01*
X40631Y-17350D01*
X40870Y-17449D01*
X41128Y-17450D01*
X41367Y-17351D01*
X41550Y-17168D01*
X41599Y-17050D01*
X41599Y-17249D01*
X41637Y-17341D01*
X41708Y-17411D01*
X41800Y-17449D01*
X41899Y-17450D01*
X42699Y-17450D01*
X42791Y-17412D01*
X42861Y-17341D01*
X42864Y-17334D01*
X42881Y-17350D01*
X43120Y-17449D01*
X43378Y-17450D01*
X43617Y-17351D01*
X43750Y-17219D01*
X43881Y-17350D01*
X44120Y-17449D01*
X44378Y-17450D01*
X44617Y-17351D01*
X44750Y-17219D01*
X44881Y-17350D01*
X45120Y-17449D01*
X45378Y-17450D01*
X45617Y-17351D01*
X45750Y-17219D01*
X45881Y-17350D01*
X46120Y-17449D01*
X46378Y-17450D01*
X46617Y-17351D01*
X46800Y-17168D01*
X46849Y-17050D01*
X46849Y-17249D01*
X46887Y-17341D01*
X46958Y-17411D01*
X47050Y-17449D01*
X47149Y-17450D01*
X47949Y-17450D01*
X48041Y-17412D01*
X48111Y-17341D01*
X48114Y-17334D01*
X48131Y-17350D01*
X48370Y-17449D01*
X48628Y-17450D01*
X48867Y-17351D01*
X49000Y-17219D01*
X49131Y-17350D01*
X49370Y-17449D01*
X49628Y-17450D01*
X49867Y-17351D01*
X50000Y-17219D01*
X50131Y-17350D01*
X50370Y-17449D01*
X50628Y-17450D01*
X50867Y-17351D01*
X51000Y-17219D01*
X51131Y-17350D01*
X51370Y-17449D01*
X51628Y-17450D01*
X51867Y-17351D01*
X52050Y-17168D01*
X52099Y-17050D01*
X52099Y-17249D01*
X52137Y-17341D01*
X52208Y-17411D01*
X52300Y-17449D01*
X52399Y-17450D01*
X53199Y-17450D01*
X53291Y-17412D01*
X53361Y-17341D01*
X53364Y-17334D01*
X53381Y-17350D01*
X53620Y-17449D01*
X53878Y-17450D01*
X54117Y-17351D01*
X54250Y-17219D01*
X54381Y-17350D01*
X54620Y-17449D01*
X54878Y-17450D01*
X55117Y-17351D01*
X55250Y-17219D01*
X55381Y-17350D01*
X55620Y-17449D01*
X55878Y-17450D01*
X56117Y-17351D01*
X56250Y-17219D01*
X56381Y-17350D01*
X56620Y-17449D01*
X56878Y-17450D01*
X57117Y-17351D01*
X57300Y-17168D01*
X57349Y-17050D01*
X57349Y-17249D01*
X57387Y-17341D01*
X57458Y-17411D01*
X57550Y-17449D01*
X57649Y-17450D01*
X58449Y-17450D01*
X58541Y-17412D01*
X58611Y-17341D01*
X58614Y-17334D01*
X58631Y-17350D01*
X58870Y-17449D01*
X59128Y-17450D01*
X59367Y-17351D01*
X59500Y-17219D01*
X59631Y-17350D01*
X59870Y-17449D01*
X60128Y-17450D01*
X60367Y-17351D01*
X60500Y-17219D01*
X60631Y-17350D01*
X60870Y-17449D01*
X61128Y-17450D01*
X61367Y-17351D01*
X61500Y-17219D01*
X61631Y-17350D01*
X61870Y-17449D01*
X62128Y-17450D01*
X62367Y-17351D01*
X62550Y-17168D01*
X62649Y-16929D01*
X62650Y-16671D01*
X62551Y-16432D01*
X62368Y-16249D01*
X62350Y-16241D01*
X62350Y-16100D01*
X62349Y-16099D01*
X62350Y-16099D01*
X62323Y-15966D01*
X62247Y-15852D01*
X62247Y-15852D01*
X61097Y-14702D01*
X60983Y-14626D01*
X60850Y-14600D01*
X59950Y-14600D01*
X57001Y-14600D01*
X56991Y-14589D01*
X56834Y-14525D01*
X56665Y-14524D01*
X56509Y-14589D01*
X56499Y-14600D01*
X56300Y-14600D01*
X51751Y-14600D01*
X51741Y-14589D01*
X51584Y-14525D01*
X51415Y-14524D01*
X51259Y-14589D01*
X51249Y-14600D01*
X51150Y-14600D01*
X46501Y-14600D01*
X46491Y-14589D01*
X46334Y-14525D01*
X46165Y-14524D01*
X46009Y-14589D01*
X45999Y-14600D01*
X45850Y-14600D01*
X41251Y-14600D01*
X41241Y-14589D01*
X41084Y-14525D01*
X40915Y-14524D01*
X40759Y-14589D01*
X40749Y-14600D01*
X36001Y-14600D01*
X35991Y-14589D01*
X35834Y-14525D01*
X35665Y-14524D01*
X35509Y-14589D01*
X35389Y-14708D01*
X35325Y-14865D01*
X35324Y-15000D01*
X35001Y-15000D01*
X34991Y-14989D01*
X34834Y-14925D01*
X34665Y-14924D01*
X34509Y-14989D01*
X34389Y-15108D01*
X34325Y-15265D01*
X34324Y-15400D01*
X33001Y-15400D01*
X32991Y-15389D01*
X32834Y-15325D01*
X32665Y-15324D01*
X32509Y-15389D01*
X32389Y-15508D01*
X32325Y-15665D01*
X32324Y-15800D01*
X32100Y-15800D01*
X31966Y-15826D01*
X31852Y-15902D01*
X31852Y-15902D01*
X31852Y-15902D01*
X31605Y-16149D01*
X31300Y-16149D01*
X31208Y-16187D01*
X31138Y-16258D01*
X31100Y-16350D01*
X31099Y-16449D01*
X31099Y-17249D01*
X31103Y-17258D01*
X29847Y-16002D01*
X29733Y-15926D01*
X29600Y-15900D01*
X28150Y-15900D01*
X28150Y-15800D01*
X28112Y-15708D01*
X28041Y-15638D01*
X27949Y-15600D01*
X27850Y-15599D01*
X27050Y-15599D01*
X26958Y-15637D01*
X26888Y-15708D01*
X26850Y-15800D01*
X26849Y-15899D01*
X26849Y-16699D01*
X26887Y-16791D01*
X26958Y-16861D01*
X27050Y-16899D01*
X27149Y-16900D01*
X27949Y-16900D01*
X28041Y-16862D01*
X28111Y-16791D01*
X28149Y-16699D01*
X28150Y-16600D01*
X28150Y-16600D01*
X29455Y-16600D01*
X30400Y-17544D01*
X30400Y-18000D01*
X30400Y-21550D01*
X30400Y-21555D01*
X27638Y-24316D01*
X27614Y-24316D01*
X27363Y-24420D01*
X27357Y-24426D01*
X27304Y-24374D01*
X27213Y-24336D01*
X26862Y-24336D01*
X26800Y-24399D01*
X26800Y-24950D01*
X26807Y-24950D01*
X26807Y-25050D01*
X26800Y-25050D01*
X26800Y-25601D01*
X26824Y-25625D01*
X26800Y-25649D01*
X26800Y-26200D01*
X26807Y-26200D01*
X26807Y-26300D01*
X26800Y-26300D01*
X26800Y-26851D01*
X26862Y-26913D01*
X27213Y-26913D01*
X27304Y-26875D01*
X27357Y-26823D01*
X27362Y-26828D01*
X27613Y-26932D01*
X27885Y-26933D01*
X28136Y-26829D01*
X28250Y-26715D01*
X28362Y-26828D01*
X28613Y-26932D01*
X28885Y-26933D01*
X29136Y-26829D01*
X29250Y-26715D01*
X29362Y-26828D01*
X29613Y-26932D01*
X29885Y-26933D01*
X29922Y-26917D01*
X29975Y-26970D01*
X26700Y-26970D01*
X26700Y-26851D01*
X26700Y-26300D01*
X26700Y-26200D01*
X26700Y-25649D01*
X26676Y-25625D01*
X26700Y-25601D01*
X26700Y-25050D01*
X26700Y-24950D01*
X26700Y-24399D01*
X26637Y-24336D01*
X26286Y-24336D01*
X26195Y-24374D01*
X26124Y-24444D01*
X26086Y-24536D01*
X26086Y-24636D01*
X26086Y-24887D01*
X26149Y-24950D01*
X26700Y-24950D01*
X26700Y-25050D01*
X26149Y-25050D01*
X26086Y-25112D01*
X26086Y-25363D01*
X26086Y-25463D01*
X26124Y-25555D01*
X26194Y-25625D01*
X26124Y-25694D01*
X26086Y-25786D01*
X26086Y-25886D01*
X26086Y-26137D01*
X26149Y-26200D01*
X26700Y-26200D01*
X26700Y-26300D01*
X26149Y-26300D01*
X26086Y-26362D01*
X26086Y-26613D01*
X26086Y-26713D01*
X26124Y-26805D01*
X26195Y-26875D01*
X26286Y-26913D01*
X26637Y-26913D01*
X26700Y-26851D01*
X26700Y-26970D01*
X25779Y-26970D01*
X25779Y-23243D01*
X26112Y-23576D01*
X26687Y-23815D01*
X27310Y-23815D01*
X27885Y-23577D01*
X28326Y-23137D01*
X28565Y-22562D01*
X28565Y-21939D01*
X28327Y-21364D01*
X28154Y-21190D01*
X28154Y-18355D01*
X28144Y-18097D01*
X28064Y-17902D01*
X27958Y-17862D01*
X27887Y-17933D01*
X27887Y-17791D01*
X27847Y-17685D01*
X27605Y-17595D01*
X27347Y-17605D01*
X27152Y-17685D01*
X27112Y-17791D01*
X27500Y-18179D01*
X27887Y-17791D01*
X27887Y-17933D01*
X27570Y-18250D01*
X27958Y-18637D01*
X28064Y-18597D01*
X28154Y-18355D01*
X28154Y-21190D01*
X27887Y-20923D01*
X27887Y-20923D01*
X27887Y-18708D01*
X27500Y-18320D01*
X27429Y-18391D01*
X27429Y-18250D01*
X27041Y-17862D01*
X26935Y-17902D01*
X26845Y-18144D01*
X26855Y-18402D01*
X26935Y-18597D01*
X27041Y-18637D01*
X27429Y-18250D01*
X27429Y-18391D01*
X27112Y-18708D01*
X27152Y-18814D01*
X27394Y-18904D01*
X27652Y-18894D01*
X27847Y-18814D01*
X27887Y-18708D01*
X27887Y-20923D01*
X27312Y-20684D01*
X26689Y-20684D01*
X26114Y-20922D01*
X25779Y-21256D01*
X25779Y-9529D01*
X27459Y-9529D01*
X27114Y-9672D01*
X26673Y-10112D01*
X26434Y-10687D01*
X26434Y-11310D01*
X26672Y-11885D01*
X27112Y-12326D01*
X27687Y-12565D01*
X28310Y-12565D01*
X28885Y-12327D01*
X29075Y-12138D01*
X29074Y-12284D01*
X29139Y-12440D01*
X29248Y-12550D01*
X29001Y-12550D01*
X28991Y-12539D01*
X28834Y-12475D01*
X28665Y-12474D01*
X28509Y-12539D01*
X28389Y-12658D01*
X28325Y-12815D01*
X28324Y-12984D01*
X28389Y-13140D01*
X28506Y-13258D01*
X28477Y-13287D01*
X28477Y-13287D01*
X28447Y-13307D01*
X27752Y-14002D01*
X27676Y-14116D01*
X27650Y-14250D01*
X27650Y-14348D01*
X27639Y-14358D01*
X27575Y-14515D01*
X27574Y-14684D01*
X27639Y-14840D01*
X27758Y-14960D01*
X27915Y-15024D01*
X28084Y-15025D01*
X28240Y-14960D01*
X28360Y-14841D01*
X28424Y-14684D01*
X28425Y-14515D01*
X28367Y-14377D01*
X28435Y-14309D01*
X28489Y-14440D01*
X28608Y-14560D01*
X28765Y-14624D01*
X28934Y-14625D01*
X29090Y-14560D01*
X29210Y-14441D01*
X29274Y-14284D01*
X29275Y-14187D01*
X29365Y-14224D01*
X29534Y-14225D01*
X29690Y-14160D01*
X29700Y-14150D01*
X31850Y-14150D01*
X32050Y-14150D01*
X52750Y-14150D01*
X53900Y-14150D01*
X54033Y-14123D01*
X54033Y-14123D01*
X54147Y-14047D01*
X55494Y-12700D01*
X58650Y-12700D01*
X58783Y-12673D01*
X58783Y-12673D01*
X58897Y-12597D01*
X60156Y-11338D01*
X60367Y-11251D01*
X60500Y-11119D01*
X60631Y-11250D01*
X60870Y-11349D01*
X61128Y-11350D01*
X61367Y-11251D01*
X61500Y-11119D01*
X61631Y-11250D01*
X61695Y-11277D01*
X61307Y-11437D01*
X60739Y-12004D01*
X60431Y-12746D01*
X60430Y-13549D01*
X60737Y-14292D01*
X61304Y-14860D01*
X62046Y-15168D01*
X62849Y-15169D01*
X63592Y-14862D01*
X64160Y-14295D01*
X64220Y-14151D01*
X64220Y-26970D01*
X64220Y-26970D01*
G37*
G54D24*
X64220Y-26970D02*
X64065Y-26970D01*
X64065Y-24439D01*
X64065Y-18689D01*
X63827Y-18114D01*
X63387Y-17673D01*
X62812Y-17434D01*
X62189Y-17434D01*
X61614Y-17672D01*
X61173Y-18112D01*
X60934Y-18687D01*
X60934Y-19310D01*
X61172Y-19885D01*
X61612Y-20326D01*
X62187Y-20565D01*
X62810Y-20565D01*
X63385Y-20327D01*
X63826Y-19887D01*
X64065Y-19312D01*
X64065Y-18689D01*
X64065Y-24439D01*
X63827Y-23864D01*
X63387Y-23423D01*
X62812Y-23184D01*
X62189Y-23184D01*
X61614Y-23422D01*
X61404Y-23631D01*
X61404Y-20855D01*
X61394Y-20597D01*
X61314Y-20402D01*
X61208Y-20362D01*
X61137Y-20433D01*
X61137Y-20291D01*
X61097Y-20185D01*
X60855Y-20095D01*
X60597Y-20105D01*
X60402Y-20185D01*
X60362Y-20291D01*
X60750Y-20679D01*
X61137Y-20291D01*
X61137Y-20433D01*
X60820Y-20750D01*
X61208Y-21137D01*
X61314Y-21097D01*
X61404Y-20855D01*
X61404Y-23631D01*
X61400Y-23636D01*
X61400Y-23100D01*
X61400Y-22300D01*
X61362Y-22208D01*
X61291Y-22138D01*
X61199Y-22100D01*
X61137Y-22099D01*
X61137Y-21208D01*
X60750Y-20820D01*
X60679Y-20891D01*
X60679Y-20750D01*
X60291Y-20362D01*
X60185Y-20402D01*
X60095Y-20644D01*
X60105Y-20902D01*
X60185Y-21097D01*
X60291Y-21137D01*
X60679Y-20750D01*
X60679Y-20891D01*
X60362Y-21208D01*
X60402Y-21314D01*
X60644Y-21404D01*
X60902Y-21394D01*
X61097Y-21314D01*
X61137Y-21208D01*
X61137Y-22099D01*
X61100Y-22099D01*
X60300Y-22099D01*
X60208Y-22137D01*
X60138Y-22208D01*
X60100Y-22300D01*
X60099Y-22399D01*
X60099Y-23199D01*
X60137Y-23291D01*
X60208Y-23361D01*
X60300Y-23399D01*
X60399Y-23400D01*
X61199Y-23400D01*
X61291Y-23362D01*
X61361Y-23291D01*
X61399Y-23199D01*
X61400Y-23100D01*
X61400Y-23636D01*
X61173Y-23862D01*
X60934Y-24437D01*
X60934Y-25060D01*
X61172Y-25635D01*
X61612Y-26076D01*
X62187Y-26315D01*
X62810Y-26315D01*
X63385Y-26077D01*
X63826Y-25637D01*
X64065Y-25062D01*
X64065Y-24439D01*
X64065Y-26970D01*
X59904Y-26970D01*
X59904Y-26105D01*
X59900Y-25991D01*
X59900Y-24871D01*
X59801Y-24632D01*
X59618Y-24449D01*
X59379Y-24350D01*
X59121Y-24349D01*
X58882Y-24448D01*
X58699Y-24631D01*
X58629Y-24799D01*
X58629Y-20599D01*
X58619Y-20351D01*
X58543Y-20167D01*
X58440Y-20130D01*
X58369Y-20201D01*
X58369Y-20059D01*
X58332Y-19956D01*
X58099Y-19870D01*
X57851Y-19880D01*
X57667Y-19956D01*
X57630Y-20059D01*
X58000Y-20429D01*
X58369Y-20059D01*
X58369Y-20201D01*
X58070Y-20500D01*
X58440Y-20869D01*
X58543Y-20832D01*
X58629Y-20599D01*
X58629Y-24799D01*
X58625Y-24809D01*
X58625Y-22376D01*
X58530Y-22146D01*
X58369Y-21985D01*
X58369Y-20940D01*
X58000Y-20570D01*
X57929Y-20641D01*
X57929Y-20500D01*
X57559Y-20130D01*
X57456Y-20167D01*
X57370Y-20400D01*
X57380Y-20648D01*
X57456Y-20832D01*
X57559Y-20869D01*
X57929Y-20500D01*
X57929Y-20641D01*
X57630Y-20940D01*
X57667Y-21043D01*
X57900Y-21129D01*
X58148Y-21119D01*
X58332Y-21043D01*
X58369Y-20940D01*
X58369Y-21985D01*
X58354Y-21970D01*
X58124Y-21875D01*
X57876Y-21874D01*
X57646Y-21969D01*
X57470Y-22145D01*
X57375Y-22375D01*
X57374Y-22623D01*
X57469Y-22853D01*
X57645Y-23029D01*
X57875Y-23124D01*
X58123Y-23125D01*
X58353Y-23030D01*
X58529Y-22854D01*
X58624Y-22624D01*
X58625Y-22376D01*
X58625Y-24809D01*
X58600Y-24870D01*
X58599Y-25128D01*
X58698Y-25367D01*
X58865Y-25534D01*
X58862Y-25541D01*
X59250Y-25929D01*
X59637Y-25541D01*
X59634Y-25534D01*
X59800Y-25368D01*
X59899Y-25129D01*
X59900Y-24871D01*
X59900Y-25991D01*
X59894Y-25847D01*
X59814Y-25652D01*
X59708Y-25612D01*
X59320Y-26000D01*
X59708Y-26387D01*
X59814Y-26347D01*
X59904Y-26105D01*
X59904Y-26970D01*
X59637Y-26970D01*
X59637Y-26458D01*
X59250Y-26070D01*
X59179Y-26141D01*
X59179Y-26000D01*
X58791Y-25612D01*
X58685Y-25652D01*
X58595Y-25894D01*
X58605Y-26152D01*
X58685Y-26347D01*
X58791Y-26387D01*
X59179Y-26000D01*
X59179Y-26141D01*
X58862Y-26458D01*
X58902Y-26564D01*
X59144Y-26654D01*
X59402Y-26644D01*
X59597Y-26564D01*
X59637Y-26458D01*
X59637Y-26970D01*
X53404Y-26970D01*
X53404Y-26105D01*
X53394Y-25847D01*
X53314Y-25652D01*
X53208Y-25612D01*
X52820Y-26000D01*
X53208Y-26387D01*
X53314Y-26347D01*
X53404Y-26105D01*
X53404Y-26970D01*
X53137Y-26970D01*
X53137Y-26458D01*
X52750Y-26070D01*
X52679Y-26141D01*
X52679Y-26000D01*
X52291Y-25612D01*
X52185Y-25652D01*
X52095Y-25894D01*
X52105Y-26152D01*
X52185Y-26347D01*
X52291Y-26387D01*
X52679Y-26000D01*
X52679Y-26141D01*
X52362Y-26458D01*
X52402Y-26564D01*
X52644Y-26654D01*
X52902Y-26644D01*
X53097Y-26564D01*
X53137Y-26458D01*
X53137Y-26970D01*
X39774Y-26970D01*
X39852Y-26892D01*
X39870Y-26899D01*
X40128Y-26900D01*
X40367Y-26801D01*
X40550Y-26618D01*
X40558Y-26600D01*
X41100Y-26600D01*
X41233Y-26573D01*
X41233Y-26573D01*
X41347Y-26497D01*
X41797Y-26047D01*
X41873Y-25933D01*
X41873Y-25933D01*
X41900Y-25800D01*
X41900Y-24651D01*
X41910Y-24641D01*
X41974Y-24484D01*
X41975Y-24350D01*
X42383Y-24350D01*
X42277Y-24605D01*
X42277Y-24893D01*
X42387Y-25158D01*
X42590Y-25362D01*
X42650Y-25386D01*
X42650Y-25691D01*
X42632Y-25698D01*
X42449Y-25881D01*
X42350Y-26120D01*
X42349Y-26378D01*
X42448Y-26617D01*
X42631Y-26800D01*
X42870Y-26899D01*
X43128Y-26900D01*
X43367Y-26801D01*
X43384Y-26784D01*
X43387Y-26791D01*
X43458Y-26861D01*
X43550Y-26899D01*
X43649Y-26900D01*
X44449Y-26900D01*
X44541Y-26862D01*
X44611Y-26791D01*
X44614Y-26784D01*
X44631Y-26800D01*
X44870Y-26899D01*
X45128Y-26900D01*
X45367Y-26801D01*
X45500Y-26669D01*
X45631Y-26800D01*
X45870Y-26899D01*
X46128Y-26900D01*
X46367Y-26801D01*
X46500Y-26669D01*
X46631Y-26800D01*
X46870Y-26899D01*
X47128Y-26900D01*
X47367Y-26801D01*
X47500Y-26669D01*
X47631Y-26800D01*
X47870Y-26899D01*
X48128Y-26900D01*
X48367Y-26801D01*
X48500Y-26669D01*
X48631Y-26800D01*
X48870Y-26899D01*
X49128Y-26900D01*
X49367Y-26801D01*
X49500Y-26669D01*
X49631Y-26800D01*
X49870Y-26899D01*
X50128Y-26900D01*
X50367Y-26801D01*
X50500Y-26669D01*
X50631Y-26800D01*
X50870Y-26899D01*
X51128Y-26900D01*
X51367Y-26801D01*
X51550Y-26618D01*
X51649Y-26379D01*
X51650Y-26121D01*
X51551Y-25882D01*
X51368Y-25699D01*
X51129Y-25600D01*
X50871Y-25599D01*
X50632Y-25698D01*
X50499Y-25830D01*
X50368Y-25699D01*
X50129Y-25600D01*
X49871Y-25599D01*
X49632Y-25698D01*
X49499Y-25830D01*
X49368Y-25699D01*
X49129Y-25600D01*
X48871Y-25599D01*
X48632Y-25698D01*
X48499Y-25830D01*
X48368Y-25699D01*
X48350Y-25691D01*
X48350Y-23580D01*
X48395Y-23549D01*
X48500Y-23394D01*
X48604Y-23549D01*
X48785Y-23671D01*
X49000Y-23713D01*
X49214Y-23671D01*
X49395Y-23549D01*
X49499Y-23394D01*
X49501Y-23400D01*
X49639Y-23571D01*
X49831Y-23676D01*
X49863Y-23683D01*
X49950Y-23634D01*
X49950Y-23050D01*
X49942Y-23050D01*
X49942Y-22950D01*
X49950Y-22950D01*
X49950Y-22365D01*
X49863Y-22316D01*
X49831Y-22323D01*
X49639Y-22428D01*
X49501Y-22599D01*
X49499Y-22605D01*
X49395Y-22450D01*
X49214Y-22328D01*
X49000Y-22286D01*
X48785Y-22328D01*
X48604Y-22450D01*
X48499Y-22605D01*
X48395Y-22450D01*
X48214Y-22328D01*
X48000Y-22286D01*
X47785Y-22328D01*
X47604Y-22450D01*
X47499Y-22605D01*
X47395Y-22450D01*
X47214Y-22328D01*
X47000Y-22286D01*
X46785Y-22328D01*
X46604Y-22450D01*
X46499Y-22605D01*
X46395Y-22450D01*
X46214Y-22328D01*
X46000Y-22286D01*
X45785Y-22328D01*
X45604Y-22450D01*
X45499Y-22605D01*
X45395Y-22450D01*
X45214Y-22328D01*
X45000Y-22286D01*
X44785Y-22328D01*
X44604Y-22450D01*
X44499Y-22605D01*
X44395Y-22450D01*
X44214Y-22328D01*
X44000Y-22286D01*
X43785Y-22328D01*
X43604Y-22450D01*
X43560Y-22516D01*
X43560Y-22500D01*
X43522Y-22408D01*
X43451Y-22338D01*
X43359Y-22300D01*
X43260Y-22299D01*
X42640Y-22299D01*
X42548Y-22337D01*
X42478Y-22408D01*
X42440Y-22500D01*
X42439Y-22599D01*
X42439Y-23499D01*
X42477Y-23591D01*
X42536Y-23650D01*
X40050Y-23650D01*
X40050Y-22421D01*
X39951Y-22182D01*
X39768Y-21999D01*
X39529Y-21900D01*
X39271Y-21899D01*
X39032Y-21998D01*
X38849Y-22181D01*
X38750Y-22420D01*
X38749Y-22678D01*
X38848Y-22917D01*
X39031Y-23100D01*
X39270Y-23199D01*
X39528Y-23200D01*
X39767Y-23101D01*
X39950Y-22918D01*
X40049Y-22679D01*
X40050Y-22421D01*
X40050Y-23650D01*
X40000Y-23650D01*
X39999Y-23650D01*
X39866Y-23676D01*
X39752Y-23752D01*
X39752Y-23752D01*
X39752Y-23752D01*
X39305Y-24199D01*
X39124Y-24125D01*
X38876Y-24124D01*
X38646Y-24219D01*
X38470Y-24395D01*
X38375Y-24625D01*
X38374Y-24873D01*
X38469Y-25103D01*
X38645Y-25279D01*
X38875Y-25374D01*
X39123Y-25375D01*
X39353Y-25280D01*
X39529Y-25104D01*
X39624Y-24874D01*
X39624Y-24870D01*
X39776Y-24718D01*
X39781Y-24914D01*
X39876Y-25141D01*
X39989Y-25190D01*
X40429Y-24750D01*
X40423Y-24744D01*
X40494Y-24673D01*
X40500Y-24679D01*
X40505Y-24673D01*
X40576Y-24744D01*
X40570Y-24750D01*
X41010Y-25190D01*
X41123Y-25141D01*
X41200Y-24942D01*
X41200Y-25655D01*
X40955Y-25900D01*
X40940Y-25900D01*
X40940Y-25260D01*
X40500Y-24820D01*
X40059Y-25260D01*
X40108Y-25373D01*
X40377Y-25476D01*
X40664Y-25468D01*
X40891Y-25373D01*
X40940Y-25260D01*
X40940Y-25900D01*
X40558Y-25900D01*
X40551Y-25882D01*
X40368Y-25699D01*
X40129Y-25600D01*
X39871Y-25599D01*
X39632Y-25698D01*
X39449Y-25881D01*
X39395Y-26011D01*
X39341Y-25882D01*
X39232Y-25838D01*
X39161Y-25909D01*
X39161Y-25767D01*
X39117Y-25658D01*
X38863Y-25562D01*
X38591Y-25571D01*
X38382Y-25658D01*
X38338Y-25767D01*
X38750Y-26179D01*
X39161Y-25767D01*
X39161Y-25909D01*
X38820Y-26250D01*
X38826Y-26255D01*
X38755Y-26326D01*
X38750Y-26320D01*
X38744Y-26326D01*
X38673Y-26255D01*
X38679Y-26250D01*
X38362Y-25933D01*
X38341Y-25882D01*
X38291Y-25862D01*
X38267Y-25838D01*
X38250Y-25845D01*
X38232Y-25838D01*
X38208Y-25862D01*
X38161Y-25881D01*
X38161Y-25767D01*
X38117Y-25658D01*
X37863Y-25562D01*
X37591Y-25571D01*
X37382Y-25658D01*
X37338Y-25767D01*
X37750Y-26179D01*
X38161Y-25767D01*
X38161Y-25881D01*
X38158Y-25882D01*
X38140Y-25930D01*
X37820Y-26250D01*
X37826Y-26255D01*
X37755Y-26326D01*
X37750Y-26320D01*
X37744Y-26326D01*
X37673Y-26255D01*
X37679Y-26250D01*
X37355Y-25925D01*
X37329Y-25863D01*
X37137Y-25671D01*
X36886Y-25567D01*
X36614Y-25566D01*
X36363Y-25670D01*
X36249Y-25784D01*
X36137Y-25671D01*
X35886Y-25567D01*
X35614Y-25566D01*
X35363Y-25670D01*
X35249Y-25784D01*
X35137Y-25671D01*
X34886Y-25567D01*
X34614Y-25566D01*
X34363Y-25670D01*
X34357Y-25676D01*
X34305Y-25624D01*
X34213Y-25586D01*
X34158Y-25586D01*
X34644Y-25100D01*
X36468Y-25100D01*
X36469Y-25103D01*
X36645Y-25279D01*
X36875Y-25374D01*
X37123Y-25375D01*
X37353Y-25280D01*
X37529Y-25104D01*
X37624Y-24874D01*
X37625Y-24626D01*
X37530Y-24396D01*
X37354Y-24220D01*
X37124Y-24125D01*
X36876Y-24124D01*
X36646Y-24219D01*
X36470Y-24395D01*
X36468Y-24400D01*
X34500Y-24400D01*
X34499Y-24400D01*
X34368Y-24426D01*
X37444Y-21350D01*
X37650Y-21350D01*
X38605Y-21350D01*
X37602Y-22352D01*
X37526Y-22466D01*
X37500Y-22600D01*
X37500Y-23198D01*
X37489Y-23208D01*
X37425Y-23365D01*
X37424Y-23534D01*
X37489Y-23690D01*
X37608Y-23810D01*
X37765Y-23874D01*
X37934Y-23875D01*
X38090Y-23810D01*
X38210Y-23691D01*
X38274Y-23534D01*
X38275Y-23365D01*
X38210Y-23209D01*
X38200Y-23199D01*
X38200Y-22744D01*
X39244Y-21700D01*
X41100Y-21700D01*
X54150Y-21700D01*
X54283Y-21673D01*
X54283Y-21673D01*
X54397Y-21597D01*
X55247Y-20747D01*
X55323Y-20633D01*
X55323Y-20633D01*
X55331Y-20592D01*
X55331Y-20592D01*
X55395Y-20549D01*
X55500Y-20394D01*
X55604Y-20549D01*
X55785Y-20671D01*
X56000Y-20713D01*
X56214Y-20671D01*
X56395Y-20549D01*
X56517Y-20368D01*
X56560Y-20153D01*
X56560Y-19846D01*
X56517Y-19631D01*
X56395Y-19450D01*
X56350Y-19419D01*
X56350Y-19094D01*
X56386Y-19079D01*
X56392Y-19073D01*
X56444Y-19125D01*
X56536Y-19163D01*
X56636Y-19163D01*
X56650Y-19163D01*
X56650Y-22355D01*
X56459Y-22545D01*
X56395Y-22450D01*
X56214Y-22328D01*
X56000Y-22286D01*
X55785Y-22328D01*
X55604Y-22450D01*
X55500Y-22605D01*
X55395Y-22450D01*
X55214Y-22328D01*
X55000Y-22286D01*
X54785Y-22328D01*
X54604Y-22450D01*
X54500Y-22605D01*
X54395Y-22450D01*
X54214Y-22328D01*
X54000Y-22286D01*
X53785Y-22328D01*
X53604Y-22450D01*
X53500Y-22605D01*
X53395Y-22450D01*
X53214Y-22328D01*
X53000Y-22286D01*
X52785Y-22328D01*
X52604Y-22450D01*
X52500Y-22605D01*
X52395Y-22450D01*
X52214Y-22328D01*
X52000Y-22286D01*
X51785Y-22328D01*
X51604Y-22450D01*
X51500Y-22605D01*
X51395Y-22450D01*
X51214Y-22328D01*
X51000Y-22286D01*
X50785Y-22328D01*
X50604Y-22450D01*
X50500Y-22605D01*
X50498Y-22599D01*
X50360Y-22428D01*
X50168Y-22323D01*
X50136Y-22316D01*
X50050Y-22365D01*
X50050Y-22950D01*
X50057Y-22950D01*
X50057Y-23050D01*
X50050Y-23050D01*
X50050Y-23634D01*
X50136Y-23683D01*
X50168Y-23676D01*
X50360Y-23571D01*
X50498Y-23400D01*
X50500Y-23394D01*
X50604Y-23549D01*
X50785Y-23671D01*
X50960Y-23705D01*
X52107Y-24852D01*
X52100Y-24870D01*
X52099Y-25128D01*
X52198Y-25367D01*
X52365Y-25534D01*
X52362Y-25541D01*
X52750Y-25929D01*
X53137Y-25541D01*
X53134Y-25534D01*
X53300Y-25368D01*
X53308Y-25350D01*
X54441Y-25350D01*
X54448Y-25367D01*
X54631Y-25550D01*
X54870Y-25649D01*
X55128Y-25650D01*
X55367Y-25551D01*
X55550Y-25368D01*
X55649Y-25129D01*
X55650Y-24871D01*
X55551Y-24632D01*
X55519Y-24600D01*
X56105Y-24600D01*
X56357Y-24852D01*
X56350Y-24870D01*
X56349Y-25128D01*
X56448Y-25367D01*
X56631Y-25550D01*
X56870Y-25649D01*
X57128Y-25650D01*
X57367Y-25551D01*
X57550Y-25368D01*
X57649Y-25129D01*
X57650Y-24871D01*
X57551Y-24632D01*
X57368Y-24449D01*
X57129Y-24350D01*
X56871Y-24349D01*
X56852Y-24357D01*
X56497Y-24002D01*
X56383Y-23926D01*
X56250Y-23900D01*
X52894Y-23900D01*
X52455Y-23460D01*
X52500Y-23394D01*
X52604Y-23549D01*
X52785Y-23671D01*
X53000Y-23713D01*
X53214Y-23671D01*
X53395Y-23549D01*
X53500Y-23394D01*
X53604Y-23549D01*
X53785Y-23671D01*
X54000Y-23713D01*
X54214Y-23671D01*
X54395Y-23549D01*
X54500Y-23394D01*
X54604Y-23549D01*
X54785Y-23671D01*
X55000Y-23713D01*
X55214Y-23671D01*
X55395Y-23549D01*
X55500Y-23394D01*
X55604Y-23549D01*
X55785Y-23671D01*
X56000Y-23713D01*
X56214Y-23671D01*
X56395Y-23549D01*
X56517Y-23368D01*
X56521Y-23345D01*
X56521Y-23345D01*
X56633Y-23323D01*
X56633Y-23323D01*
X56747Y-23247D01*
X57247Y-22747D01*
X57323Y-22633D01*
X57323Y-22633D01*
X57350Y-22500D01*
X57350Y-19163D01*
X57463Y-19163D01*
X57554Y-19125D01*
X57625Y-19055D01*
X57663Y-18963D01*
X57663Y-18863D01*
X57663Y-18036D01*
X57625Y-17945D01*
X57555Y-17874D01*
X57463Y-17836D01*
X57363Y-17836D01*
X56536Y-17836D01*
X56445Y-17874D01*
X56392Y-17926D01*
X56387Y-17921D01*
X56136Y-17817D01*
X55864Y-17816D01*
X55613Y-17920D01*
X55499Y-18034D01*
X55387Y-17921D01*
X55136Y-17817D01*
X54864Y-17816D01*
X54613Y-17920D01*
X54499Y-18034D01*
X54387Y-17921D01*
X54136Y-17817D01*
X53864Y-17816D01*
X53613Y-17920D01*
X53499Y-18034D01*
X53387Y-17921D01*
X53136Y-17817D01*
X52864Y-17816D01*
X52613Y-17920D01*
X52499Y-18034D01*
X52387Y-17921D01*
X52136Y-17817D01*
X51864Y-17816D01*
X51613Y-17920D01*
X51421Y-18112D01*
X51317Y-18363D01*
X51316Y-18635D01*
X51420Y-18886D01*
X51612Y-19078D01*
X51650Y-19094D01*
X51650Y-19419D01*
X51604Y-19450D01*
X51500Y-19605D01*
X51395Y-19450D01*
X51214Y-19328D01*
X51000Y-19286D01*
X50785Y-19328D01*
X50604Y-19450D01*
X50499Y-19605D01*
X50395Y-19450D01*
X50214Y-19328D01*
X50000Y-19286D01*
X49785Y-19328D01*
X49604Y-19450D01*
X49500Y-19605D01*
X49498Y-19599D01*
X49360Y-19428D01*
X49168Y-19323D01*
X49136Y-19316D01*
X49050Y-19365D01*
X49050Y-19950D01*
X49057Y-19950D01*
X49057Y-20050D01*
X49050Y-20050D01*
X49050Y-20057D01*
X48950Y-20057D01*
X48950Y-20050D01*
X48942Y-20050D01*
X48942Y-19950D01*
X48950Y-19950D01*
X48950Y-19365D01*
X48863Y-19316D01*
X48831Y-19323D01*
X48639Y-19428D01*
X48501Y-19599D01*
X48499Y-19605D01*
X48395Y-19450D01*
X48350Y-19419D01*
X48350Y-19163D01*
X48463Y-19163D01*
X48554Y-19125D01*
X48625Y-19055D01*
X48663Y-18963D01*
X48663Y-18863D01*
X48663Y-18036D01*
X48625Y-17945D01*
X48555Y-17874D01*
X48463Y-17836D01*
X48363Y-17836D01*
X47536Y-17836D01*
X47445Y-17874D01*
X47392Y-17926D01*
X47387Y-17921D01*
X47136Y-17817D01*
X46864Y-17816D01*
X46613Y-17920D01*
X46499Y-18034D01*
X46387Y-17921D01*
X46136Y-17817D01*
X45864Y-17816D01*
X45613Y-17920D01*
X45499Y-18034D01*
X45387Y-17921D01*
X45136Y-17817D01*
X44864Y-17816D01*
X44613Y-17920D01*
X44499Y-18034D01*
X44387Y-17921D01*
X44136Y-17817D01*
X43864Y-17816D01*
X43613Y-17920D01*
X43499Y-18034D01*
X43387Y-17921D01*
X43136Y-17817D01*
X42864Y-17816D01*
X42613Y-17920D01*
X42421Y-18112D01*
X42317Y-18363D01*
X42316Y-18635D01*
X42420Y-18886D01*
X42612Y-19078D01*
X42650Y-19094D01*
X42650Y-19419D01*
X42604Y-19450D01*
X42482Y-19631D01*
X42440Y-19846D01*
X42440Y-19995D01*
X39894Y-17449D01*
X40128Y-17450D01*
X40367Y-17351D01*
X40500Y-17219D01*
X40631Y-17350D01*
X40870Y-17449D01*
X41128Y-17450D01*
X41367Y-17351D01*
X41550Y-17168D01*
X41599Y-17050D01*
X41599Y-17249D01*
X41637Y-17341D01*
X41708Y-17411D01*
X41800Y-17449D01*
X41899Y-17450D01*
X42699Y-17450D01*
X42791Y-17412D01*
X42861Y-17341D01*
X42864Y-17334D01*
X42881Y-17350D01*
X43120Y-17449D01*
X43378Y-17450D01*
X43617Y-17351D01*
X43750Y-17219D01*
X43881Y-17350D01*
X44120Y-17449D01*
X44378Y-17450D01*
X44617Y-17351D01*
X44750Y-17219D01*
X44881Y-17350D01*
X45120Y-17449D01*
X45378Y-17450D01*
X45617Y-17351D01*
X45750Y-17219D01*
X45881Y-17350D01*
X46120Y-17449D01*
X46378Y-17450D01*
X46617Y-17351D01*
X46800Y-17168D01*
X46849Y-17050D01*
X46849Y-17249D01*
X46887Y-17341D01*
X46958Y-17411D01*
X47050Y-17449D01*
X47149Y-17450D01*
X47949Y-17450D01*
X48041Y-17412D01*
X48111Y-17341D01*
X48114Y-17334D01*
X48131Y-17350D01*
X48370Y-17449D01*
X48628Y-17450D01*
X48867Y-17351D01*
X49000Y-17219D01*
X49131Y-17350D01*
X49370Y-17449D01*
X49628Y-17450D01*
X49867Y-17351D01*
X50000Y-17219D01*
X50131Y-17350D01*
X50370Y-17449D01*
X50628Y-17450D01*
X50867Y-17351D01*
X51000Y-17219D01*
X51131Y-17350D01*
X51370Y-17449D01*
X51628Y-17450D01*
X51867Y-17351D01*
X52050Y-17168D01*
X52099Y-17050D01*
X52099Y-17249D01*
X52137Y-17341D01*
X52208Y-17411D01*
X52300Y-17449D01*
X52399Y-17450D01*
X53199Y-17450D01*
X53291Y-17412D01*
X53361Y-17341D01*
X53364Y-17334D01*
X53381Y-17350D01*
X53620Y-17449D01*
X53878Y-17450D01*
X54117Y-17351D01*
X54250Y-17219D01*
X54381Y-17350D01*
X54620Y-17449D01*
X54878Y-17450D01*
X55117Y-17351D01*
X55250Y-17219D01*
X55381Y-17350D01*
X55620Y-17449D01*
X55878Y-17450D01*
X56117Y-17351D01*
X56250Y-17219D01*
X56381Y-17350D01*
X56620Y-17449D01*
X56878Y-17450D01*
X57117Y-17351D01*
X57300Y-17168D01*
X57349Y-17050D01*
X57349Y-17249D01*
X57387Y-17341D01*
X57458Y-17411D01*
X57550Y-17449D01*
X57649Y-17450D01*
X58449Y-17450D01*
X58541Y-17412D01*
X58611Y-17341D01*
X58614Y-17334D01*
X58631Y-17350D01*
X58870Y-17449D01*
X59128Y-17450D01*
X59367Y-17351D01*
X59500Y-17219D01*
X59631Y-17350D01*
X59870Y-17449D01*
X60128Y-17450D01*
X60367Y-17351D01*
X60500Y-17219D01*
X60631Y-17350D01*
X60870Y-17449D01*
X61128Y-17450D01*
X61367Y-17351D01*
X61500Y-17219D01*
X61631Y-17350D01*
X61870Y-17449D01*
X62128Y-17450D01*
X62367Y-17351D01*
X62550Y-17168D01*
X62649Y-16929D01*
X62650Y-16671D01*
X62551Y-16432D01*
X62368Y-16249D01*
X62350Y-16241D01*
X62350Y-16100D01*
X62349Y-16099D01*
X62350Y-16099D01*
X62323Y-15966D01*
X62247Y-15852D01*
X62247Y-15852D01*
X61097Y-14702D01*
X60983Y-14626D01*
X60850Y-14600D01*
X59950Y-14600D01*
X57001Y-14600D01*
X56991Y-14589D01*
X56834Y-14525D01*
X56665Y-14524D01*
X56509Y-14589D01*
X56499Y-14600D01*
X56300Y-14600D01*
X51751Y-14600D01*
X51741Y-14589D01*
X51584Y-14525D01*
X51415Y-14524D01*
X51259Y-14589D01*
X51249Y-14600D01*
X51150Y-14600D01*
X46501Y-14600D01*
X46491Y-14589D01*
X46334Y-14525D01*
X46165Y-14524D01*
X46009Y-14589D01*
X45999Y-14600D01*
X45850Y-14600D01*
X41251Y-14600D01*
X41241Y-14589D01*
X41084Y-14525D01*
X40915Y-14524D01*
X40759Y-14589D01*
X40749Y-14600D01*
X36001Y-14600D01*
X35991Y-14589D01*
X35834Y-14525D01*
X35665Y-14524D01*
X35509Y-14589D01*
X35389Y-14708D01*
X35325Y-14865D01*
X35324Y-15000D01*
X35001Y-15000D01*
X34991Y-14989D01*
X34834Y-14925D01*
X34665Y-14924D01*
X34509Y-14989D01*
X34389Y-15108D01*
X34325Y-15265D01*
X34324Y-15400D01*
X33001Y-15400D01*
X32991Y-15389D01*
X32834Y-15325D01*
X32665Y-15324D01*
X32509Y-15389D01*
X32389Y-15508D01*
X32325Y-15665D01*
X32324Y-15800D01*
X32100Y-15800D01*
X31966Y-15826D01*
X31852Y-15902D01*
X31852Y-15902D01*
X31852Y-15902D01*
X31605Y-16149D01*
X31300Y-16149D01*
X31208Y-16187D01*
X31138Y-16258D01*
X31100Y-16350D01*
X31099Y-16449D01*
X31099Y-17249D01*
X31103Y-17258D01*
X29847Y-16002D01*
X29733Y-15926D01*
X29600Y-15900D01*
X28150Y-15900D01*
X28150Y-15800D01*
X28112Y-15708D01*
X28041Y-15638D01*
X27949Y-15600D01*
X27850Y-15599D01*
X27050Y-15599D01*
X26958Y-15637D01*
X26888Y-15708D01*
X26850Y-15800D01*
X26849Y-15899D01*
X26849Y-16699D01*
X26887Y-16791D01*
X26958Y-16861D01*
X27050Y-16899D01*
X27149Y-16900D01*
X27949Y-16900D01*
X28041Y-16862D01*
X28111Y-16791D01*
X28149Y-16699D01*
X28150Y-16600D01*
X28150Y-16600D01*
X29455Y-16600D01*
X30400Y-17544D01*
X30400Y-18000D01*
X30400Y-21550D01*
X30400Y-21555D01*
X27638Y-24316D01*
X27614Y-24316D01*
X27363Y-24420D01*
X27357Y-24426D01*
X27304Y-24374D01*
X27213Y-24336D01*
X26862Y-24336D01*
X26800Y-24399D01*
X26800Y-24950D01*
X26807Y-24950D01*
X26807Y-25050D01*
X26800Y-25050D01*
X26800Y-25601D01*
X26824Y-25625D01*
X26800Y-25649D01*
X26800Y-26200D01*
X26807Y-26200D01*
X26807Y-26300D01*
X26800Y-26300D01*
X26800Y-26851D01*
X26862Y-26913D01*
X27213Y-26913D01*
X27304Y-26875D01*
X27357Y-26823D01*
X27362Y-26828D01*
X27613Y-26932D01*
X27885Y-26933D01*
X28136Y-26829D01*
X28250Y-26715D01*
X28362Y-26828D01*
X28613Y-26932D01*
X28885Y-26933D01*
X29136Y-26829D01*
X29250Y-26715D01*
X29362Y-26828D01*
X29613Y-26932D01*
X29885Y-26933D01*
X29922Y-26917D01*
X29975Y-26970D01*
X26700Y-26970D01*
X26700Y-26851D01*
X26700Y-26300D01*
X26700Y-26200D01*
X26700Y-25649D01*
X26676Y-25625D01*
X26700Y-25601D01*
X26700Y-25050D01*
X26700Y-24950D01*
X26700Y-24399D01*
X26637Y-24336D01*
X26286Y-24336D01*
X26195Y-24374D01*
X26124Y-24444D01*
X26086Y-24536D01*
X26086Y-24636D01*
X26086Y-24887D01*
X26149Y-24950D01*
X26700Y-24950D01*
X26700Y-25050D01*
X26149Y-25050D01*
X26086Y-25112D01*
X26086Y-25363D01*
X26086Y-25463D01*
X26124Y-25555D01*
X26194Y-25625D01*
X26124Y-25694D01*
X26086Y-25786D01*
X26086Y-25886D01*
X26086Y-26137D01*
X26149Y-26200D01*
X26700Y-26200D01*
X26700Y-26300D01*
X26149Y-26300D01*
X26086Y-26362D01*
X26086Y-26613D01*
X26086Y-26713D01*
X26124Y-26805D01*
X26195Y-26875D01*
X26286Y-26913D01*
X26637Y-26913D01*
X26700Y-26851D01*
X26700Y-26970D01*
X25779Y-26970D01*
X25779Y-23243D01*
X26112Y-23576D01*
X26687Y-23815D01*
X27310Y-23815D01*
X27885Y-23577D01*
X28326Y-23137D01*
X28565Y-22562D01*
X28565Y-21939D01*
X28327Y-21364D01*
X28154Y-21190D01*
X28154Y-18355D01*
X28144Y-18097D01*
X28064Y-17902D01*
X27958Y-17862D01*
X27887Y-17933D01*
X27887Y-17791D01*
X27847Y-17685D01*
X27605Y-17595D01*
X27347Y-17605D01*
X27152Y-17685D01*
X27112Y-17791D01*
X27500Y-18179D01*
X27887Y-17791D01*
X27887Y-17933D01*
X27570Y-18250D01*
X27958Y-18637D01*
X28064Y-18597D01*
X28154Y-18355D01*
X28154Y-21190D01*
X27887Y-20923D01*
X27887Y-20923D01*
X27887Y-18708D01*
X27500Y-18320D01*
X27429Y-18391D01*
X27429Y-18250D01*
X27041Y-17862D01*
X26935Y-17902D01*
X26845Y-18144D01*
X26855Y-18402D01*
X26935Y-18597D01*
X27041Y-18637D01*
X27429Y-18250D01*
X27429Y-18391D01*
X27112Y-18708D01*
X27152Y-18814D01*
X27394Y-18904D01*
X27652Y-18894D01*
X27847Y-18814D01*
X27887Y-18708D01*
X27887Y-20923D01*
X27312Y-20684D01*
X26689Y-20684D01*
X26114Y-20922D01*
X25779Y-21256D01*
X25779Y-9529D01*
X27459Y-9529D01*
X27114Y-9672D01*
X26673Y-10112D01*
X26434Y-10687D01*
X26434Y-11310D01*
X26672Y-11885D01*
X27112Y-12326D01*
X27687Y-12565D01*
X28310Y-12565D01*
X28885Y-12327D01*
X29075Y-12138D01*
X29074Y-12284D01*
X29139Y-12440D01*
X29248Y-12550D01*
X29001Y-12550D01*
X28991Y-12539D01*
X28834Y-12475D01*
X28665Y-12474D01*
X28509Y-12539D01*
X28389Y-12658D01*
X28325Y-12815D01*
X28324Y-12984D01*
X28389Y-13140D01*
X28506Y-13258D01*
X28477Y-13287D01*
X28477Y-13287D01*
X28447Y-13307D01*
X27752Y-14002D01*
X27676Y-14116D01*
X27650Y-14250D01*
X27650Y-14348D01*
X27639Y-14358D01*
X27575Y-14515D01*
X27574Y-14684D01*
X27639Y-14840D01*
X27758Y-14960D01*
X27915Y-15024D01*
X28084Y-15025D01*
X28240Y-14960D01*
X28360Y-14841D01*
X28424Y-14684D01*
X28425Y-14515D01*
X28367Y-14377D01*
X28435Y-14309D01*
X28489Y-14440D01*
X28608Y-14560D01*
X28765Y-14624D01*
X28934Y-14625D01*
X29090Y-14560D01*
X29210Y-14441D01*
X29274Y-14284D01*
X29275Y-14187D01*
X29365Y-14224D01*
X29534Y-14225D01*
X29690Y-14160D01*
X29700Y-14150D01*
X31850Y-14150D01*
X32050Y-14150D01*
X52750Y-14150D01*
X53900Y-14150D01*
X54033Y-14123D01*
X54033Y-14123D01*
X54147Y-14047D01*
X55494Y-12700D01*
X58650Y-12700D01*
X58783Y-12673D01*
X58783Y-12673D01*
X58897Y-12597D01*
X60156Y-11338D01*
X60367Y-11251D01*
X60500Y-11119D01*
X60631Y-11250D01*
X60870Y-11349D01*
X61128Y-11350D01*
X61367Y-11251D01*
X61500Y-11119D01*
X61631Y-11250D01*
X61695Y-11277D01*
X61307Y-11437D01*
X60739Y-12004D01*
X60431Y-12746D01*
X60430Y-13549D01*
X60737Y-14292D01*
X61304Y-14860D01*
X62046Y-15168D01*
X62849Y-15169D01*
X63592Y-14862D01*
X64160Y-14295D01*
X64220Y-14151D01*
X64220Y-26970D01*
M02*
