M48
INCH,TZ
T1C0.022
T2C0.025
T3C0.032
T4C0.032
T5C0.039
T6C0.047
T7C0.118
%
G90
G05
T1
X031750Y-010700
X031750Y-016800
X032750Y-010700
X032750Y-016800
X033750Y-010700
X033750Y-016800
X034750Y-010700
X034750Y-016800
X035750Y-010700
X035750Y-016800
X037000Y-010700
X037000Y-016800
X038000Y-010700
X038000Y-016800
X039000Y-010700
X039000Y-016800
X040000Y-010700
X040000Y-016800
X041000Y-010700
X041000Y-016800
X042250Y-010700
X042250Y-016800
X043250Y-010700
X043250Y-016800
X044250Y-010700
X044250Y-016800
X045250Y-010700
X045250Y-016800
X046250Y-010700
X046250Y-016800
X047500Y-010700
X047500Y-016800
X048500Y-010700
X048500Y-016800
X049500Y-010700
X049500Y-016800
X050500Y-010700
X050500Y-016800
X051500Y-010700
X051500Y-016800
X052750Y-010700
X052750Y-016800
X053750Y-010700
X053750Y-016800
X054750Y-010700
X054750Y-016800
X055750Y-010700
X055750Y-016800
X056750Y-010700
X056750Y-016800
X058000Y-010700
X058000Y-016800
X059000Y-010700
X059000Y-016800
X060000Y-010700
X060000Y-016800
X061000Y-010700
X061000Y-016800
X062000Y-010700
X062000Y-016800
T2
X028000Y-014600
X028750Y-012900
X028850Y-014200
X029350Y-024100
X029450Y-013800
X029500Y-012200
X029700Y-012550
X030200Y-011750
X030500Y-010050
X031050Y-022950
X031400Y-018600
X032750Y-011750
X032750Y-015750
X033300Y-023550
X033500Y-018150
X033750Y-012200
X034660Y-018610
X034750Y-015350
X034750Y-018000
X035550Y-023800
X035750Y-009650
X035750Y-014950
X037850Y-023450
X037900Y-017950
X037900Y-019450
X038000Y-011750
X038000Y-015750
X039000Y-012150
X040000Y-015350
X041000Y-009650
X041000Y-014950
X041550Y-024400
X043250Y-011750
X043250Y-015750
X044250Y-012150
X045250Y-015350
X046250Y-009650
X046250Y-014950
X048500Y-011750
X048500Y-015750
X049500Y-012150
X050500Y-015350
X051500Y-009650
X051500Y-014950
X052000Y-020000
X053750Y-011750
X053750Y-015750
X054750Y-012150
X055750Y-015350
X056750Y-009650
X056750Y-014950
T3
X027500Y-016250
X027500Y-018250
X037000Y-024750
X039000Y-024750
X039400Y-019550
X039400Y-022550
X040000Y-026250
X043000Y-026250
X052750Y-025000
X052750Y-026000
X055000Y-025000
X058000Y-020500
X058000Y-022500
X059250Y-025000
X059250Y-026000
X060750Y-020750
X060750Y-022750
T4
X043000Y-020000
X043000Y-023000
X044000Y-020000
X044000Y-023000
X044000Y-026250
X045000Y-020000
X045000Y-023000
X045000Y-026250
X046000Y-020000
X046000Y-023000
X046000Y-026250
X047000Y-020000
X047000Y-023000
X047000Y-026250
X048000Y-020000
X048000Y-023000
X048000Y-026250
X049000Y-020000
X049000Y-023000
X049000Y-026250
X050000Y-020000
X050000Y-023000
X050000Y-026250
X051000Y-020000
X051000Y-023000
X051000Y-026250
X052000Y-020000
X052000Y-023000
X053000Y-020000
X053000Y-023000
X054000Y-020000
X054000Y-023000
X055000Y-020000
X055000Y-023000
X056000Y-020000
X056000Y-023000
X057000Y-025000
T5
X026750Y-025000
X026750Y-026250
X027750Y-025000
X027750Y-026250
X028750Y-025000
X028750Y-026250
X029750Y-025000
X029750Y-026250
X030750Y-025000
X030750Y-026250
X031750Y-025000
X031750Y-026250
X033750Y-026250
X034750Y-026250
X035750Y-026250
X036750Y-026250
X037750Y-026250
X038750Y-026250
X043000Y-018500
X044000Y-018500
X045000Y-018500
X046000Y-018500
X047000Y-018500
X048000Y-018500
X052000Y-018500
X053000Y-018500
X054000Y-018500
X055000Y-018500
X056000Y-018500
X057000Y-018500
T6
X040500Y-024750
X043000Y-024750
T7
X027000Y-022250
X028000Y-011000
X062500Y-019000
X062500Y-024750
T0
M30
