G04 (created by PCBNEW (2013-07-07 BZR 4022)-stable) date 07/12/2013 12:57:39*
%MOIN*%
G04 Gerber Fmt 3.4, Leading zero omitted, Abs format*
%FSLAX34Y34*%
G01*
G70*
G90*
G04 APERTURE LIST*
%ADD10C,0.00393701*%
%ADD11R,0.03X0.05*%
%ADD12R,0.08X0.08*%
%ADD13C,0.08*%
%ADD14C,0.2559*%
%ADD15C,0.0945*%
%ADD16C,0.075*%
%ADD17O,0.062X0.09*%
%ADD18R,0.062X0.09*%
%ADD19R,0.0827X0.0827*%
%ADD20C,0.0866*%
%ADD21C,0.035*%
%ADD22C,0.02*%
%ADD23C,0.01*%
G04 APERTURE END LIST*
G54D10*
G54D11*
X31800Y-23000D03*
X32300Y-23000D03*
X32800Y-23000D03*
X33300Y-23000D03*
X33800Y-23000D03*
X34300Y-23000D03*
X34800Y-23000D03*
X35300Y-23000D03*
X35800Y-23000D03*
X36300Y-23000D03*
X36800Y-23000D03*
X37300Y-23000D03*
X31800Y-19200D03*
X32300Y-19200D03*
X32800Y-19200D03*
X33300Y-19200D03*
X33800Y-19200D03*
X34300Y-19200D03*
X34800Y-19200D03*
X35300Y-19200D03*
X35800Y-19200D03*
X36300Y-19200D03*
X36800Y-19200D03*
X37300Y-19200D03*
G54D12*
X58000Y-16800D03*
G54D13*
X59000Y-16800D03*
X60000Y-16800D03*
X61000Y-16800D03*
X62000Y-16800D03*
X62000Y-10700D03*
X61000Y-10700D03*
X60000Y-10700D03*
X59000Y-10700D03*
X58000Y-10700D03*
G54D12*
X31750Y-16800D03*
G54D13*
X32750Y-16800D03*
X33750Y-16800D03*
X34750Y-16800D03*
X35750Y-16800D03*
X35750Y-10700D03*
X34750Y-10700D03*
X33750Y-10700D03*
X32750Y-10700D03*
X31750Y-10700D03*
G54D12*
X52750Y-16800D03*
G54D13*
X53750Y-16800D03*
X54750Y-16800D03*
X55750Y-16800D03*
X56750Y-16800D03*
X56750Y-10700D03*
X55750Y-10700D03*
X54750Y-10700D03*
X53750Y-10700D03*
X52750Y-10700D03*
G54D12*
X47500Y-16800D03*
G54D13*
X48500Y-16800D03*
X49500Y-16800D03*
X50500Y-16800D03*
X51500Y-16800D03*
X51500Y-10700D03*
X50500Y-10700D03*
X49500Y-10700D03*
X48500Y-10700D03*
X47500Y-10700D03*
G54D12*
X42250Y-16800D03*
G54D13*
X43250Y-16800D03*
X44250Y-16800D03*
X45250Y-16800D03*
X46250Y-16800D03*
X46250Y-10700D03*
X45250Y-10700D03*
X44250Y-10700D03*
X43250Y-10700D03*
X42250Y-10700D03*
G54D12*
X37000Y-16800D03*
G54D13*
X38000Y-16800D03*
X39000Y-16800D03*
X40000Y-16800D03*
X41000Y-16800D03*
X41000Y-10700D03*
X40000Y-10700D03*
X39000Y-10700D03*
X38000Y-10700D03*
X37000Y-10700D03*
X39400Y-22550D03*
X39400Y-19550D03*
G54D12*
X27500Y-16250D03*
G54D13*
X27500Y-18250D03*
G54D14*
X62500Y-24750D03*
X27000Y-22250D03*
X62500Y-19000D03*
X28000Y-11000D03*
G54D13*
X57000Y-25000D03*
X55000Y-25000D03*
G54D15*
X40500Y-24750D03*
X43000Y-24750D03*
G54D12*
X44000Y-26250D03*
G54D13*
X45000Y-26250D03*
X46000Y-26250D03*
X47000Y-26250D03*
X48000Y-26250D03*
X49000Y-26250D03*
X50000Y-26250D03*
X51000Y-26250D03*
X40000Y-26250D03*
X43000Y-26250D03*
G54D12*
X60750Y-22750D03*
G54D13*
X60750Y-20750D03*
G54D16*
X58000Y-22500D03*
X58000Y-20500D03*
X39000Y-24750D03*
X37000Y-24750D03*
G54D13*
X52750Y-25000D03*
X52750Y-26000D03*
X59250Y-25000D03*
X59250Y-26000D03*
G54D17*
X44000Y-23000D03*
X45000Y-23000D03*
X46000Y-23000D03*
X47000Y-23000D03*
X48000Y-23000D03*
X49000Y-23000D03*
X50000Y-23000D03*
X51000Y-23000D03*
X52000Y-23000D03*
X53000Y-23000D03*
X54000Y-23000D03*
X55000Y-23000D03*
X56000Y-23000D03*
G54D18*
X43000Y-23000D03*
G54D17*
X56000Y-20000D03*
X55000Y-20000D03*
X54000Y-20000D03*
X53000Y-20000D03*
X52000Y-20000D03*
X51000Y-20000D03*
X50000Y-20000D03*
X49000Y-20000D03*
X48000Y-20000D03*
X47000Y-20000D03*
X46000Y-20000D03*
X45000Y-20000D03*
X44000Y-20000D03*
X43000Y-20000D03*
G54D19*
X26750Y-25000D03*
G54D20*
X27750Y-25000D03*
X28750Y-25000D03*
X29750Y-25000D03*
X30750Y-25000D03*
X31750Y-25000D03*
G54D19*
X26750Y-26250D03*
G54D20*
X27750Y-26250D03*
X28750Y-26250D03*
X29750Y-26250D03*
X30750Y-26250D03*
X31750Y-26250D03*
G54D19*
X57000Y-18500D03*
G54D20*
X56000Y-18500D03*
X55000Y-18500D03*
X54000Y-18500D03*
X53000Y-18500D03*
X52000Y-18500D03*
G54D19*
X48000Y-18500D03*
G54D20*
X47000Y-18500D03*
X46000Y-18500D03*
X45000Y-18500D03*
X44000Y-18500D03*
X43000Y-18500D03*
G54D19*
X33750Y-26250D03*
G54D20*
X34750Y-26250D03*
X35750Y-26250D03*
X36750Y-26250D03*
X37750Y-26250D03*
X38750Y-26250D03*
G54D21*
X34660Y-18610D03*
X41550Y-24400D03*
X29350Y-24100D03*
X35550Y-23800D03*
X33300Y-23550D03*
X31400Y-18600D03*
X31050Y-22950D03*
X56750Y-9650D03*
X51500Y-9650D03*
X46250Y-9650D03*
X41000Y-9650D03*
X35750Y-9650D03*
X35750Y-14950D03*
X56750Y-14950D03*
X51500Y-14950D03*
X46250Y-14950D03*
X41000Y-14950D03*
X30200Y-11750D03*
X53750Y-11750D03*
X48500Y-11750D03*
X43250Y-11750D03*
X32750Y-11750D03*
X38000Y-11750D03*
X53750Y-15750D03*
X48500Y-15750D03*
X43250Y-15750D03*
X38000Y-15750D03*
X32750Y-15750D03*
X28850Y-14200D03*
X54750Y-12150D03*
X28750Y-12900D03*
X44250Y-12150D03*
X29500Y-12200D03*
X33750Y-12200D03*
X30500Y-10050D03*
X29450Y-13800D03*
X28000Y-14600D03*
X49500Y-12150D03*
X34750Y-18000D03*
X34750Y-15350D03*
X55750Y-15350D03*
X50500Y-15350D03*
X45250Y-15350D03*
X40000Y-15350D03*
X29700Y-12550D03*
X39000Y-12150D03*
X33500Y-18150D03*
X52000Y-20000D03*
X37900Y-17950D03*
X37900Y-19450D03*
X37850Y-23450D03*
G54D22*
X34300Y-18970D02*
X34300Y-19200D01*
X34660Y-18610D02*
X34300Y-18970D01*
X60750Y-22750D02*
X58250Y-22750D01*
X58250Y-22750D02*
X58000Y-22500D01*
X41550Y-24400D02*
X41550Y-20650D01*
X51000Y-20000D02*
X51000Y-20700D01*
X51000Y-20700D02*
X50950Y-20650D01*
X50950Y-20650D02*
X41550Y-20650D01*
X39400Y-20250D02*
X39400Y-19550D01*
X41550Y-20650D02*
X39800Y-20650D01*
X39800Y-20650D02*
X39400Y-20250D01*
X58000Y-22500D02*
X57250Y-22500D01*
X57000Y-22250D02*
X50750Y-22250D01*
X57250Y-22500D02*
X57000Y-22250D01*
X51000Y-20000D02*
X51000Y-22000D01*
X49750Y-22250D02*
X49000Y-23000D01*
X50750Y-22250D02*
X49750Y-22250D01*
X51000Y-22000D02*
X50750Y-22250D01*
X34300Y-19200D02*
X34300Y-18900D01*
X34300Y-18900D02*
X34800Y-18400D01*
X34800Y-18400D02*
X38950Y-18400D01*
X38950Y-18400D02*
X39400Y-18850D01*
X39400Y-18850D02*
X39400Y-19550D01*
X26750Y-24300D02*
X26750Y-25000D01*
X26950Y-24100D02*
X26750Y-24300D01*
X29350Y-24100D02*
X26950Y-24100D01*
X40500Y-24750D02*
X42000Y-24750D01*
X42000Y-24750D02*
X42850Y-23900D01*
X48800Y-23900D02*
X49100Y-23900D01*
X42850Y-23900D02*
X48850Y-23900D01*
X48850Y-23900D02*
X48800Y-23900D01*
X49100Y-23900D02*
X50000Y-23000D01*
X35800Y-23550D02*
X35800Y-23000D01*
X35550Y-23800D02*
X35800Y-23550D01*
X33300Y-23000D02*
X33300Y-23550D01*
X35800Y-23000D02*
X35800Y-22450D01*
X35800Y-22450D02*
X35700Y-22350D01*
X35700Y-22350D02*
X33500Y-22350D01*
X33500Y-22350D02*
X33300Y-22550D01*
X33300Y-22550D02*
X33300Y-23000D01*
X31800Y-19000D02*
X31800Y-19200D01*
X31400Y-18600D02*
X31800Y-19000D01*
X31100Y-23000D02*
X31800Y-23000D01*
X31050Y-22950D02*
X31100Y-23000D01*
X32650Y-20000D02*
X31150Y-20000D01*
X31550Y-9650D02*
X35750Y-9650D01*
X30700Y-10500D02*
X31550Y-9650D01*
X30700Y-19550D02*
X30700Y-10500D01*
X31150Y-20000D02*
X30700Y-19550D01*
X35800Y-19200D02*
X35800Y-19450D01*
X35250Y-20000D02*
X32650Y-20000D01*
X32650Y-20000D02*
X32600Y-20000D01*
X35800Y-19450D02*
X35250Y-20000D01*
X56750Y-9650D02*
X56750Y-10700D01*
X51500Y-9650D02*
X51500Y-10700D01*
X46250Y-9650D02*
X46250Y-10700D01*
X35750Y-10700D02*
X35750Y-9650D01*
X41000Y-9650D02*
X41000Y-10700D01*
X55000Y-23000D02*
X55000Y-23200D01*
X51000Y-25100D02*
X51000Y-26250D01*
X51850Y-24250D02*
X51000Y-25100D01*
X53950Y-24250D02*
X51850Y-24250D01*
X55000Y-23200D02*
X53950Y-24250D01*
X34750Y-26250D02*
X34750Y-26450D01*
X45000Y-26650D02*
X45000Y-26250D01*
X44650Y-27000D02*
X45000Y-26650D01*
X35300Y-27000D02*
X44650Y-27000D01*
X34750Y-26450D02*
X35300Y-27000D01*
X57000Y-25000D02*
X59250Y-25000D01*
X49000Y-25050D02*
X49000Y-24800D01*
X49000Y-24800D02*
X50150Y-23650D01*
X49000Y-26250D02*
X49000Y-25050D01*
X52350Y-23650D02*
X53000Y-23000D01*
X50150Y-23650D02*
X52350Y-23650D01*
X35750Y-26250D02*
X35750Y-26000D01*
X43300Y-25550D02*
X44000Y-26250D01*
X36200Y-25550D02*
X43300Y-25550D01*
X35750Y-26000D02*
X36200Y-25550D01*
X50000Y-26250D02*
X50000Y-24450D01*
X53050Y-23950D02*
X54000Y-23000D01*
X50500Y-23950D02*
X53050Y-23950D01*
X50000Y-24450D02*
X50500Y-23950D01*
X32800Y-19200D02*
X32800Y-18650D01*
X34950Y-17600D02*
X35750Y-16800D01*
X33400Y-17600D02*
X34950Y-17600D01*
X33100Y-17900D02*
X33400Y-17600D01*
X33100Y-18350D02*
X33100Y-17900D01*
X32800Y-18650D02*
X33100Y-18350D01*
X35750Y-16800D02*
X35750Y-14950D01*
X56750Y-14950D02*
X56750Y-16800D01*
X51500Y-14950D02*
X51500Y-16800D01*
X41000Y-16800D02*
X41000Y-14950D01*
X46250Y-14950D02*
X46250Y-16800D01*
X32700Y-20300D02*
X30950Y-20300D01*
X30400Y-11950D02*
X30200Y-11750D01*
X30400Y-19750D02*
X30400Y-11950D01*
X30950Y-20300D02*
X30400Y-19750D01*
X36300Y-19200D02*
X36300Y-19500D01*
X35500Y-20300D02*
X32700Y-20300D01*
X32700Y-20300D02*
X32600Y-20300D01*
X36300Y-19500D02*
X35500Y-20300D01*
X53750Y-11750D02*
X53750Y-10700D01*
X48500Y-11750D02*
X48500Y-10700D01*
X43250Y-11750D02*
X43250Y-10700D01*
X32750Y-10700D02*
X32750Y-11750D01*
X38000Y-11750D02*
X38000Y-10700D01*
X32300Y-19200D02*
X32300Y-18500D01*
X32750Y-18050D02*
X32750Y-16800D01*
X32300Y-18500D02*
X32750Y-18050D01*
X53750Y-15750D02*
X53750Y-16800D01*
X48500Y-15750D02*
X48500Y-16800D01*
X43250Y-15750D02*
X43250Y-16800D01*
X32750Y-16800D02*
X32750Y-15750D01*
X38000Y-15750D02*
X38000Y-16800D01*
X28900Y-20150D02*
X28900Y-20700D01*
X30650Y-22450D02*
X30650Y-23100D01*
X28900Y-20700D02*
X30650Y-22450D01*
X31850Y-23600D02*
X31150Y-23600D01*
X31150Y-23600D02*
X30650Y-23100D01*
X28900Y-20150D02*
X28900Y-14250D01*
X28900Y-14250D02*
X28850Y-14200D01*
X32800Y-23000D02*
X32800Y-23300D01*
X32500Y-23600D02*
X31850Y-23600D01*
X31850Y-23600D02*
X31700Y-23600D01*
X32800Y-23300D02*
X32500Y-23600D01*
X54750Y-10700D02*
X54750Y-12150D01*
X28600Y-20350D02*
X28600Y-20800D01*
X30350Y-22550D02*
X30350Y-23200D01*
X28600Y-20800D02*
X30350Y-22550D01*
X30675Y-23525D02*
X31050Y-23900D01*
X30675Y-23525D02*
X30350Y-23200D01*
X34300Y-23000D02*
X34300Y-23550D01*
X31050Y-23900D02*
X33950Y-23900D01*
X33950Y-23900D02*
X34300Y-23550D01*
X28600Y-20350D02*
X28600Y-14500D01*
X28600Y-14500D02*
X28450Y-14350D01*
X28450Y-14350D02*
X28450Y-13200D01*
X28450Y-13200D02*
X28750Y-12900D01*
X44250Y-10700D02*
X44250Y-12150D01*
X31600Y-22550D02*
X31150Y-22550D01*
X29100Y-12600D02*
X29500Y-12200D01*
X29100Y-13950D02*
X29100Y-12600D01*
X29200Y-14050D02*
X29100Y-13950D01*
X29200Y-20600D02*
X29200Y-14050D01*
X31150Y-22550D02*
X29200Y-20600D01*
X32300Y-23000D02*
X32300Y-22600D01*
X32300Y-22600D02*
X32250Y-22550D01*
X32250Y-22550D02*
X31600Y-22550D01*
X31600Y-22550D02*
X31650Y-22550D01*
X31650Y-22550D02*
X31500Y-22550D01*
X33750Y-10700D02*
X33750Y-12200D01*
X35050Y-20600D02*
X30750Y-20600D01*
X36800Y-19450D02*
X35650Y-20600D01*
X35650Y-20600D02*
X35050Y-20600D01*
X36800Y-19200D02*
X36800Y-19450D01*
X29800Y-10750D02*
X30500Y-10050D01*
X29800Y-11950D02*
X29800Y-10750D01*
X30100Y-12250D02*
X29800Y-11950D01*
X30100Y-19950D02*
X30100Y-12250D01*
X30750Y-20600D02*
X30100Y-19950D01*
X33400Y-22050D02*
X31350Y-22050D01*
X36300Y-22500D02*
X35850Y-22050D01*
X35850Y-22050D02*
X33400Y-22050D01*
X36300Y-23000D02*
X36300Y-22500D01*
X29450Y-13850D02*
X29450Y-13800D01*
X29500Y-13900D02*
X29450Y-13850D01*
X29500Y-19500D02*
X29500Y-13900D01*
X29500Y-20250D02*
X29500Y-19500D01*
X29550Y-20250D02*
X29500Y-20250D01*
X31350Y-22050D02*
X29550Y-20250D01*
X28000Y-14600D02*
X28150Y-14600D01*
X30050Y-23350D02*
X30100Y-23400D01*
X30050Y-22650D02*
X30050Y-23350D01*
X30000Y-22600D02*
X30050Y-22650D01*
X30000Y-22600D02*
X30000Y-22600D01*
X28300Y-20900D02*
X30000Y-22600D01*
X28300Y-14750D02*
X28300Y-20900D01*
X28150Y-14600D02*
X28300Y-14750D01*
X30100Y-23400D02*
X30900Y-24200D01*
X30900Y-24200D02*
X34050Y-24200D01*
X34050Y-24200D02*
X34800Y-23450D01*
X34800Y-23450D02*
X34800Y-23000D01*
X49500Y-10700D02*
X49500Y-12150D01*
X33800Y-19200D02*
X33800Y-18700D01*
X34500Y-18000D02*
X34750Y-18000D01*
X33800Y-18700D02*
X34500Y-18000D01*
X34750Y-16800D02*
X34750Y-15350D01*
X55750Y-15350D02*
X55750Y-16800D01*
X50500Y-15350D02*
X50500Y-16800D01*
X40000Y-16800D02*
X40000Y-15350D01*
X45250Y-15350D02*
X45250Y-16800D01*
X33400Y-21750D02*
X31450Y-21750D01*
X29800Y-12650D02*
X29700Y-12550D01*
X29800Y-20100D02*
X29800Y-12650D01*
X31450Y-21750D02*
X29800Y-20100D01*
X36800Y-23000D02*
X36800Y-22550D01*
X36000Y-21750D02*
X33400Y-21750D01*
X36800Y-22550D02*
X36000Y-21750D01*
X39000Y-10700D02*
X39000Y-12150D01*
X34800Y-19200D02*
X34800Y-18950D01*
X38750Y-21900D02*
X39400Y-22550D01*
X38750Y-19300D02*
X38750Y-21900D01*
X38200Y-18750D02*
X38750Y-19300D01*
X35000Y-18750D02*
X38200Y-18750D01*
X34800Y-18950D02*
X35000Y-18750D01*
X33300Y-19200D02*
X33300Y-18700D01*
X33500Y-18500D02*
X33500Y-18150D01*
X33300Y-18700D02*
X33500Y-18500D01*
X32700Y-19700D02*
X31300Y-19700D01*
X35300Y-19550D02*
X35150Y-19700D01*
X35150Y-19700D02*
X32700Y-19700D01*
X35300Y-19200D02*
X35300Y-19550D01*
X31000Y-11450D02*
X31750Y-10700D01*
X31000Y-19400D02*
X31000Y-11450D01*
X31300Y-19700D02*
X31000Y-19400D01*
X52000Y-20000D02*
X51250Y-19250D01*
X51250Y-19250D02*
X40400Y-19250D01*
X40400Y-19250D02*
X39100Y-17950D01*
X39100Y-17950D02*
X37900Y-17950D01*
X37650Y-19200D02*
X37300Y-19200D01*
X37900Y-19450D02*
X37650Y-19200D01*
X37300Y-23450D02*
X37300Y-23500D01*
X37850Y-23450D02*
X37300Y-23450D01*
X31750Y-25000D02*
X35350Y-25000D01*
X35350Y-25000D02*
X36450Y-23900D01*
X36450Y-23900D02*
X36900Y-23900D01*
X36900Y-23900D02*
X37300Y-23500D01*
X37300Y-23500D02*
X37300Y-23000D01*
G54D10*
G36*
X28871Y-12333D02*
X28852Y-12352D01*
X28776Y-12466D01*
X28774Y-12475D01*
X28665Y-12474D01*
X28509Y-12539D01*
X28389Y-12658D01*
X28325Y-12815D01*
X28325Y-12829D01*
X28202Y-12952D01*
X28126Y-13066D01*
X28100Y-13200D01*
X28100Y-14181D01*
X28084Y-14175D01*
X27915Y-14174D01*
X27759Y-14239D01*
X27639Y-14358D01*
X27575Y-14515D01*
X27574Y-14684D01*
X27639Y-14840D01*
X27758Y-14960D01*
X27915Y-15024D01*
X27950Y-15024D01*
X27950Y-15600D01*
X27949Y-15600D01*
X27850Y-15599D01*
X27050Y-15599D01*
X26958Y-15637D01*
X26888Y-15708D01*
X26850Y-15800D01*
X26849Y-15899D01*
X26849Y-16699D01*
X26887Y-16791D01*
X26958Y-16861D01*
X27050Y-16899D01*
X27149Y-16900D01*
X27949Y-16900D01*
X27950Y-16899D01*
X27950Y-17764D01*
X27932Y-17746D01*
X27887Y-17791D01*
X27847Y-17685D01*
X27605Y-17595D01*
X27347Y-17605D01*
X27152Y-17685D01*
X27112Y-17791D01*
X27500Y-18179D01*
X27505Y-18173D01*
X27576Y-18244D01*
X27570Y-18250D01*
X27576Y-18255D01*
X27505Y-18326D01*
X27500Y-18320D01*
X27429Y-18391D01*
X27429Y-18250D01*
X27041Y-17862D01*
X26935Y-17902D01*
X26845Y-18144D01*
X26855Y-18402D01*
X26935Y-18597D01*
X27041Y-18637D01*
X27429Y-18250D01*
X27429Y-18391D01*
X27112Y-18708D01*
X27152Y-18814D01*
X27394Y-18904D01*
X27652Y-18894D01*
X27847Y-18814D01*
X27887Y-18708D01*
X27887Y-18708D01*
X27932Y-18753D01*
X27950Y-18735D01*
X27950Y-20900D01*
X27971Y-21007D01*
X27887Y-20923D01*
X27887Y-20923D01*
X27312Y-20684D01*
X26689Y-20684D01*
X26114Y-20922D01*
X25779Y-21256D01*
X25779Y-9529D01*
X27459Y-9529D01*
X27114Y-9672D01*
X26673Y-10112D01*
X26434Y-10687D01*
X26434Y-11310D01*
X26672Y-11885D01*
X27112Y-12326D01*
X27687Y-12565D01*
X28310Y-12565D01*
X28871Y-12333D01*
X28871Y-12333D01*
G37*
G54D23*
X28871Y-12333D02*
X28852Y-12352D01*
X28776Y-12466D01*
X28774Y-12475D01*
X28665Y-12474D01*
X28509Y-12539D01*
X28389Y-12658D01*
X28325Y-12815D01*
X28325Y-12829D01*
X28202Y-12952D01*
X28126Y-13066D01*
X28100Y-13200D01*
X28100Y-14181D01*
X28084Y-14175D01*
X27915Y-14174D01*
X27759Y-14239D01*
X27639Y-14358D01*
X27575Y-14515D01*
X27574Y-14684D01*
X27639Y-14840D01*
X27758Y-14960D01*
X27915Y-15024D01*
X27950Y-15024D01*
X27950Y-15600D01*
X27949Y-15600D01*
X27850Y-15599D01*
X27050Y-15599D01*
X26958Y-15637D01*
X26888Y-15708D01*
X26850Y-15800D01*
X26849Y-15899D01*
X26849Y-16699D01*
X26887Y-16791D01*
X26958Y-16861D01*
X27050Y-16899D01*
X27149Y-16900D01*
X27949Y-16900D01*
X27950Y-16899D01*
X27950Y-17764D01*
X27932Y-17746D01*
X27887Y-17791D01*
X27847Y-17685D01*
X27605Y-17595D01*
X27347Y-17605D01*
X27152Y-17685D01*
X27112Y-17791D01*
X27500Y-18179D01*
X27505Y-18173D01*
X27576Y-18244D01*
X27570Y-18250D01*
X27576Y-18255D01*
X27505Y-18326D01*
X27500Y-18320D01*
X27429Y-18391D01*
X27429Y-18250D01*
X27041Y-17862D01*
X26935Y-17902D01*
X26845Y-18144D01*
X26855Y-18402D01*
X26935Y-18597D01*
X27041Y-18637D01*
X27429Y-18250D01*
X27429Y-18391D01*
X27112Y-18708D01*
X27152Y-18814D01*
X27394Y-18904D01*
X27652Y-18894D01*
X27847Y-18814D01*
X27887Y-18708D01*
X27887Y-18708D01*
X27932Y-18753D01*
X27950Y-18735D01*
X27950Y-20900D01*
X27971Y-21007D01*
X27887Y-20923D01*
X27887Y-20923D01*
X27312Y-20684D01*
X26689Y-20684D01*
X26114Y-20922D01*
X25779Y-21256D01*
X25779Y-9529D01*
X27459Y-9529D01*
X27114Y-9672D01*
X26673Y-10112D01*
X26434Y-10687D01*
X26434Y-11310D01*
X26672Y-11885D01*
X27112Y-12326D01*
X27687Y-12565D01*
X28310Y-12565D01*
X28871Y-12333D01*
G54D10*
G36*
X36616Y-24250D02*
X36470Y-24395D01*
X36375Y-24625D01*
X36374Y-24873D01*
X36469Y-25103D01*
X36566Y-25200D01*
X36200Y-25200D01*
X36066Y-25226D01*
X35952Y-25302D01*
X35688Y-25566D01*
X35614Y-25566D01*
X35363Y-25670D01*
X35249Y-25784D01*
X35137Y-25671D01*
X34886Y-25567D01*
X34614Y-25566D01*
X34363Y-25670D01*
X34357Y-25676D01*
X34305Y-25624D01*
X34213Y-25586D01*
X34113Y-25586D01*
X33286Y-25586D01*
X33195Y-25624D01*
X33124Y-25694D01*
X33086Y-25786D01*
X33086Y-25886D01*
X33086Y-26713D01*
X33124Y-26804D01*
X33194Y-26875D01*
X33286Y-26913D01*
X33386Y-26913D01*
X34213Y-26913D01*
X34304Y-26875D01*
X34357Y-26823D01*
X34362Y-26828D01*
X34613Y-26932D01*
X34738Y-26932D01*
X34775Y-26970D01*
X26700Y-26970D01*
X26700Y-26851D01*
X26700Y-26300D01*
X26700Y-26200D01*
X26700Y-25649D01*
X26676Y-25625D01*
X26700Y-25601D01*
X26700Y-25050D01*
X26700Y-24950D01*
X26700Y-24399D01*
X26637Y-24336D01*
X26286Y-24336D01*
X26195Y-24374D01*
X26124Y-24444D01*
X26086Y-24536D01*
X26086Y-24636D01*
X26086Y-24887D01*
X26149Y-24950D01*
X26700Y-24950D01*
X26700Y-25050D01*
X26149Y-25050D01*
X26086Y-25112D01*
X26086Y-25363D01*
X26086Y-25463D01*
X26124Y-25555D01*
X26194Y-25625D01*
X26124Y-25694D01*
X26086Y-25786D01*
X26086Y-25886D01*
X26086Y-26137D01*
X26149Y-26200D01*
X26700Y-26200D01*
X26700Y-26300D01*
X26149Y-26300D01*
X26086Y-26362D01*
X26086Y-26613D01*
X26086Y-26713D01*
X26124Y-26805D01*
X26195Y-26875D01*
X26286Y-26913D01*
X26637Y-26913D01*
X26700Y-26851D01*
X26700Y-26970D01*
X25779Y-26970D01*
X25779Y-23243D01*
X26112Y-23576D01*
X26687Y-23815D01*
X27310Y-23815D01*
X27885Y-23577D01*
X28326Y-23137D01*
X28565Y-22562D01*
X28565Y-21939D01*
X28369Y-21464D01*
X29700Y-22794D01*
X29700Y-23350D01*
X29726Y-23483D01*
X29802Y-23597D01*
X29852Y-23647D01*
X30549Y-24344D01*
X30363Y-24420D01*
X30249Y-24534D01*
X30137Y-24421D01*
X29886Y-24317D01*
X29614Y-24316D01*
X29363Y-24420D01*
X29249Y-24534D01*
X29137Y-24421D01*
X28886Y-24317D01*
X28614Y-24316D01*
X28363Y-24420D01*
X28249Y-24534D01*
X28137Y-24421D01*
X27886Y-24317D01*
X27614Y-24316D01*
X27363Y-24420D01*
X27357Y-24426D01*
X27304Y-24374D01*
X27213Y-24336D01*
X26862Y-24336D01*
X26800Y-24399D01*
X26800Y-24950D01*
X26807Y-24950D01*
X26807Y-25050D01*
X26800Y-25050D01*
X26800Y-25601D01*
X26824Y-25625D01*
X26800Y-25649D01*
X26800Y-26200D01*
X26807Y-26200D01*
X26807Y-26300D01*
X26800Y-26300D01*
X26800Y-26851D01*
X26862Y-26913D01*
X27213Y-26913D01*
X27304Y-26875D01*
X27357Y-26823D01*
X27362Y-26828D01*
X27613Y-26932D01*
X27885Y-26933D01*
X28136Y-26829D01*
X28250Y-26715D01*
X28362Y-26828D01*
X28613Y-26932D01*
X28885Y-26933D01*
X29136Y-26829D01*
X29250Y-26715D01*
X29362Y-26828D01*
X29613Y-26932D01*
X29885Y-26933D01*
X30136Y-26829D01*
X30250Y-26715D01*
X30362Y-26828D01*
X30613Y-26932D01*
X30885Y-26933D01*
X31136Y-26829D01*
X31250Y-26715D01*
X31362Y-26828D01*
X31613Y-26932D01*
X31885Y-26933D01*
X32136Y-26829D01*
X32328Y-26637D01*
X32432Y-26386D01*
X32433Y-26114D01*
X32329Y-25863D01*
X32137Y-25671D01*
X32025Y-25625D01*
X32136Y-25579D01*
X32328Y-25387D01*
X32344Y-25350D01*
X35350Y-25350D01*
X35483Y-25323D01*
X35483Y-25323D01*
X35597Y-25247D01*
X36594Y-24250D01*
X36616Y-24250D01*
X36616Y-24250D01*
G37*
G54D23*
X36616Y-24250D02*
X36470Y-24395D01*
X36375Y-24625D01*
X36374Y-24873D01*
X36469Y-25103D01*
X36566Y-25200D01*
X36200Y-25200D01*
X36066Y-25226D01*
X35952Y-25302D01*
X35688Y-25566D01*
X35614Y-25566D01*
X35363Y-25670D01*
X35249Y-25784D01*
X35137Y-25671D01*
X34886Y-25567D01*
X34614Y-25566D01*
X34363Y-25670D01*
X34357Y-25676D01*
X34305Y-25624D01*
X34213Y-25586D01*
X34113Y-25586D01*
X33286Y-25586D01*
X33195Y-25624D01*
X33124Y-25694D01*
X33086Y-25786D01*
X33086Y-25886D01*
X33086Y-26713D01*
X33124Y-26804D01*
X33194Y-26875D01*
X33286Y-26913D01*
X33386Y-26913D01*
X34213Y-26913D01*
X34304Y-26875D01*
X34357Y-26823D01*
X34362Y-26828D01*
X34613Y-26932D01*
X34738Y-26932D01*
X34775Y-26970D01*
X26700Y-26970D01*
X26700Y-26851D01*
X26700Y-26300D01*
X26700Y-26200D01*
X26700Y-25649D01*
X26676Y-25625D01*
X26700Y-25601D01*
X26700Y-25050D01*
X26700Y-24950D01*
X26700Y-24399D01*
X26637Y-24336D01*
X26286Y-24336D01*
X26195Y-24374D01*
X26124Y-24444D01*
X26086Y-24536D01*
X26086Y-24636D01*
X26086Y-24887D01*
X26149Y-24950D01*
X26700Y-24950D01*
X26700Y-25050D01*
X26149Y-25050D01*
X26086Y-25112D01*
X26086Y-25363D01*
X26086Y-25463D01*
X26124Y-25555D01*
X26194Y-25625D01*
X26124Y-25694D01*
X26086Y-25786D01*
X26086Y-25886D01*
X26086Y-26137D01*
X26149Y-26200D01*
X26700Y-26200D01*
X26700Y-26300D01*
X26149Y-26300D01*
X26086Y-26362D01*
X26086Y-26613D01*
X26086Y-26713D01*
X26124Y-26805D01*
X26195Y-26875D01*
X26286Y-26913D01*
X26637Y-26913D01*
X26700Y-26851D01*
X26700Y-26970D01*
X25779Y-26970D01*
X25779Y-23243D01*
X26112Y-23576D01*
X26687Y-23815D01*
X27310Y-23815D01*
X27885Y-23577D01*
X28326Y-23137D01*
X28565Y-22562D01*
X28565Y-21939D01*
X28369Y-21464D01*
X29700Y-22794D01*
X29700Y-23350D01*
X29726Y-23483D01*
X29802Y-23597D01*
X29852Y-23647D01*
X30549Y-24344D01*
X30363Y-24420D01*
X30249Y-24534D01*
X30137Y-24421D01*
X29886Y-24317D01*
X29614Y-24316D01*
X29363Y-24420D01*
X29249Y-24534D01*
X29137Y-24421D01*
X28886Y-24317D01*
X28614Y-24316D01*
X28363Y-24420D01*
X28249Y-24534D01*
X28137Y-24421D01*
X27886Y-24317D01*
X27614Y-24316D01*
X27363Y-24420D01*
X27357Y-24426D01*
X27304Y-24374D01*
X27213Y-24336D01*
X26862Y-24336D01*
X26800Y-24399D01*
X26800Y-24950D01*
X26807Y-24950D01*
X26807Y-25050D01*
X26800Y-25050D01*
X26800Y-25601D01*
X26824Y-25625D01*
X26800Y-25649D01*
X26800Y-26200D01*
X26807Y-26200D01*
X26807Y-26300D01*
X26800Y-26300D01*
X26800Y-26851D01*
X26862Y-26913D01*
X27213Y-26913D01*
X27304Y-26875D01*
X27357Y-26823D01*
X27362Y-26828D01*
X27613Y-26932D01*
X27885Y-26933D01*
X28136Y-26829D01*
X28250Y-26715D01*
X28362Y-26828D01*
X28613Y-26932D01*
X28885Y-26933D01*
X29136Y-26829D01*
X29250Y-26715D01*
X29362Y-26828D01*
X29613Y-26932D01*
X29885Y-26933D01*
X30136Y-26829D01*
X30250Y-26715D01*
X30362Y-26828D01*
X30613Y-26932D01*
X30885Y-26933D01*
X31136Y-26829D01*
X31250Y-26715D01*
X31362Y-26828D01*
X31613Y-26932D01*
X31885Y-26933D01*
X32136Y-26829D01*
X32328Y-26637D01*
X32432Y-26386D01*
X32433Y-26114D01*
X32329Y-25863D01*
X32137Y-25671D01*
X32025Y-25625D01*
X32136Y-25579D01*
X32328Y-25387D01*
X32344Y-25350D01*
X35350Y-25350D01*
X35483Y-25323D01*
X35483Y-25323D01*
X35597Y-25247D01*
X36594Y-24250D01*
X36616Y-24250D01*
G54D10*
G36*
X36804Y-23500D02*
X36755Y-23550D01*
X36450Y-23550D01*
X36316Y-23576D01*
X36202Y-23652D01*
X36202Y-23652D01*
X35205Y-24650D01*
X32344Y-24650D01*
X32329Y-24613D01*
X32265Y-24550D01*
X34050Y-24550D01*
X34183Y-24523D01*
X34183Y-24523D01*
X34297Y-24447D01*
X35047Y-23697D01*
X35047Y-23697D01*
X35047Y-23697D01*
X35123Y-23583D01*
X35140Y-23499D01*
X35199Y-23500D01*
X35499Y-23500D01*
X35550Y-23479D01*
X35600Y-23500D01*
X35687Y-23500D01*
X35750Y-23437D01*
X35750Y-23050D01*
X35742Y-23050D01*
X35742Y-22950D01*
X35750Y-22950D01*
X35750Y-22562D01*
X35687Y-22500D01*
X35600Y-22499D01*
X35549Y-22520D01*
X35499Y-22500D01*
X35400Y-22499D01*
X35100Y-22499D01*
X35049Y-22520D01*
X34999Y-22500D01*
X34900Y-22499D01*
X34600Y-22499D01*
X34549Y-22520D01*
X34499Y-22500D01*
X34400Y-22499D01*
X34100Y-22499D01*
X34049Y-22520D01*
X33999Y-22500D01*
X33900Y-22499D01*
X33600Y-22499D01*
X33550Y-22520D01*
X33499Y-22499D01*
X33412Y-22500D01*
X33350Y-22562D01*
X33350Y-22950D01*
X33357Y-22950D01*
X33357Y-23050D01*
X33350Y-23050D01*
X33350Y-23437D01*
X33412Y-23500D01*
X33499Y-23500D01*
X33550Y-23479D01*
X33600Y-23499D01*
X33699Y-23500D01*
X33854Y-23500D01*
X33805Y-23550D01*
X33044Y-23550D01*
X33047Y-23547D01*
X33047Y-23547D01*
X33047Y-23547D01*
X33083Y-23493D01*
X33100Y-23500D01*
X33187Y-23500D01*
X33250Y-23437D01*
X33250Y-23050D01*
X33242Y-23050D01*
X33242Y-22950D01*
X33250Y-22950D01*
X33250Y-22562D01*
X33187Y-22500D01*
X33100Y-22499D01*
X33049Y-22520D01*
X32999Y-22500D01*
X32900Y-22499D01*
X32630Y-22499D01*
X32623Y-22466D01*
X32623Y-22466D01*
X32579Y-22400D01*
X33400Y-22400D01*
X35705Y-22400D01*
X35858Y-22553D01*
X35850Y-22562D01*
X35850Y-22950D01*
X35857Y-22950D01*
X35857Y-23050D01*
X35850Y-23050D01*
X35850Y-23437D01*
X35912Y-23500D01*
X35999Y-23500D01*
X36050Y-23479D01*
X36100Y-23499D01*
X36199Y-23500D01*
X36499Y-23500D01*
X36550Y-23479D01*
X36600Y-23499D01*
X36699Y-23500D01*
X36804Y-23500D01*
X36804Y-23500D01*
G37*
G54D23*
X36804Y-23500D02*
X36755Y-23550D01*
X36450Y-23550D01*
X36316Y-23576D01*
X36202Y-23652D01*
X36202Y-23652D01*
X35205Y-24650D01*
X32344Y-24650D01*
X32329Y-24613D01*
X32265Y-24550D01*
X34050Y-24550D01*
X34183Y-24523D01*
X34183Y-24523D01*
X34297Y-24447D01*
X35047Y-23697D01*
X35047Y-23697D01*
X35047Y-23697D01*
X35123Y-23583D01*
X35140Y-23499D01*
X35199Y-23500D01*
X35499Y-23500D01*
X35550Y-23479D01*
X35600Y-23500D01*
X35687Y-23500D01*
X35750Y-23437D01*
X35750Y-23050D01*
X35742Y-23050D01*
X35742Y-22950D01*
X35750Y-22950D01*
X35750Y-22562D01*
X35687Y-22500D01*
X35600Y-22499D01*
X35549Y-22520D01*
X35499Y-22500D01*
X35400Y-22499D01*
X35100Y-22499D01*
X35049Y-22520D01*
X34999Y-22500D01*
X34900Y-22499D01*
X34600Y-22499D01*
X34549Y-22520D01*
X34499Y-22500D01*
X34400Y-22499D01*
X34100Y-22499D01*
X34049Y-22520D01*
X33999Y-22500D01*
X33900Y-22499D01*
X33600Y-22499D01*
X33550Y-22520D01*
X33499Y-22499D01*
X33412Y-22500D01*
X33350Y-22562D01*
X33350Y-22950D01*
X33357Y-22950D01*
X33357Y-23050D01*
X33350Y-23050D01*
X33350Y-23437D01*
X33412Y-23500D01*
X33499Y-23500D01*
X33550Y-23479D01*
X33600Y-23499D01*
X33699Y-23500D01*
X33854Y-23500D01*
X33805Y-23550D01*
X33044Y-23550D01*
X33047Y-23547D01*
X33047Y-23547D01*
X33047Y-23547D01*
X33083Y-23493D01*
X33100Y-23500D01*
X33187Y-23500D01*
X33250Y-23437D01*
X33250Y-23050D01*
X33242Y-23050D01*
X33242Y-22950D01*
X33250Y-22950D01*
X33250Y-22562D01*
X33187Y-22500D01*
X33100Y-22499D01*
X33049Y-22520D01*
X32999Y-22500D01*
X32900Y-22499D01*
X32630Y-22499D01*
X32623Y-22466D01*
X32623Y-22466D01*
X32579Y-22400D01*
X33400Y-22400D01*
X35705Y-22400D01*
X35858Y-22553D01*
X35850Y-22562D01*
X35850Y-22950D01*
X35857Y-22950D01*
X35857Y-23050D01*
X35850Y-23050D01*
X35850Y-23437D01*
X35912Y-23500D01*
X35999Y-23500D01*
X36050Y-23479D01*
X36100Y-23499D01*
X36199Y-23500D01*
X36499Y-23500D01*
X36550Y-23479D01*
X36600Y-23499D01*
X36699Y-23500D01*
X36804Y-23500D01*
G54D10*
G36*
X37826Y-26255D02*
X37755Y-26326D01*
X37750Y-26320D01*
X37744Y-26326D01*
X37673Y-26255D01*
X37679Y-26250D01*
X37673Y-26244D01*
X37744Y-26173D01*
X37750Y-26179D01*
X37755Y-26173D01*
X37826Y-26244D01*
X37820Y-26250D01*
X37826Y-26255D01*
X37826Y-26255D01*
G37*
G54D23*
X37826Y-26255D02*
X37755Y-26326D01*
X37750Y-26320D01*
X37744Y-26326D01*
X37673Y-26255D01*
X37679Y-26250D01*
X37673Y-26244D01*
X37744Y-26173D01*
X37750Y-26179D01*
X37755Y-26173D01*
X37826Y-26244D01*
X37820Y-26250D01*
X37826Y-26255D01*
G54D10*
G36*
X38826Y-26255D02*
X38755Y-26326D01*
X38750Y-26320D01*
X38744Y-26326D01*
X38673Y-26255D01*
X38679Y-26250D01*
X38673Y-26244D01*
X38744Y-26173D01*
X38750Y-26179D01*
X38755Y-26173D01*
X38826Y-26244D01*
X38820Y-26250D01*
X38826Y-26255D01*
X38826Y-26255D01*
G37*
G54D23*
X38826Y-26255D02*
X38755Y-26326D01*
X38750Y-26320D01*
X38744Y-26326D01*
X38673Y-26255D01*
X38679Y-26250D01*
X38673Y-26244D01*
X38744Y-26173D01*
X38750Y-26179D01*
X38755Y-26173D01*
X38826Y-26244D01*
X38820Y-26250D01*
X38826Y-26255D01*
G54D10*
G36*
X41200Y-24148D02*
X41189Y-24158D01*
X41125Y-24315D01*
X41125Y-24360D01*
X41123Y-24358D01*
X41010Y-24309D01*
X40940Y-24380D01*
X40940Y-24239D01*
X40891Y-24126D01*
X40622Y-24023D01*
X40335Y-24031D01*
X40108Y-24126D01*
X40059Y-24239D01*
X40500Y-24679D01*
X40940Y-24239D01*
X40940Y-24380D01*
X40570Y-24750D01*
X40576Y-24755D01*
X40505Y-24826D01*
X40500Y-24820D01*
X40494Y-24826D01*
X40429Y-24761D01*
X40423Y-24755D01*
X40429Y-24750D01*
X39989Y-24309D01*
X39876Y-24358D01*
X39773Y-24627D01*
X39781Y-24914D01*
X39876Y-25141D01*
X39989Y-25190D01*
X39979Y-25200D01*
X39433Y-25200D01*
X39529Y-25104D01*
X39624Y-24874D01*
X39625Y-24626D01*
X39530Y-24396D01*
X39354Y-24220D01*
X39124Y-24125D01*
X38876Y-24124D01*
X38646Y-24219D01*
X38470Y-24395D01*
X38375Y-24625D01*
X38374Y-24873D01*
X38469Y-25103D01*
X38566Y-25200D01*
X37433Y-25200D01*
X37529Y-25104D01*
X37624Y-24874D01*
X37625Y-24626D01*
X37530Y-24396D01*
X37354Y-24220D01*
X37156Y-24138D01*
X37494Y-23800D01*
X37598Y-23800D01*
X37608Y-23810D01*
X37765Y-23874D01*
X37934Y-23875D01*
X38090Y-23810D01*
X38210Y-23691D01*
X38274Y-23534D01*
X38275Y-23365D01*
X38210Y-23209D01*
X38091Y-23089D01*
X37934Y-23025D01*
X37765Y-23024D01*
X37700Y-23052D01*
X37700Y-22700D01*
X37662Y-22608D01*
X37591Y-22538D01*
X37499Y-22500D01*
X37400Y-22499D01*
X37140Y-22499D01*
X37123Y-22416D01*
X37047Y-22302D01*
X37047Y-22302D01*
X36247Y-21502D01*
X36133Y-21426D01*
X36000Y-21400D01*
X33400Y-21400D01*
X31594Y-21400D01*
X31144Y-20950D01*
X35050Y-20950D01*
X35650Y-20950D01*
X35783Y-20923D01*
X35783Y-20923D01*
X35897Y-20847D01*
X37047Y-19697D01*
X37047Y-19697D01*
X37047Y-19697D01*
X37057Y-19682D01*
X37100Y-19699D01*
X37199Y-19700D01*
X37499Y-19700D01*
X37537Y-19684D01*
X37539Y-19690D01*
X37658Y-19810D01*
X37815Y-19874D01*
X37984Y-19875D01*
X38140Y-19810D01*
X38260Y-19691D01*
X38324Y-19534D01*
X38325Y-19370D01*
X38400Y-19444D01*
X38400Y-21900D01*
X38426Y-22033D01*
X38502Y-22147D01*
X38757Y-22402D01*
X38750Y-22420D01*
X38749Y-22678D01*
X38848Y-22917D01*
X39031Y-23100D01*
X39270Y-23199D01*
X39528Y-23200D01*
X39767Y-23101D01*
X39950Y-22918D01*
X40049Y-22679D01*
X40050Y-22421D01*
X39951Y-22182D01*
X39768Y-21999D01*
X39529Y-21900D01*
X39271Y-21899D01*
X39252Y-21907D01*
X39100Y-21755D01*
X39100Y-20418D01*
X39152Y-20497D01*
X39552Y-20897D01*
X39552Y-20897D01*
X39666Y-20973D01*
X39799Y-20999D01*
X39800Y-21000D01*
X41200Y-21000D01*
X41200Y-24148D01*
X41200Y-24148D01*
G37*
G54D23*
X41200Y-24148D02*
X41189Y-24158D01*
X41125Y-24315D01*
X41125Y-24360D01*
X41123Y-24358D01*
X41010Y-24309D01*
X40940Y-24380D01*
X40940Y-24239D01*
X40891Y-24126D01*
X40622Y-24023D01*
X40335Y-24031D01*
X40108Y-24126D01*
X40059Y-24239D01*
X40500Y-24679D01*
X40940Y-24239D01*
X40940Y-24380D01*
X40570Y-24750D01*
X40576Y-24755D01*
X40505Y-24826D01*
X40500Y-24820D01*
X40494Y-24826D01*
X40429Y-24761D01*
X40423Y-24755D01*
X40429Y-24750D01*
X39989Y-24309D01*
X39876Y-24358D01*
X39773Y-24627D01*
X39781Y-24914D01*
X39876Y-25141D01*
X39989Y-25190D01*
X39979Y-25200D01*
X39433Y-25200D01*
X39529Y-25104D01*
X39624Y-24874D01*
X39625Y-24626D01*
X39530Y-24396D01*
X39354Y-24220D01*
X39124Y-24125D01*
X38876Y-24124D01*
X38646Y-24219D01*
X38470Y-24395D01*
X38375Y-24625D01*
X38374Y-24873D01*
X38469Y-25103D01*
X38566Y-25200D01*
X37433Y-25200D01*
X37529Y-25104D01*
X37624Y-24874D01*
X37625Y-24626D01*
X37530Y-24396D01*
X37354Y-24220D01*
X37156Y-24138D01*
X37494Y-23800D01*
X37598Y-23800D01*
X37608Y-23810D01*
X37765Y-23874D01*
X37934Y-23875D01*
X38090Y-23810D01*
X38210Y-23691D01*
X38274Y-23534D01*
X38275Y-23365D01*
X38210Y-23209D01*
X38091Y-23089D01*
X37934Y-23025D01*
X37765Y-23024D01*
X37700Y-23052D01*
X37700Y-22700D01*
X37662Y-22608D01*
X37591Y-22538D01*
X37499Y-22500D01*
X37400Y-22499D01*
X37140Y-22499D01*
X37123Y-22416D01*
X37047Y-22302D01*
X37047Y-22302D01*
X36247Y-21502D01*
X36133Y-21426D01*
X36000Y-21400D01*
X33400Y-21400D01*
X31594Y-21400D01*
X31144Y-20950D01*
X35050Y-20950D01*
X35650Y-20950D01*
X35783Y-20923D01*
X35783Y-20923D01*
X35897Y-20847D01*
X37047Y-19697D01*
X37047Y-19697D01*
X37047Y-19697D01*
X37057Y-19682D01*
X37100Y-19699D01*
X37199Y-19700D01*
X37499Y-19700D01*
X37537Y-19684D01*
X37539Y-19690D01*
X37658Y-19810D01*
X37815Y-19874D01*
X37984Y-19875D01*
X38140Y-19810D01*
X38260Y-19691D01*
X38324Y-19534D01*
X38325Y-19370D01*
X38400Y-19444D01*
X38400Y-21900D01*
X38426Y-22033D01*
X38502Y-22147D01*
X38757Y-22402D01*
X38750Y-22420D01*
X38749Y-22678D01*
X38848Y-22917D01*
X39031Y-23100D01*
X39270Y-23199D01*
X39528Y-23200D01*
X39767Y-23101D01*
X39950Y-22918D01*
X40049Y-22679D01*
X40050Y-22421D01*
X39951Y-22182D01*
X39768Y-21999D01*
X39529Y-21900D01*
X39271Y-21899D01*
X39252Y-21907D01*
X39100Y-21755D01*
X39100Y-20418D01*
X39152Y-20497D01*
X39552Y-20897D01*
X39552Y-20897D01*
X39666Y-20973D01*
X39799Y-20999D01*
X39800Y-21000D01*
X41200Y-21000D01*
X41200Y-24148D01*
G54D10*
G36*
X49057Y-20050D02*
X49050Y-20050D01*
X49050Y-20057D01*
X48950Y-20057D01*
X48950Y-20050D01*
X48942Y-20050D01*
X48942Y-19950D01*
X48950Y-19950D01*
X48950Y-19942D01*
X49050Y-19942D01*
X49050Y-19950D01*
X49057Y-19950D01*
X49057Y-20050D01*
X49057Y-20050D01*
G37*
G54D23*
X49057Y-20050D02*
X49050Y-20050D01*
X49050Y-20057D01*
X48950Y-20057D01*
X48950Y-20050D01*
X48942Y-20050D01*
X48942Y-19950D01*
X48950Y-19950D01*
X48950Y-19942D01*
X49050Y-19942D01*
X49050Y-19950D01*
X49057Y-19950D01*
X49057Y-20050D01*
G54D10*
G36*
X50057Y-23050D02*
X50050Y-23050D01*
X50050Y-23057D01*
X49950Y-23057D01*
X49950Y-23050D01*
X49942Y-23050D01*
X49942Y-22950D01*
X49950Y-22950D01*
X49950Y-22942D01*
X50050Y-22942D01*
X50050Y-22950D01*
X50057Y-22950D01*
X50057Y-23050D01*
X50057Y-23050D01*
G37*
G54D23*
X50057Y-23050D02*
X50050Y-23050D01*
X50050Y-23057D01*
X49950Y-23057D01*
X49950Y-23050D01*
X49942Y-23050D01*
X49942Y-22950D01*
X49950Y-22950D01*
X49950Y-22942D01*
X50050Y-22942D01*
X50050Y-22950D01*
X50057Y-22950D01*
X50057Y-23050D01*
G54D10*
G36*
X50650Y-21855D02*
X50605Y-21900D01*
X49750Y-21900D01*
X49749Y-21900D01*
X49616Y-21926D01*
X49502Y-22002D01*
X49502Y-22002D01*
X49502Y-22002D01*
X49182Y-22322D01*
X49000Y-22286D01*
X48785Y-22328D01*
X48604Y-22450D01*
X48499Y-22605D01*
X48395Y-22450D01*
X48214Y-22328D01*
X48000Y-22286D01*
X47785Y-22328D01*
X47604Y-22450D01*
X47499Y-22605D01*
X47395Y-22450D01*
X47214Y-22328D01*
X47000Y-22286D01*
X46785Y-22328D01*
X46604Y-22450D01*
X46499Y-22605D01*
X46395Y-22450D01*
X46214Y-22328D01*
X46000Y-22286D01*
X45785Y-22328D01*
X45604Y-22450D01*
X45499Y-22605D01*
X45395Y-22450D01*
X45214Y-22328D01*
X45000Y-22286D01*
X44785Y-22328D01*
X44604Y-22450D01*
X44499Y-22605D01*
X44395Y-22450D01*
X44214Y-22328D01*
X44000Y-22286D01*
X43785Y-22328D01*
X43604Y-22450D01*
X43560Y-22516D01*
X43560Y-22500D01*
X43522Y-22408D01*
X43451Y-22338D01*
X43359Y-22300D01*
X43260Y-22299D01*
X42640Y-22299D01*
X42548Y-22337D01*
X42478Y-22408D01*
X42440Y-22500D01*
X42439Y-22599D01*
X42439Y-23499D01*
X42477Y-23591D01*
X42548Y-23661D01*
X42640Y-23699D01*
X42739Y-23700D01*
X43359Y-23700D01*
X43451Y-23662D01*
X43521Y-23591D01*
X43559Y-23499D01*
X43559Y-23483D01*
X43604Y-23549D01*
X43785Y-23671D01*
X44000Y-23713D01*
X44214Y-23671D01*
X44395Y-23549D01*
X44500Y-23394D01*
X44604Y-23549D01*
X44785Y-23671D01*
X45000Y-23713D01*
X45214Y-23671D01*
X45395Y-23549D01*
X45500Y-23394D01*
X45604Y-23549D01*
X45785Y-23671D01*
X46000Y-23713D01*
X46214Y-23671D01*
X46395Y-23549D01*
X46500Y-23394D01*
X46604Y-23549D01*
X46785Y-23671D01*
X47000Y-23713D01*
X47214Y-23671D01*
X47395Y-23549D01*
X47500Y-23394D01*
X47604Y-23549D01*
X47785Y-23671D01*
X48000Y-23713D01*
X48214Y-23671D01*
X48395Y-23549D01*
X48500Y-23394D01*
X48604Y-23549D01*
X48785Y-23671D01*
X49000Y-23713D01*
X49214Y-23671D01*
X49395Y-23549D01*
X49499Y-23394D01*
X49501Y-23400D01*
X49639Y-23571D01*
X49700Y-23604D01*
X48752Y-24552D01*
X48676Y-24666D01*
X48650Y-24800D01*
X48650Y-25050D01*
X48650Y-25691D01*
X48632Y-25698D01*
X48499Y-25830D01*
X48368Y-25699D01*
X48129Y-25600D01*
X47871Y-25599D01*
X47632Y-25698D01*
X47499Y-25830D01*
X47368Y-25699D01*
X47129Y-25600D01*
X46871Y-25599D01*
X46632Y-25698D01*
X46499Y-25830D01*
X46368Y-25699D01*
X46129Y-25600D01*
X45871Y-25599D01*
X45632Y-25698D01*
X45499Y-25830D01*
X45368Y-25699D01*
X45129Y-25600D01*
X44871Y-25599D01*
X44632Y-25698D01*
X44615Y-25715D01*
X44612Y-25708D01*
X44541Y-25638D01*
X44449Y-25600D01*
X44350Y-25599D01*
X43844Y-25599D01*
X43547Y-25302D01*
X43500Y-25271D01*
X43612Y-25159D01*
X43722Y-24894D01*
X43722Y-24606D01*
X43612Y-24341D01*
X43409Y-24137D01*
X43144Y-24027D01*
X42856Y-24027D01*
X42591Y-24137D01*
X42387Y-24340D01*
X42277Y-24605D01*
X42277Y-24893D01*
X42387Y-25158D01*
X42428Y-25200D01*
X41020Y-25200D01*
X41010Y-25190D01*
X41123Y-25141D01*
X41226Y-24872D01*
X41220Y-24671D01*
X41308Y-24760D01*
X41465Y-24824D01*
X41634Y-24825D01*
X41790Y-24760D01*
X41910Y-24641D01*
X41974Y-24484D01*
X41975Y-24315D01*
X41910Y-24159D01*
X41900Y-24149D01*
X41900Y-21000D01*
X50650Y-21000D01*
X50650Y-21855D01*
X50650Y-21855D01*
G37*
G54D23*
X50650Y-21855D02*
X50605Y-21900D01*
X49750Y-21900D01*
X49749Y-21900D01*
X49616Y-21926D01*
X49502Y-22002D01*
X49502Y-22002D01*
X49502Y-22002D01*
X49182Y-22322D01*
X49000Y-22286D01*
X48785Y-22328D01*
X48604Y-22450D01*
X48499Y-22605D01*
X48395Y-22450D01*
X48214Y-22328D01*
X48000Y-22286D01*
X47785Y-22328D01*
X47604Y-22450D01*
X47499Y-22605D01*
X47395Y-22450D01*
X47214Y-22328D01*
X47000Y-22286D01*
X46785Y-22328D01*
X46604Y-22450D01*
X46499Y-22605D01*
X46395Y-22450D01*
X46214Y-22328D01*
X46000Y-22286D01*
X45785Y-22328D01*
X45604Y-22450D01*
X45499Y-22605D01*
X45395Y-22450D01*
X45214Y-22328D01*
X45000Y-22286D01*
X44785Y-22328D01*
X44604Y-22450D01*
X44499Y-22605D01*
X44395Y-22450D01*
X44214Y-22328D01*
X44000Y-22286D01*
X43785Y-22328D01*
X43604Y-22450D01*
X43560Y-22516D01*
X43560Y-22500D01*
X43522Y-22408D01*
X43451Y-22338D01*
X43359Y-22300D01*
X43260Y-22299D01*
X42640Y-22299D01*
X42548Y-22337D01*
X42478Y-22408D01*
X42440Y-22500D01*
X42439Y-22599D01*
X42439Y-23499D01*
X42477Y-23591D01*
X42548Y-23661D01*
X42640Y-23699D01*
X42739Y-23700D01*
X43359Y-23700D01*
X43451Y-23662D01*
X43521Y-23591D01*
X43559Y-23499D01*
X43559Y-23483D01*
X43604Y-23549D01*
X43785Y-23671D01*
X44000Y-23713D01*
X44214Y-23671D01*
X44395Y-23549D01*
X44500Y-23394D01*
X44604Y-23549D01*
X44785Y-23671D01*
X45000Y-23713D01*
X45214Y-23671D01*
X45395Y-23549D01*
X45500Y-23394D01*
X45604Y-23549D01*
X45785Y-23671D01*
X46000Y-23713D01*
X46214Y-23671D01*
X46395Y-23549D01*
X46500Y-23394D01*
X46604Y-23549D01*
X46785Y-23671D01*
X47000Y-23713D01*
X47214Y-23671D01*
X47395Y-23549D01*
X47500Y-23394D01*
X47604Y-23549D01*
X47785Y-23671D01*
X48000Y-23713D01*
X48214Y-23671D01*
X48395Y-23549D01*
X48500Y-23394D01*
X48604Y-23549D01*
X48785Y-23671D01*
X49000Y-23713D01*
X49214Y-23671D01*
X49395Y-23549D01*
X49499Y-23394D01*
X49501Y-23400D01*
X49639Y-23571D01*
X49700Y-23604D01*
X48752Y-24552D01*
X48676Y-24666D01*
X48650Y-24800D01*
X48650Y-25050D01*
X48650Y-25691D01*
X48632Y-25698D01*
X48499Y-25830D01*
X48368Y-25699D01*
X48129Y-25600D01*
X47871Y-25599D01*
X47632Y-25698D01*
X47499Y-25830D01*
X47368Y-25699D01*
X47129Y-25600D01*
X46871Y-25599D01*
X46632Y-25698D01*
X46499Y-25830D01*
X46368Y-25699D01*
X46129Y-25600D01*
X45871Y-25599D01*
X45632Y-25698D01*
X45499Y-25830D01*
X45368Y-25699D01*
X45129Y-25600D01*
X44871Y-25599D01*
X44632Y-25698D01*
X44615Y-25715D01*
X44612Y-25708D01*
X44541Y-25638D01*
X44449Y-25600D01*
X44350Y-25599D01*
X43844Y-25599D01*
X43547Y-25302D01*
X43500Y-25271D01*
X43612Y-25159D01*
X43722Y-24894D01*
X43722Y-24606D01*
X43612Y-24341D01*
X43409Y-24137D01*
X43144Y-24027D01*
X42856Y-24027D01*
X42591Y-24137D01*
X42387Y-24340D01*
X42277Y-24605D01*
X42277Y-24893D01*
X42387Y-25158D01*
X42428Y-25200D01*
X41020Y-25200D01*
X41010Y-25190D01*
X41123Y-25141D01*
X41226Y-24872D01*
X41220Y-24671D01*
X41308Y-24760D01*
X41465Y-24824D01*
X41634Y-24825D01*
X41790Y-24760D01*
X41910Y-24641D01*
X41974Y-24484D01*
X41975Y-24315D01*
X41910Y-24159D01*
X41900Y-24149D01*
X41900Y-21000D01*
X50650Y-21000D01*
X50650Y-21855D01*
G54D10*
G36*
X64220Y-26970D02*
X64065Y-26970D01*
X64065Y-24439D01*
X64065Y-18689D01*
X63827Y-18114D01*
X63387Y-17673D01*
X62812Y-17434D01*
X62189Y-17434D01*
X61614Y-17672D01*
X61173Y-18112D01*
X60934Y-18687D01*
X60934Y-19310D01*
X61172Y-19885D01*
X61612Y-20326D01*
X62187Y-20565D01*
X62810Y-20565D01*
X63385Y-20327D01*
X63826Y-19887D01*
X64065Y-19312D01*
X64065Y-18689D01*
X64065Y-24439D01*
X63827Y-23864D01*
X63387Y-23423D01*
X62812Y-23184D01*
X62189Y-23184D01*
X61614Y-23422D01*
X61404Y-23631D01*
X61404Y-20855D01*
X61394Y-20597D01*
X61314Y-20402D01*
X61208Y-20362D01*
X61137Y-20433D01*
X61137Y-20291D01*
X61097Y-20185D01*
X60855Y-20095D01*
X60597Y-20105D01*
X60402Y-20185D01*
X60362Y-20291D01*
X60750Y-20679D01*
X61137Y-20291D01*
X61137Y-20433D01*
X60820Y-20750D01*
X61208Y-21137D01*
X61314Y-21097D01*
X61404Y-20855D01*
X61404Y-23631D01*
X61173Y-23862D01*
X60934Y-24437D01*
X60934Y-25060D01*
X61172Y-25635D01*
X61612Y-26076D01*
X62187Y-26315D01*
X62810Y-26315D01*
X63385Y-26077D01*
X63826Y-25637D01*
X64065Y-25062D01*
X64065Y-24439D01*
X64065Y-26970D01*
X59904Y-26970D01*
X59904Y-26105D01*
X59900Y-25991D01*
X59900Y-24871D01*
X59801Y-24632D01*
X59618Y-24449D01*
X59379Y-24350D01*
X59121Y-24349D01*
X58882Y-24448D01*
X58699Y-24631D01*
X58691Y-24650D01*
X57558Y-24650D01*
X57551Y-24632D01*
X57368Y-24449D01*
X57129Y-24350D01*
X56871Y-24349D01*
X56632Y-24448D01*
X56449Y-24631D01*
X56350Y-24870D01*
X56349Y-25128D01*
X56448Y-25367D01*
X56631Y-25550D01*
X56870Y-25649D01*
X57128Y-25650D01*
X57367Y-25551D01*
X57550Y-25368D01*
X57558Y-25350D01*
X58691Y-25350D01*
X58698Y-25367D01*
X58865Y-25534D01*
X58862Y-25541D01*
X59250Y-25929D01*
X59637Y-25541D01*
X59634Y-25534D01*
X59800Y-25368D01*
X59899Y-25129D01*
X59900Y-24871D01*
X59900Y-25991D01*
X59894Y-25847D01*
X59814Y-25652D01*
X59708Y-25612D01*
X59320Y-26000D01*
X59708Y-26387D01*
X59814Y-26347D01*
X59904Y-26105D01*
X59904Y-26970D01*
X59637Y-26970D01*
X59637Y-26458D01*
X59250Y-26070D01*
X59179Y-26141D01*
X59179Y-26000D01*
X58791Y-25612D01*
X58685Y-25652D01*
X58595Y-25894D01*
X58605Y-26152D01*
X58685Y-26347D01*
X58791Y-26387D01*
X59179Y-26000D01*
X59179Y-26141D01*
X58862Y-26458D01*
X58902Y-26564D01*
X59144Y-26654D01*
X59402Y-26644D01*
X59597Y-26564D01*
X59637Y-26458D01*
X59637Y-26970D01*
X55650Y-26970D01*
X55650Y-24871D01*
X55551Y-24632D01*
X55368Y-24449D01*
X55129Y-24350D01*
X54871Y-24349D01*
X54632Y-24448D01*
X54449Y-24631D01*
X54350Y-24870D01*
X54349Y-25128D01*
X54448Y-25367D01*
X54631Y-25550D01*
X54870Y-25649D01*
X55128Y-25650D01*
X55367Y-25551D01*
X55550Y-25368D01*
X55649Y-25129D01*
X55650Y-24871D01*
X55650Y-26970D01*
X53404Y-26970D01*
X53404Y-26105D01*
X53394Y-25847D01*
X53314Y-25652D01*
X53208Y-25612D01*
X52820Y-26000D01*
X53208Y-26387D01*
X53314Y-26347D01*
X53404Y-26105D01*
X53404Y-26970D01*
X53137Y-26970D01*
X53137Y-26458D01*
X52750Y-26070D01*
X52679Y-26141D01*
X52679Y-26000D01*
X52291Y-25612D01*
X52185Y-25652D01*
X52095Y-25894D01*
X52105Y-26152D01*
X52185Y-26347D01*
X52291Y-26387D01*
X52679Y-26000D01*
X52679Y-26141D01*
X52362Y-26458D01*
X52402Y-26564D01*
X52644Y-26654D01*
X52902Y-26644D01*
X53097Y-26564D01*
X53137Y-26458D01*
X53137Y-26970D01*
X45174Y-26970D01*
X45247Y-26897D01*
X45247Y-26897D01*
X45247Y-26897D01*
X45290Y-26833D01*
X45290Y-26833D01*
X45367Y-26801D01*
X45500Y-26669D01*
X45631Y-26800D01*
X45870Y-26899D01*
X46128Y-26900D01*
X46367Y-26801D01*
X46500Y-26669D01*
X46631Y-26800D01*
X46870Y-26899D01*
X47128Y-26900D01*
X47367Y-26801D01*
X47500Y-26669D01*
X47631Y-26800D01*
X47870Y-26899D01*
X48128Y-26900D01*
X48367Y-26801D01*
X48500Y-26669D01*
X48631Y-26800D01*
X48870Y-26899D01*
X49128Y-26900D01*
X49367Y-26801D01*
X49500Y-26669D01*
X49631Y-26800D01*
X49870Y-26899D01*
X50128Y-26900D01*
X50367Y-26801D01*
X50500Y-26669D01*
X50631Y-26800D01*
X50870Y-26899D01*
X51128Y-26900D01*
X51367Y-26801D01*
X51550Y-26618D01*
X51649Y-26379D01*
X51650Y-26121D01*
X51551Y-25882D01*
X51368Y-25699D01*
X51350Y-25691D01*
X51350Y-25244D01*
X51994Y-24600D01*
X52230Y-24600D01*
X52199Y-24631D01*
X52100Y-24870D01*
X52099Y-25128D01*
X52198Y-25367D01*
X52365Y-25534D01*
X52362Y-25541D01*
X52750Y-25929D01*
X53137Y-25541D01*
X53134Y-25534D01*
X53300Y-25368D01*
X53399Y-25129D01*
X53400Y-24871D01*
X53301Y-24632D01*
X53269Y-24600D01*
X53950Y-24600D01*
X54083Y-24573D01*
X54083Y-24573D01*
X54197Y-24497D01*
X54984Y-23710D01*
X55000Y-23713D01*
X55214Y-23671D01*
X55395Y-23549D01*
X55500Y-23394D01*
X55604Y-23549D01*
X55785Y-23671D01*
X56000Y-23713D01*
X56214Y-23671D01*
X56395Y-23549D01*
X56517Y-23368D01*
X56560Y-23153D01*
X56560Y-22846D01*
X56517Y-22631D01*
X56496Y-22600D01*
X56855Y-22600D01*
X57002Y-22747D01*
X57002Y-22747D01*
X57116Y-22823D01*
X57250Y-22850D01*
X57468Y-22850D01*
X57469Y-22853D01*
X57645Y-23029D01*
X57875Y-23124D01*
X58123Y-23125D01*
X58205Y-23091D01*
X58250Y-23100D01*
X60099Y-23100D01*
X60099Y-23199D01*
X60137Y-23291D01*
X60208Y-23361D01*
X60300Y-23399D01*
X60399Y-23400D01*
X61199Y-23400D01*
X61291Y-23362D01*
X61361Y-23291D01*
X61399Y-23199D01*
X61400Y-23100D01*
X61400Y-22300D01*
X61362Y-22208D01*
X61291Y-22138D01*
X61199Y-22100D01*
X61137Y-22099D01*
X61137Y-21208D01*
X60750Y-20820D01*
X60679Y-20891D01*
X60679Y-20750D01*
X60291Y-20362D01*
X60185Y-20402D01*
X60095Y-20644D01*
X60105Y-20902D01*
X60185Y-21097D01*
X60291Y-21137D01*
X60679Y-20750D01*
X60679Y-20891D01*
X60362Y-21208D01*
X60402Y-21314D01*
X60644Y-21404D01*
X60902Y-21394D01*
X61097Y-21314D01*
X61137Y-21208D01*
X61137Y-22099D01*
X61100Y-22099D01*
X60300Y-22099D01*
X60208Y-22137D01*
X60138Y-22208D01*
X60100Y-22300D01*
X60099Y-22399D01*
X60099Y-22400D01*
X58629Y-22400D01*
X58629Y-20599D01*
X58619Y-20351D01*
X58543Y-20167D01*
X58440Y-20130D01*
X58369Y-20201D01*
X58369Y-20059D01*
X58332Y-19956D01*
X58099Y-19870D01*
X57851Y-19880D01*
X57667Y-19956D01*
X57663Y-19966D01*
X57663Y-18863D01*
X57663Y-18036D01*
X57625Y-17945D01*
X57555Y-17874D01*
X57463Y-17836D01*
X57363Y-17836D01*
X56536Y-17836D01*
X56445Y-17874D01*
X56392Y-17926D01*
X56387Y-17921D01*
X56136Y-17817D01*
X55864Y-17816D01*
X55613Y-17920D01*
X55499Y-18034D01*
X55387Y-17921D01*
X55136Y-17817D01*
X54864Y-17816D01*
X54613Y-17920D01*
X54499Y-18034D01*
X54387Y-17921D01*
X54136Y-17817D01*
X53864Y-17816D01*
X53613Y-17920D01*
X53499Y-18034D01*
X53387Y-17921D01*
X53136Y-17817D01*
X52864Y-17816D01*
X52613Y-17920D01*
X52499Y-18034D01*
X52387Y-17921D01*
X52136Y-17817D01*
X51864Y-17816D01*
X51613Y-17920D01*
X51421Y-18112D01*
X51317Y-18363D01*
X51316Y-18635D01*
X51420Y-18886D01*
X51612Y-19078D01*
X51863Y-19182D01*
X52135Y-19183D01*
X52386Y-19079D01*
X52500Y-18965D01*
X52612Y-19078D01*
X52863Y-19182D01*
X53135Y-19183D01*
X53386Y-19079D01*
X53500Y-18965D01*
X53612Y-19078D01*
X53863Y-19182D01*
X54135Y-19183D01*
X54386Y-19079D01*
X54500Y-18965D01*
X54612Y-19078D01*
X54863Y-19182D01*
X55135Y-19183D01*
X55386Y-19079D01*
X55500Y-18965D01*
X55612Y-19078D01*
X55863Y-19182D01*
X56135Y-19183D01*
X56386Y-19079D01*
X56392Y-19073D01*
X56444Y-19125D01*
X56536Y-19163D01*
X56636Y-19163D01*
X57463Y-19163D01*
X57554Y-19125D01*
X57625Y-19055D01*
X57663Y-18963D01*
X57663Y-18863D01*
X57663Y-19966D01*
X57630Y-20059D01*
X58000Y-20429D01*
X58369Y-20059D01*
X58369Y-20201D01*
X58070Y-20500D01*
X58440Y-20869D01*
X58543Y-20832D01*
X58629Y-20599D01*
X58629Y-22400D01*
X58625Y-22400D01*
X58625Y-22376D01*
X58530Y-22146D01*
X58369Y-21985D01*
X58369Y-20940D01*
X58000Y-20570D01*
X57929Y-20641D01*
X57929Y-20500D01*
X57559Y-20130D01*
X57456Y-20167D01*
X57370Y-20400D01*
X57380Y-20648D01*
X57456Y-20832D01*
X57559Y-20869D01*
X57929Y-20500D01*
X57929Y-20641D01*
X57630Y-20940D01*
X57667Y-21043D01*
X57900Y-21129D01*
X58148Y-21119D01*
X58332Y-21043D01*
X58369Y-20940D01*
X58369Y-21985D01*
X58354Y-21970D01*
X58124Y-21875D01*
X57876Y-21874D01*
X57646Y-21969D01*
X57470Y-22145D01*
X57468Y-22150D01*
X57394Y-22150D01*
X57247Y-22002D01*
X57133Y-21926D01*
X57000Y-21900D01*
X51350Y-21900D01*
X51350Y-20700D01*
X51350Y-20580D01*
X51395Y-20549D01*
X51500Y-20394D01*
X51604Y-20549D01*
X51785Y-20671D01*
X52000Y-20713D01*
X52214Y-20671D01*
X52395Y-20549D01*
X52500Y-20394D01*
X52604Y-20549D01*
X52785Y-20671D01*
X53000Y-20713D01*
X53214Y-20671D01*
X53395Y-20549D01*
X53500Y-20394D01*
X53604Y-20549D01*
X53785Y-20671D01*
X54000Y-20713D01*
X54214Y-20671D01*
X54395Y-20549D01*
X54500Y-20394D01*
X54604Y-20549D01*
X54785Y-20671D01*
X55000Y-20713D01*
X55214Y-20671D01*
X55395Y-20549D01*
X55500Y-20394D01*
X55604Y-20549D01*
X55785Y-20671D01*
X56000Y-20713D01*
X56214Y-20671D01*
X56395Y-20549D01*
X56517Y-20368D01*
X56560Y-20153D01*
X56560Y-19846D01*
X56517Y-19631D01*
X56395Y-19450D01*
X56214Y-19328D01*
X56000Y-19286D01*
X55785Y-19328D01*
X55604Y-19450D01*
X55500Y-19605D01*
X55395Y-19450D01*
X55214Y-19328D01*
X55000Y-19286D01*
X54785Y-19328D01*
X54604Y-19450D01*
X54500Y-19605D01*
X54395Y-19450D01*
X54214Y-19328D01*
X54000Y-19286D01*
X53785Y-19328D01*
X53604Y-19450D01*
X53500Y-19605D01*
X53395Y-19450D01*
X53214Y-19328D01*
X53000Y-19286D01*
X52785Y-19328D01*
X52604Y-19450D01*
X52500Y-19605D01*
X52395Y-19450D01*
X52214Y-19328D01*
X52000Y-19286D01*
X51817Y-19322D01*
X51497Y-19002D01*
X51383Y-18926D01*
X51250Y-18900D01*
X48663Y-18900D01*
X48663Y-18863D01*
X48663Y-18036D01*
X48625Y-17945D01*
X48555Y-17874D01*
X48463Y-17836D01*
X48363Y-17836D01*
X47536Y-17836D01*
X47445Y-17874D01*
X47392Y-17926D01*
X47387Y-17921D01*
X47136Y-17817D01*
X46864Y-17816D01*
X46613Y-17920D01*
X46499Y-18034D01*
X46387Y-17921D01*
X46136Y-17817D01*
X45864Y-17816D01*
X45613Y-17920D01*
X45499Y-18034D01*
X45387Y-17921D01*
X45136Y-17817D01*
X44864Y-17816D01*
X44613Y-17920D01*
X44499Y-18034D01*
X44387Y-17921D01*
X44136Y-17817D01*
X43864Y-17816D01*
X43613Y-17920D01*
X43499Y-18034D01*
X43387Y-17921D01*
X43136Y-17817D01*
X42864Y-17816D01*
X42613Y-17920D01*
X42421Y-18112D01*
X42317Y-18363D01*
X42316Y-18635D01*
X42420Y-18886D01*
X42434Y-18900D01*
X40544Y-18900D01*
X39347Y-17702D01*
X39233Y-17626D01*
X39100Y-17600D01*
X38151Y-17600D01*
X38141Y-17589D01*
X37984Y-17525D01*
X37815Y-17524D01*
X37659Y-17589D01*
X37539Y-17708D01*
X37475Y-17865D01*
X37474Y-18034D01*
X37481Y-18050D01*
X35174Y-18050D01*
X35175Y-17915D01*
X35157Y-17874D01*
X35197Y-17847D01*
X35602Y-17442D01*
X35620Y-17449D01*
X35878Y-17450D01*
X36117Y-17351D01*
X36300Y-17168D01*
X36349Y-17050D01*
X36349Y-17249D01*
X36387Y-17341D01*
X36458Y-17411D01*
X36550Y-17449D01*
X36649Y-17450D01*
X37449Y-17450D01*
X37541Y-17412D01*
X37611Y-17341D01*
X37614Y-17334D01*
X37631Y-17350D01*
X37870Y-17449D01*
X38128Y-17450D01*
X38367Y-17351D01*
X38500Y-17219D01*
X38631Y-17350D01*
X38870Y-17449D01*
X39128Y-17450D01*
X39367Y-17351D01*
X39500Y-17219D01*
X39631Y-17350D01*
X39870Y-17449D01*
X40128Y-17450D01*
X40367Y-17351D01*
X40500Y-17219D01*
X40631Y-17350D01*
X40870Y-17449D01*
X41128Y-17450D01*
X41367Y-17351D01*
X41550Y-17168D01*
X41599Y-17050D01*
X41599Y-17249D01*
X41637Y-17341D01*
X41708Y-17411D01*
X41800Y-17449D01*
X41899Y-17450D01*
X42699Y-17450D01*
X42791Y-17412D01*
X42861Y-17341D01*
X42864Y-17334D01*
X42881Y-17350D01*
X43120Y-17449D01*
X43378Y-17450D01*
X43617Y-17351D01*
X43750Y-17219D01*
X43881Y-17350D01*
X44120Y-17449D01*
X44378Y-17450D01*
X44617Y-17351D01*
X44750Y-17219D01*
X44881Y-17350D01*
X45120Y-17449D01*
X45378Y-17450D01*
X45617Y-17351D01*
X45750Y-17219D01*
X45881Y-17350D01*
X46120Y-17449D01*
X46378Y-17450D01*
X46617Y-17351D01*
X46800Y-17168D01*
X46849Y-17050D01*
X46849Y-17249D01*
X46887Y-17341D01*
X46958Y-17411D01*
X47050Y-17449D01*
X47149Y-17450D01*
X47949Y-17450D01*
X48041Y-17412D01*
X48111Y-17341D01*
X48114Y-17334D01*
X48131Y-17350D01*
X48370Y-17449D01*
X48628Y-17450D01*
X48867Y-17351D01*
X49000Y-17219D01*
X49131Y-17350D01*
X49370Y-17449D01*
X49628Y-17450D01*
X49867Y-17351D01*
X50000Y-17219D01*
X50131Y-17350D01*
X50370Y-17449D01*
X50628Y-17450D01*
X50867Y-17351D01*
X51000Y-17219D01*
X51131Y-17350D01*
X51370Y-17449D01*
X51628Y-17450D01*
X51867Y-17351D01*
X52050Y-17168D01*
X52099Y-17050D01*
X52099Y-17249D01*
X52137Y-17341D01*
X52208Y-17411D01*
X52300Y-17449D01*
X52399Y-17450D01*
X53199Y-17450D01*
X53291Y-17412D01*
X53361Y-17341D01*
X53364Y-17334D01*
X53381Y-17350D01*
X53620Y-17449D01*
X53878Y-17450D01*
X54117Y-17351D01*
X54250Y-17219D01*
X54381Y-17350D01*
X54620Y-17449D01*
X54878Y-17450D01*
X55117Y-17351D01*
X55250Y-17219D01*
X55381Y-17350D01*
X55620Y-17449D01*
X55878Y-17450D01*
X56117Y-17351D01*
X56250Y-17219D01*
X56381Y-17350D01*
X56620Y-17449D01*
X56878Y-17450D01*
X57117Y-17351D01*
X57300Y-17168D01*
X57349Y-17050D01*
X57349Y-17249D01*
X57387Y-17341D01*
X57458Y-17411D01*
X57550Y-17449D01*
X57649Y-17450D01*
X58449Y-17450D01*
X58541Y-17412D01*
X58611Y-17341D01*
X58614Y-17334D01*
X58631Y-17350D01*
X58870Y-17449D01*
X59128Y-17450D01*
X59367Y-17351D01*
X59500Y-17219D01*
X59631Y-17350D01*
X59870Y-17449D01*
X60128Y-17450D01*
X60367Y-17351D01*
X60500Y-17219D01*
X60631Y-17350D01*
X60870Y-17449D01*
X61128Y-17450D01*
X61367Y-17351D01*
X61500Y-17219D01*
X61631Y-17350D01*
X61870Y-17449D01*
X62128Y-17450D01*
X62367Y-17351D01*
X62550Y-17168D01*
X62649Y-16929D01*
X62650Y-16671D01*
X62551Y-16432D01*
X62368Y-16249D01*
X62129Y-16150D01*
X61871Y-16149D01*
X61632Y-16248D01*
X61499Y-16380D01*
X61368Y-16249D01*
X61129Y-16150D01*
X60871Y-16149D01*
X60632Y-16248D01*
X60499Y-16380D01*
X60368Y-16249D01*
X60129Y-16150D01*
X59871Y-16149D01*
X59632Y-16248D01*
X59499Y-16380D01*
X59368Y-16249D01*
X59129Y-16150D01*
X58871Y-16149D01*
X58632Y-16248D01*
X58615Y-16265D01*
X58612Y-16258D01*
X58541Y-16188D01*
X58449Y-16150D01*
X58350Y-16149D01*
X57550Y-16149D01*
X57458Y-16187D01*
X57388Y-16258D01*
X57350Y-16350D01*
X57349Y-16449D01*
X57349Y-16549D01*
X57301Y-16432D01*
X57118Y-16249D01*
X57100Y-16241D01*
X57100Y-15201D01*
X57110Y-15191D01*
X57174Y-15034D01*
X57175Y-14865D01*
X57110Y-14709D01*
X56991Y-14589D01*
X56834Y-14525D01*
X56665Y-14524D01*
X56509Y-14589D01*
X56389Y-14708D01*
X56325Y-14865D01*
X56324Y-15034D01*
X56389Y-15190D01*
X56400Y-15200D01*
X56400Y-16241D01*
X56382Y-16248D01*
X56249Y-16380D01*
X56118Y-16249D01*
X56100Y-16241D01*
X56100Y-15601D01*
X56110Y-15591D01*
X56174Y-15434D01*
X56175Y-15265D01*
X56110Y-15109D01*
X55991Y-14989D01*
X55834Y-14925D01*
X55665Y-14924D01*
X55509Y-14989D01*
X55389Y-15108D01*
X55325Y-15265D01*
X55324Y-15434D01*
X55389Y-15590D01*
X55400Y-15600D01*
X55400Y-16241D01*
X55382Y-16248D01*
X55249Y-16380D01*
X55118Y-16249D01*
X54879Y-16150D01*
X54621Y-16149D01*
X54382Y-16248D01*
X54249Y-16380D01*
X54118Y-16249D01*
X54100Y-16241D01*
X54100Y-16001D01*
X54110Y-15991D01*
X54174Y-15834D01*
X54175Y-15665D01*
X54110Y-15509D01*
X53991Y-15389D01*
X53834Y-15325D01*
X53665Y-15324D01*
X53509Y-15389D01*
X53389Y-15508D01*
X53325Y-15665D01*
X53324Y-15834D01*
X53389Y-15990D01*
X53400Y-16000D01*
X53400Y-16241D01*
X53382Y-16248D01*
X53365Y-16265D01*
X53362Y-16258D01*
X53291Y-16188D01*
X53199Y-16150D01*
X53100Y-16149D01*
X52300Y-16149D01*
X52208Y-16187D01*
X52138Y-16258D01*
X52100Y-16350D01*
X52099Y-16449D01*
X52099Y-16549D01*
X52051Y-16432D01*
X51868Y-16249D01*
X51850Y-16241D01*
X51850Y-15201D01*
X51860Y-15191D01*
X51924Y-15034D01*
X51925Y-14865D01*
X51860Y-14709D01*
X51741Y-14589D01*
X51584Y-14525D01*
X51415Y-14524D01*
X51259Y-14589D01*
X51139Y-14708D01*
X51075Y-14865D01*
X51074Y-15034D01*
X51139Y-15190D01*
X51150Y-15200D01*
X51150Y-16241D01*
X51132Y-16248D01*
X50999Y-16380D01*
X50868Y-16249D01*
X50850Y-16241D01*
X50850Y-15601D01*
X50860Y-15591D01*
X50924Y-15434D01*
X50925Y-15265D01*
X50860Y-15109D01*
X50741Y-14989D01*
X50584Y-14925D01*
X50415Y-14924D01*
X50259Y-14989D01*
X50139Y-15108D01*
X50075Y-15265D01*
X50074Y-15434D01*
X50139Y-15590D01*
X50150Y-15600D01*
X50150Y-16241D01*
X50132Y-16248D01*
X49999Y-16380D01*
X49868Y-16249D01*
X49629Y-16150D01*
X49371Y-16149D01*
X49132Y-16248D01*
X48999Y-16380D01*
X48868Y-16249D01*
X48850Y-16241D01*
X48850Y-16001D01*
X48860Y-15991D01*
X48924Y-15834D01*
X48925Y-15665D01*
X48860Y-15509D01*
X48741Y-15389D01*
X48584Y-15325D01*
X48415Y-15324D01*
X48259Y-15389D01*
X48139Y-15508D01*
X48075Y-15665D01*
X48074Y-15834D01*
X48139Y-15990D01*
X48150Y-16000D01*
X48150Y-16241D01*
X48132Y-16248D01*
X48115Y-16265D01*
X48112Y-16258D01*
X48041Y-16188D01*
X47949Y-16150D01*
X47850Y-16149D01*
X47050Y-16149D01*
X46958Y-16187D01*
X46888Y-16258D01*
X46850Y-16350D01*
X46849Y-16449D01*
X46849Y-16549D01*
X46801Y-16432D01*
X46618Y-16249D01*
X46600Y-16241D01*
X46600Y-15201D01*
X46610Y-15191D01*
X46674Y-15034D01*
X46675Y-14865D01*
X46610Y-14709D01*
X46491Y-14589D01*
X46334Y-14525D01*
X46165Y-14524D01*
X46009Y-14589D01*
X45889Y-14708D01*
X45825Y-14865D01*
X45824Y-15034D01*
X45889Y-15190D01*
X45900Y-15200D01*
X45900Y-16241D01*
X45882Y-16248D01*
X45749Y-16380D01*
X45618Y-16249D01*
X45600Y-16241D01*
X45600Y-15601D01*
X45610Y-15591D01*
X45674Y-15434D01*
X45675Y-15265D01*
X45610Y-15109D01*
X45491Y-14989D01*
X45334Y-14925D01*
X45165Y-14924D01*
X45009Y-14989D01*
X44889Y-15108D01*
X44825Y-15265D01*
X44824Y-15434D01*
X44889Y-15590D01*
X44900Y-15600D01*
X44900Y-16241D01*
X44882Y-16248D01*
X44749Y-16380D01*
X44618Y-16249D01*
X44379Y-16150D01*
X44121Y-16149D01*
X43882Y-16248D01*
X43749Y-16380D01*
X43618Y-16249D01*
X43600Y-16241D01*
X43600Y-16001D01*
X43610Y-15991D01*
X43674Y-15834D01*
X43675Y-15665D01*
X43610Y-15509D01*
X43491Y-15389D01*
X43334Y-15325D01*
X43165Y-15324D01*
X43009Y-15389D01*
X42889Y-15508D01*
X42825Y-15665D01*
X42824Y-15834D01*
X42889Y-15990D01*
X42900Y-16000D01*
X42900Y-16241D01*
X42882Y-16248D01*
X42865Y-16265D01*
X42862Y-16258D01*
X42791Y-16188D01*
X42699Y-16150D01*
X42600Y-16149D01*
X41800Y-16149D01*
X41708Y-16187D01*
X41638Y-16258D01*
X41600Y-16350D01*
X41599Y-16449D01*
X41599Y-16549D01*
X41551Y-16432D01*
X41368Y-16249D01*
X41350Y-16241D01*
X41350Y-15201D01*
X41360Y-15191D01*
X41424Y-15034D01*
X41425Y-14865D01*
X41360Y-14709D01*
X41241Y-14589D01*
X41084Y-14525D01*
X40915Y-14524D01*
X40759Y-14589D01*
X40639Y-14708D01*
X40575Y-14865D01*
X40574Y-15034D01*
X40639Y-15190D01*
X40650Y-15200D01*
X40650Y-16241D01*
X40632Y-16248D01*
X40499Y-16380D01*
X40368Y-16249D01*
X40350Y-16241D01*
X40350Y-15601D01*
X40360Y-15591D01*
X40424Y-15434D01*
X40425Y-15265D01*
X40360Y-15109D01*
X40241Y-14989D01*
X40084Y-14925D01*
X39915Y-14924D01*
X39759Y-14989D01*
X39639Y-15108D01*
X39575Y-15265D01*
X39574Y-15434D01*
X39639Y-15590D01*
X39650Y-15600D01*
X39650Y-16241D01*
X39632Y-16248D01*
X39499Y-16380D01*
X39368Y-16249D01*
X39129Y-16150D01*
X38871Y-16149D01*
X38632Y-16248D01*
X38499Y-16380D01*
X38368Y-16249D01*
X38350Y-16241D01*
X38350Y-16001D01*
X38360Y-15991D01*
X38424Y-15834D01*
X38425Y-15665D01*
X38360Y-15509D01*
X38241Y-15389D01*
X38084Y-15325D01*
X37915Y-15324D01*
X37759Y-15389D01*
X37639Y-15508D01*
X37575Y-15665D01*
X37574Y-15834D01*
X37639Y-15990D01*
X37650Y-16000D01*
X37650Y-16241D01*
X37632Y-16248D01*
X37615Y-16265D01*
X37612Y-16258D01*
X37541Y-16188D01*
X37449Y-16150D01*
X37350Y-16149D01*
X36550Y-16149D01*
X36458Y-16187D01*
X36388Y-16258D01*
X36350Y-16350D01*
X36349Y-16449D01*
X36349Y-16549D01*
X36301Y-16432D01*
X36118Y-16249D01*
X36100Y-16241D01*
X36100Y-15201D01*
X36110Y-15191D01*
X36174Y-15034D01*
X36175Y-14865D01*
X36110Y-14709D01*
X35991Y-14589D01*
X35834Y-14525D01*
X35665Y-14524D01*
X35509Y-14589D01*
X35389Y-14708D01*
X35325Y-14865D01*
X35324Y-15034D01*
X35389Y-15190D01*
X35400Y-15200D01*
X35400Y-16241D01*
X35382Y-16248D01*
X35249Y-16380D01*
X35118Y-16249D01*
X35100Y-16241D01*
X35100Y-15601D01*
X35110Y-15591D01*
X35174Y-15434D01*
X35175Y-15265D01*
X35110Y-15109D01*
X34991Y-14989D01*
X34834Y-14925D01*
X34665Y-14924D01*
X34509Y-14989D01*
X34389Y-15108D01*
X34325Y-15265D01*
X34324Y-15434D01*
X34389Y-15590D01*
X34400Y-15600D01*
X34400Y-16241D01*
X34382Y-16248D01*
X34249Y-16380D01*
X34118Y-16249D01*
X33879Y-16150D01*
X33621Y-16149D01*
X33382Y-16248D01*
X33249Y-16380D01*
X33118Y-16249D01*
X33100Y-16241D01*
X33100Y-16001D01*
X33110Y-15991D01*
X33174Y-15834D01*
X33175Y-15665D01*
X33110Y-15509D01*
X32991Y-15389D01*
X32834Y-15325D01*
X32665Y-15324D01*
X32509Y-15389D01*
X32389Y-15508D01*
X32325Y-15665D01*
X32324Y-15834D01*
X32389Y-15990D01*
X32400Y-16000D01*
X32400Y-16241D01*
X32382Y-16248D01*
X32365Y-16265D01*
X32362Y-16258D01*
X32291Y-16188D01*
X32199Y-16150D01*
X32100Y-16149D01*
X31350Y-16149D01*
X31350Y-11594D01*
X31602Y-11342D01*
X31620Y-11349D01*
X31878Y-11350D01*
X32117Y-11251D01*
X32250Y-11119D01*
X32381Y-11250D01*
X32400Y-11258D01*
X32400Y-11498D01*
X32389Y-11508D01*
X32325Y-11665D01*
X32324Y-11834D01*
X32389Y-11990D01*
X32508Y-12110D01*
X32665Y-12174D01*
X32834Y-12175D01*
X32990Y-12110D01*
X33110Y-11991D01*
X33174Y-11834D01*
X33175Y-11665D01*
X33110Y-11509D01*
X33100Y-11499D01*
X33100Y-11258D01*
X33117Y-11251D01*
X33250Y-11119D01*
X33381Y-11250D01*
X33400Y-11258D01*
X33400Y-11948D01*
X33389Y-11958D01*
X33325Y-12115D01*
X33324Y-12284D01*
X33389Y-12440D01*
X33508Y-12560D01*
X33665Y-12624D01*
X33834Y-12625D01*
X33990Y-12560D01*
X34110Y-12441D01*
X34174Y-12284D01*
X34175Y-12115D01*
X34110Y-11959D01*
X34100Y-11949D01*
X34100Y-11258D01*
X34117Y-11251D01*
X34250Y-11119D01*
X34381Y-11250D01*
X34620Y-11349D01*
X34878Y-11350D01*
X35117Y-11251D01*
X35250Y-11119D01*
X35381Y-11250D01*
X35620Y-11349D01*
X35878Y-11350D01*
X36117Y-11251D01*
X36300Y-11068D01*
X36375Y-10889D01*
X36448Y-11067D01*
X36631Y-11250D01*
X36870Y-11349D01*
X37128Y-11350D01*
X37367Y-11251D01*
X37500Y-11119D01*
X37631Y-11250D01*
X37650Y-11258D01*
X37650Y-11498D01*
X37639Y-11508D01*
X37575Y-11665D01*
X37574Y-11834D01*
X37639Y-11990D01*
X37758Y-12110D01*
X37915Y-12174D01*
X38084Y-12175D01*
X38240Y-12110D01*
X38360Y-11991D01*
X38424Y-11834D01*
X38425Y-11665D01*
X38360Y-11509D01*
X38350Y-11499D01*
X38350Y-11258D01*
X38367Y-11251D01*
X38500Y-11119D01*
X38631Y-11250D01*
X38650Y-11258D01*
X38650Y-11898D01*
X38639Y-11908D01*
X38575Y-12065D01*
X38574Y-12234D01*
X38639Y-12390D01*
X38758Y-12510D01*
X38915Y-12574D01*
X39084Y-12575D01*
X39240Y-12510D01*
X39360Y-12391D01*
X39424Y-12234D01*
X39425Y-12065D01*
X39360Y-11909D01*
X39350Y-11899D01*
X39350Y-11258D01*
X39367Y-11251D01*
X39500Y-11119D01*
X39631Y-11250D01*
X39870Y-11349D01*
X40128Y-11350D01*
X40367Y-11251D01*
X40500Y-11119D01*
X40631Y-11250D01*
X40870Y-11349D01*
X41128Y-11350D01*
X41367Y-11251D01*
X41550Y-11068D01*
X41625Y-10889D01*
X41698Y-11067D01*
X41881Y-11250D01*
X42120Y-11349D01*
X42378Y-11350D01*
X42617Y-11251D01*
X42750Y-11119D01*
X42881Y-11250D01*
X42900Y-11258D01*
X42900Y-11498D01*
X42889Y-11508D01*
X42825Y-11665D01*
X42824Y-11834D01*
X42889Y-11990D01*
X43008Y-12110D01*
X43165Y-12174D01*
X43334Y-12175D01*
X43490Y-12110D01*
X43610Y-11991D01*
X43674Y-11834D01*
X43675Y-11665D01*
X43610Y-11509D01*
X43600Y-11499D01*
X43600Y-11258D01*
X43617Y-11251D01*
X43750Y-11119D01*
X43881Y-11250D01*
X43900Y-11258D01*
X43900Y-11898D01*
X43889Y-11908D01*
X43825Y-12065D01*
X43824Y-12234D01*
X43889Y-12390D01*
X44008Y-12510D01*
X44165Y-12574D01*
X44334Y-12575D01*
X44490Y-12510D01*
X44610Y-12391D01*
X44674Y-12234D01*
X44675Y-12065D01*
X44610Y-11909D01*
X44600Y-11899D01*
X44600Y-11258D01*
X44617Y-11251D01*
X44750Y-11119D01*
X44881Y-11250D01*
X45120Y-11349D01*
X45378Y-11350D01*
X45617Y-11251D01*
X45750Y-11119D01*
X45881Y-11250D01*
X46120Y-11349D01*
X46378Y-11350D01*
X46617Y-11251D01*
X46800Y-11068D01*
X46875Y-10889D01*
X46948Y-11067D01*
X47131Y-11250D01*
X47370Y-11349D01*
X47628Y-11350D01*
X47867Y-11251D01*
X48000Y-11119D01*
X48131Y-11250D01*
X48150Y-11258D01*
X48150Y-11498D01*
X48139Y-11508D01*
X48075Y-11665D01*
X48074Y-11834D01*
X48139Y-11990D01*
X48258Y-12110D01*
X48415Y-12174D01*
X48584Y-12175D01*
X48740Y-12110D01*
X48860Y-11991D01*
X48924Y-11834D01*
X48925Y-11665D01*
X48860Y-11509D01*
X48850Y-11499D01*
X48850Y-11258D01*
X48867Y-11251D01*
X49000Y-11119D01*
X49131Y-11250D01*
X49150Y-11258D01*
X49150Y-11898D01*
X49139Y-11908D01*
X49075Y-12065D01*
X49074Y-12234D01*
X49139Y-12390D01*
X49258Y-12510D01*
X49415Y-12574D01*
X49584Y-12575D01*
X49740Y-12510D01*
X49860Y-12391D01*
X49924Y-12234D01*
X49925Y-12065D01*
X49860Y-11909D01*
X49850Y-11899D01*
X49850Y-11258D01*
X49867Y-11251D01*
X50000Y-11119D01*
X50131Y-11250D01*
X50370Y-11349D01*
X50628Y-11350D01*
X50867Y-11251D01*
X51000Y-11119D01*
X51131Y-11250D01*
X51370Y-11349D01*
X51628Y-11350D01*
X51867Y-11251D01*
X52050Y-11068D01*
X52125Y-10889D01*
X52198Y-11067D01*
X52381Y-11250D01*
X52620Y-11349D01*
X52878Y-11350D01*
X53117Y-11251D01*
X53250Y-11119D01*
X53381Y-11250D01*
X53400Y-11258D01*
X53400Y-11498D01*
X53389Y-11508D01*
X53325Y-11665D01*
X53324Y-11834D01*
X53389Y-11990D01*
X53508Y-12110D01*
X53665Y-12174D01*
X53834Y-12175D01*
X53990Y-12110D01*
X54110Y-11991D01*
X54174Y-11834D01*
X54175Y-11665D01*
X54110Y-11509D01*
X54100Y-11499D01*
X54100Y-11258D01*
X54117Y-11251D01*
X54250Y-11119D01*
X54381Y-11250D01*
X54400Y-11258D01*
X54400Y-11898D01*
X54389Y-11908D01*
X54325Y-12065D01*
X54324Y-12234D01*
X54389Y-12390D01*
X54508Y-12510D01*
X54665Y-12574D01*
X54834Y-12575D01*
X54990Y-12510D01*
X55110Y-12391D01*
X55174Y-12234D01*
X55175Y-12065D01*
X55110Y-11909D01*
X55100Y-11899D01*
X55100Y-11258D01*
X55117Y-11251D01*
X55250Y-11119D01*
X55381Y-11250D01*
X55620Y-11349D01*
X55878Y-11350D01*
X56117Y-11251D01*
X56250Y-11119D01*
X56381Y-11250D01*
X56620Y-11349D01*
X56878Y-11350D01*
X57117Y-11251D01*
X57300Y-11068D01*
X57375Y-10889D01*
X57448Y-11067D01*
X57631Y-11250D01*
X57870Y-11349D01*
X58128Y-11350D01*
X58367Y-11251D01*
X58500Y-11119D01*
X58631Y-11250D01*
X58870Y-11349D01*
X59128Y-11350D01*
X59367Y-11251D01*
X59500Y-11119D01*
X59631Y-11250D01*
X59870Y-11349D01*
X60128Y-11350D01*
X60367Y-11251D01*
X60500Y-11119D01*
X60631Y-11250D01*
X60870Y-11349D01*
X61128Y-11350D01*
X61367Y-11251D01*
X61500Y-11119D01*
X61631Y-11250D01*
X61870Y-11349D01*
X62128Y-11350D01*
X62367Y-11251D01*
X62550Y-11068D01*
X62649Y-10829D01*
X62650Y-10571D01*
X62551Y-10332D01*
X62368Y-10149D01*
X62129Y-10050D01*
X61871Y-10049D01*
X61632Y-10148D01*
X61499Y-10280D01*
X61368Y-10149D01*
X61129Y-10050D01*
X60871Y-10049D01*
X60632Y-10148D01*
X60499Y-10280D01*
X60368Y-10149D01*
X60129Y-10050D01*
X59871Y-10049D01*
X59632Y-10148D01*
X59499Y-10280D01*
X59368Y-10149D01*
X59129Y-10050D01*
X58871Y-10049D01*
X58632Y-10148D01*
X58499Y-10280D01*
X58368Y-10149D01*
X58129Y-10050D01*
X57871Y-10049D01*
X57632Y-10148D01*
X57449Y-10331D01*
X57374Y-10510D01*
X57301Y-10332D01*
X57118Y-10149D01*
X57100Y-10141D01*
X57100Y-9901D01*
X57110Y-9891D01*
X57174Y-9734D01*
X57175Y-9565D01*
X57160Y-9529D01*
X64220Y-9529D01*
X64220Y-26970D01*
X64220Y-26970D01*
G37*
G54D23*
X64220Y-26970D02*
X64065Y-26970D01*
X64065Y-24439D01*
X64065Y-18689D01*
X63827Y-18114D01*
X63387Y-17673D01*
X62812Y-17434D01*
X62189Y-17434D01*
X61614Y-17672D01*
X61173Y-18112D01*
X60934Y-18687D01*
X60934Y-19310D01*
X61172Y-19885D01*
X61612Y-20326D01*
X62187Y-20565D01*
X62810Y-20565D01*
X63385Y-20327D01*
X63826Y-19887D01*
X64065Y-19312D01*
X64065Y-18689D01*
X64065Y-24439D01*
X63827Y-23864D01*
X63387Y-23423D01*
X62812Y-23184D01*
X62189Y-23184D01*
X61614Y-23422D01*
X61404Y-23631D01*
X61404Y-20855D01*
X61394Y-20597D01*
X61314Y-20402D01*
X61208Y-20362D01*
X61137Y-20433D01*
X61137Y-20291D01*
X61097Y-20185D01*
X60855Y-20095D01*
X60597Y-20105D01*
X60402Y-20185D01*
X60362Y-20291D01*
X60750Y-20679D01*
X61137Y-20291D01*
X61137Y-20433D01*
X60820Y-20750D01*
X61208Y-21137D01*
X61314Y-21097D01*
X61404Y-20855D01*
X61404Y-23631D01*
X61173Y-23862D01*
X60934Y-24437D01*
X60934Y-25060D01*
X61172Y-25635D01*
X61612Y-26076D01*
X62187Y-26315D01*
X62810Y-26315D01*
X63385Y-26077D01*
X63826Y-25637D01*
X64065Y-25062D01*
X64065Y-24439D01*
X64065Y-26970D01*
X59904Y-26970D01*
X59904Y-26105D01*
X59900Y-25991D01*
X59900Y-24871D01*
X59801Y-24632D01*
X59618Y-24449D01*
X59379Y-24350D01*
X59121Y-24349D01*
X58882Y-24448D01*
X58699Y-24631D01*
X58691Y-24650D01*
X57558Y-24650D01*
X57551Y-24632D01*
X57368Y-24449D01*
X57129Y-24350D01*
X56871Y-24349D01*
X56632Y-24448D01*
X56449Y-24631D01*
X56350Y-24870D01*
X56349Y-25128D01*
X56448Y-25367D01*
X56631Y-25550D01*
X56870Y-25649D01*
X57128Y-25650D01*
X57367Y-25551D01*
X57550Y-25368D01*
X57558Y-25350D01*
X58691Y-25350D01*
X58698Y-25367D01*
X58865Y-25534D01*
X58862Y-25541D01*
X59250Y-25929D01*
X59637Y-25541D01*
X59634Y-25534D01*
X59800Y-25368D01*
X59899Y-25129D01*
X59900Y-24871D01*
X59900Y-25991D01*
X59894Y-25847D01*
X59814Y-25652D01*
X59708Y-25612D01*
X59320Y-26000D01*
X59708Y-26387D01*
X59814Y-26347D01*
X59904Y-26105D01*
X59904Y-26970D01*
X59637Y-26970D01*
X59637Y-26458D01*
X59250Y-26070D01*
X59179Y-26141D01*
X59179Y-26000D01*
X58791Y-25612D01*
X58685Y-25652D01*
X58595Y-25894D01*
X58605Y-26152D01*
X58685Y-26347D01*
X58791Y-26387D01*
X59179Y-26000D01*
X59179Y-26141D01*
X58862Y-26458D01*
X58902Y-26564D01*
X59144Y-26654D01*
X59402Y-26644D01*
X59597Y-26564D01*
X59637Y-26458D01*
X59637Y-26970D01*
X55650Y-26970D01*
X55650Y-24871D01*
X55551Y-24632D01*
X55368Y-24449D01*
X55129Y-24350D01*
X54871Y-24349D01*
X54632Y-24448D01*
X54449Y-24631D01*
X54350Y-24870D01*
X54349Y-25128D01*
X54448Y-25367D01*
X54631Y-25550D01*
X54870Y-25649D01*
X55128Y-25650D01*
X55367Y-25551D01*
X55550Y-25368D01*
X55649Y-25129D01*
X55650Y-24871D01*
X55650Y-26970D01*
X53404Y-26970D01*
X53404Y-26105D01*
X53394Y-25847D01*
X53314Y-25652D01*
X53208Y-25612D01*
X52820Y-26000D01*
X53208Y-26387D01*
X53314Y-26347D01*
X53404Y-26105D01*
X53404Y-26970D01*
X53137Y-26970D01*
X53137Y-26458D01*
X52750Y-26070D01*
X52679Y-26141D01*
X52679Y-26000D01*
X52291Y-25612D01*
X52185Y-25652D01*
X52095Y-25894D01*
X52105Y-26152D01*
X52185Y-26347D01*
X52291Y-26387D01*
X52679Y-26000D01*
X52679Y-26141D01*
X52362Y-26458D01*
X52402Y-26564D01*
X52644Y-26654D01*
X52902Y-26644D01*
X53097Y-26564D01*
X53137Y-26458D01*
X53137Y-26970D01*
X45174Y-26970D01*
X45247Y-26897D01*
X45247Y-26897D01*
X45247Y-26897D01*
X45290Y-26833D01*
X45290Y-26833D01*
X45367Y-26801D01*
X45500Y-26669D01*
X45631Y-26800D01*
X45870Y-26899D01*
X46128Y-26900D01*
X46367Y-26801D01*
X46500Y-26669D01*
X46631Y-26800D01*
X46870Y-26899D01*
X47128Y-26900D01*
X47367Y-26801D01*
X47500Y-26669D01*
X47631Y-26800D01*
X47870Y-26899D01*
X48128Y-26900D01*
X48367Y-26801D01*
X48500Y-26669D01*
X48631Y-26800D01*
X48870Y-26899D01*
X49128Y-26900D01*
X49367Y-26801D01*
X49500Y-26669D01*
X49631Y-26800D01*
X49870Y-26899D01*
X50128Y-26900D01*
X50367Y-26801D01*
X50500Y-26669D01*
X50631Y-26800D01*
X50870Y-26899D01*
X51128Y-26900D01*
X51367Y-26801D01*
X51550Y-26618D01*
X51649Y-26379D01*
X51650Y-26121D01*
X51551Y-25882D01*
X51368Y-25699D01*
X51350Y-25691D01*
X51350Y-25244D01*
X51994Y-24600D01*
X52230Y-24600D01*
X52199Y-24631D01*
X52100Y-24870D01*
X52099Y-25128D01*
X52198Y-25367D01*
X52365Y-25534D01*
X52362Y-25541D01*
X52750Y-25929D01*
X53137Y-25541D01*
X53134Y-25534D01*
X53300Y-25368D01*
X53399Y-25129D01*
X53400Y-24871D01*
X53301Y-24632D01*
X53269Y-24600D01*
X53950Y-24600D01*
X54083Y-24573D01*
X54083Y-24573D01*
X54197Y-24497D01*
X54984Y-23710D01*
X55000Y-23713D01*
X55214Y-23671D01*
X55395Y-23549D01*
X55500Y-23394D01*
X55604Y-23549D01*
X55785Y-23671D01*
X56000Y-23713D01*
X56214Y-23671D01*
X56395Y-23549D01*
X56517Y-23368D01*
X56560Y-23153D01*
X56560Y-22846D01*
X56517Y-22631D01*
X56496Y-22600D01*
X56855Y-22600D01*
X57002Y-22747D01*
X57002Y-22747D01*
X57116Y-22823D01*
X57250Y-22850D01*
X57468Y-22850D01*
X57469Y-22853D01*
X57645Y-23029D01*
X57875Y-23124D01*
X58123Y-23125D01*
X58205Y-23091D01*
X58250Y-23100D01*
X60099Y-23100D01*
X60099Y-23199D01*
X60137Y-23291D01*
X60208Y-23361D01*
X60300Y-23399D01*
X60399Y-23400D01*
X61199Y-23400D01*
X61291Y-23362D01*
X61361Y-23291D01*
X61399Y-23199D01*
X61400Y-23100D01*
X61400Y-22300D01*
X61362Y-22208D01*
X61291Y-22138D01*
X61199Y-22100D01*
X61137Y-22099D01*
X61137Y-21208D01*
X60750Y-20820D01*
X60679Y-20891D01*
X60679Y-20750D01*
X60291Y-20362D01*
X60185Y-20402D01*
X60095Y-20644D01*
X60105Y-20902D01*
X60185Y-21097D01*
X60291Y-21137D01*
X60679Y-20750D01*
X60679Y-20891D01*
X60362Y-21208D01*
X60402Y-21314D01*
X60644Y-21404D01*
X60902Y-21394D01*
X61097Y-21314D01*
X61137Y-21208D01*
X61137Y-22099D01*
X61100Y-22099D01*
X60300Y-22099D01*
X60208Y-22137D01*
X60138Y-22208D01*
X60100Y-22300D01*
X60099Y-22399D01*
X60099Y-22400D01*
X58629Y-22400D01*
X58629Y-20599D01*
X58619Y-20351D01*
X58543Y-20167D01*
X58440Y-20130D01*
X58369Y-20201D01*
X58369Y-20059D01*
X58332Y-19956D01*
X58099Y-19870D01*
X57851Y-19880D01*
X57667Y-19956D01*
X57663Y-19966D01*
X57663Y-18863D01*
X57663Y-18036D01*
X57625Y-17945D01*
X57555Y-17874D01*
X57463Y-17836D01*
X57363Y-17836D01*
X56536Y-17836D01*
X56445Y-17874D01*
X56392Y-17926D01*
X56387Y-17921D01*
X56136Y-17817D01*
X55864Y-17816D01*
X55613Y-17920D01*
X55499Y-18034D01*
X55387Y-17921D01*
X55136Y-17817D01*
X54864Y-17816D01*
X54613Y-17920D01*
X54499Y-18034D01*
X54387Y-17921D01*
X54136Y-17817D01*
X53864Y-17816D01*
X53613Y-17920D01*
X53499Y-18034D01*
X53387Y-17921D01*
X53136Y-17817D01*
X52864Y-17816D01*
X52613Y-17920D01*
X52499Y-18034D01*
X52387Y-17921D01*
X52136Y-17817D01*
X51864Y-17816D01*
X51613Y-17920D01*
X51421Y-18112D01*
X51317Y-18363D01*
X51316Y-18635D01*
X51420Y-18886D01*
X51612Y-19078D01*
X51863Y-19182D01*
X52135Y-19183D01*
X52386Y-19079D01*
X52500Y-18965D01*
X52612Y-19078D01*
X52863Y-19182D01*
X53135Y-19183D01*
X53386Y-19079D01*
X53500Y-18965D01*
X53612Y-19078D01*
X53863Y-19182D01*
X54135Y-19183D01*
X54386Y-19079D01*
X54500Y-18965D01*
X54612Y-19078D01*
X54863Y-19182D01*
X55135Y-19183D01*
X55386Y-19079D01*
X55500Y-18965D01*
X55612Y-19078D01*
X55863Y-19182D01*
X56135Y-19183D01*
X56386Y-19079D01*
X56392Y-19073D01*
X56444Y-19125D01*
X56536Y-19163D01*
X56636Y-19163D01*
X57463Y-19163D01*
X57554Y-19125D01*
X57625Y-19055D01*
X57663Y-18963D01*
X57663Y-18863D01*
X57663Y-19966D01*
X57630Y-20059D01*
X58000Y-20429D01*
X58369Y-20059D01*
X58369Y-20201D01*
X58070Y-20500D01*
X58440Y-20869D01*
X58543Y-20832D01*
X58629Y-20599D01*
X58629Y-22400D01*
X58625Y-22400D01*
X58625Y-22376D01*
X58530Y-22146D01*
X58369Y-21985D01*
X58369Y-20940D01*
X58000Y-20570D01*
X57929Y-20641D01*
X57929Y-20500D01*
X57559Y-20130D01*
X57456Y-20167D01*
X57370Y-20400D01*
X57380Y-20648D01*
X57456Y-20832D01*
X57559Y-20869D01*
X57929Y-20500D01*
X57929Y-20641D01*
X57630Y-20940D01*
X57667Y-21043D01*
X57900Y-21129D01*
X58148Y-21119D01*
X58332Y-21043D01*
X58369Y-20940D01*
X58369Y-21985D01*
X58354Y-21970D01*
X58124Y-21875D01*
X57876Y-21874D01*
X57646Y-21969D01*
X57470Y-22145D01*
X57468Y-22150D01*
X57394Y-22150D01*
X57247Y-22002D01*
X57133Y-21926D01*
X57000Y-21900D01*
X51350Y-21900D01*
X51350Y-20700D01*
X51350Y-20580D01*
X51395Y-20549D01*
X51500Y-20394D01*
X51604Y-20549D01*
X51785Y-20671D01*
X52000Y-20713D01*
X52214Y-20671D01*
X52395Y-20549D01*
X52500Y-20394D01*
X52604Y-20549D01*
X52785Y-20671D01*
X53000Y-20713D01*
X53214Y-20671D01*
X53395Y-20549D01*
X53500Y-20394D01*
X53604Y-20549D01*
X53785Y-20671D01*
X54000Y-20713D01*
X54214Y-20671D01*
X54395Y-20549D01*
X54500Y-20394D01*
X54604Y-20549D01*
X54785Y-20671D01*
X55000Y-20713D01*
X55214Y-20671D01*
X55395Y-20549D01*
X55500Y-20394D01*
X55604Y-20549D01*
X55785Y-20671D01*
X56000Y-20713D01*
X56214Y-20671D01*
X56395Y-20549D01*
X56517Y-20368D01*
X56560Y-20153D01*
X56560Y-19846D01*
X56517Y-19631D01*
X56395Y-19450D01*
X56214Y-19328D01*
X56000Y-19286D01*
X55785Y-19328D01*
X55604Y-19450D01*
X55500Y-19605D01*
X55395Y-19450D01*
X55214Y-19328D01*
X55000Y-19286D01*
X54785Y-19328D01*
X54604Y-19450D01*
X54500Y-19605D01*
X54395Y-19450D01*
X54214Y-19328D01*
X54000Y-19286D01*
X53785Y-19328D01*
X53604Y-19450D01*
X53500Y-19605D01*
X53395Y-19450D01*
X53214Y-19328D01*
X53000Y-19286D01*
X52785Y-19328D01*
X52604Y-19450D01*
X52500Y-19605D01*
X52395Y-19450D01*
X52214Y-19328D01*
X52000Y-19286D01*
X51817Y-19322D01*
X51497Y-19002D01*
X51383Y-18926D01*
X51250Y-18900D01*
X48663Y-18900D01*
X48663Y-18863D01*
X48663Y-18036D01*
X48625Y-17945D01*
X48555Y-17874D01*
X48463Y-17836D01*
X48363Y-17836D01*
X47536Y-17836D01*
X47445Y-17874D01*
X47392Y-17926D01*
X47387Y-17921D01*
X47136Y-17817D01*
X46864Y-17816D01*
X46613Y-17920D01*
X46499Y-18034D01*
X46387Y-17921D01*
X46136Y-17817D01*
X45864Y-17816D01*
X45613Y-17920D01*
X45499Y-18034D01*
X45387Y-17921D01*
X45136Y-17817D01*
X44864Y-17816D01*
X44613Y-17920D01*
X44499Y-18034D01*
X44387Y-17921D01*
X44136Y-17817D01*
X43864Y-17816D01*
X43613Y-17920D01*
X43499Y-18034D01*
X43387Y-17921D01*
X43136Y-17817D01*
X42864Y-17816D01*
X42613Y-17920D01*
X42421Y-18112D01*
X42317Y-18363D01*
X42316Y-18635D01*
X42420Y-18886D01*
X42434Y-18900D01*
X40544Y-18900D01*
X39347Y-17702D01*
X39233Y-17626D01*
X39100Y-17600D01*
X38151Y-17600D01*
X38141Y-17589D01*
X37984Y-17525D01*
X37815Y-17524D01*
X37659Y-17589D01*
X37539Y-17708D01*
X37475Y-17865D01*
X37474Y-18034D01*
X37481Y-18050D01*
X35174Y-18050D01*
X35175Y-17915D01*
X35157Y-17874D01*
X35197Y-17847D01*
X35602Y-17442D01*
X35620Y-17449D01*
X35878Y-17450D01*
X36117Y-17351D01*
X36300Y-17168D01*
X36349Y-17050D01*
X36349Y-17249D01*
X36387Y-17341D01*
X36458Y-17411D01*
X36550Y-17449D01*
X36649Y-17450D01*
X37449Y-17450D01*
X37541Y-17412D01*
X37611Y-17341D01*
X37614Y-17334D01*
X37631Y-17350D01*
X37870Y-17449D01*
X38128Y-17450D01*
X38367Y-17351D01*
X38500Y-17219D01*
X38631Y-17350D01*
X38870Y-17449D01*
X39128Y-17450D01*
X39367Y-17351D01*
X39500Y-17219D01*
X39631Y-17350D01*
X39870Y-17449D01*
X40128Y-17450D01*
X40367Y-17351D01*
X40500Y-17219D01*
X40631Y-17350D01*
X40870Y-17449D01*
X41128Y-17450D01*
X41367Y-17351D01*
X41550Y-17168D01*
X41599Y-17050D01*
X41599Y-17249D01*
X41637Y-17341D01*
X41708Y-17411D01*
X41800Y-17449D01*
X41899Y-17450D01*
X42699Y-17450D01*
X42791Y-17412D01*
X42861Y-17341D01*
X42864Y-17334D01*
X42881Y-17350D01*
X43120Y-17449D01*
X43378Y-17450D01*
X43617Y-17351D01*
X43750Y-17219D01*
X43881Y-17350D01*
X44120Y-17449D01*
X44378Y-17450D01*
X44617Y-17351D01*
X44750Y-17219D01*
X44881Y-17350D01*
X45120Y-17449D01*
X45378Y-17450D01*
X45617Y-17351D01*
X45750Y-17219D01*
X45881Y-17350D01*
X46120Y-17449D01*
X46378Y-17450D01*
X46617Y-17351D01*
X46800Y-17168D01*
X46849Y-17050D01*
X46849Y-17249D01*
X46887Y-17341D01*
X46958Y-17411D01*
X47050Y-17449D01*
X47149Y-17450D01*
X47949Y-17450D01*
X48041Y-17412D01*
X48111Y-17341D01*
X48114Y-17334D01*
X48131Y-17350D01*
X48370Y-17449D01*
X48628Y-17450D01*
X48867Y-17351D01*
X49000Y-17219D01*
X49131Y-17350D01*
X49370Y-17449D01*
X49628Y-17450D01*
X49867Y-17351D01*
X50000Y-17219D01*
X50131Y-17350D01*
X50370Y-17449D01*
X50628Y-17450D01*
X50867Y-17351D01*
X51000Y-17219D01*
X51131Y-17350D01*
X51370Y-17449D01*
X51628Y-17450D01*
X51867Y-17351D01*
X52050Y-17168D01*
X52099Y-17050D01*
X52099Y-17249D01*
X52137Y-17341D01*
X52208Y-17411D01*
X52300Y-17449D01*
X52399Y-17450D01*
X53199Y-17450D01*
X53291Y-17412D01*
X53361Y-17341D01*
X53364Y-17334D01*
X53381Y-17350D01*
X53620Y-17449D01*
X53878Y-17450D01*
X54117Y-17351D01*
X54250Y-17219D01*
X54381Y-17350D01*
X54620Y-17449D01*
X54878Y-17450D01*
X55117Y-17351D01*
X55250Y-17219D01*
X55381Y-17350D01*
X55620Y-17449D01*
X55878Y-17450D01*
X56117Y-17351D01*
X56250Y-17219D01*
X56381Y-17350D01*
X56620Y-17449D01*
X56878Y-17450D01*
X57117Y-17351D01*
X57300Y-17168D01*
X57349Y-17050D01*
X57349Y-17249D01*
X57387Y-17341D01*
X57458Y-17411D01*
X57550Y-17449D01*
X57649Y-17450D01*
X58449Y-17450D01*
X58541Y-17412D01*
X58611Y-17341D01*
X58614Y-17334D01*
X58631Y-17350D01*
X58870Y-17449D01*
X59128Y-17450D01*
X59367Y-17351D01*
X59500Y-17219D01*
X59631Y-17350D01*
X59870Y-17449D01*
X60128Y-17450D01*
X60367Y-17351D01*
X60500Y-17219D01*
X60631Y-17350D01*
X60870Y-17449D01*
X61128Y-17450D01*
X61367Y-17351D01*
X61500Y-17219D01*
X61631Y-17350D01*
X61870Y-17449D01*
X62128Y-17450D01*
X62367Y-17351D01*
X62550Y-17168D01*
X62649Y-16929D01*
X62650Y-16671D01*
X62551Y-16432D01*
X62368Y-16249D01*
X62129Y-16150D01*
X61871Y-16149D01*
X61632Y-16248D01*
X61499Y-16380D01*
X61368Y-16249D01*
X61129Y-16150D01*
X60871Y-16149D01*
X60632Y-16248D01*
X60499Y-16380D01*
X60368Y-16249D01*
X60129Y-16150D01*
X59871Y-16149D01*
X59632Y-16248D01*
X59499Y-16380D01*
X59368Y-16249D01*
X59129Y-16150D01*
X58871Y-16149D01*
X58632Y-16248D01*
X58615Y-16265D01*
X58612Y-16258D01*
X58541Y-16188D01*
X58449Y-16150D01*
X58350Y-16149D01*
X57550Y-16149D01*
X57458Y-16187D01*
X57388Y-16258D01*
X57350Y-16350D01*
X57349Y-16449D01*
X57349Y-16549D01*
X57301Y-16432D01*
X57118Y-16249D01*
X57100Y-16241D01*
X57100Y-15201D01*
X57110Y-15191D01*
X57174Y-15034D01*
X57175Y-14865D01*
X57110Y-14709D01*
X56991Y-14589D01*
X56834Y-14525D01*
X56665Y-14524D01*
X56509Y-14589D01*
X56389Y-14708D01*
X56325Y-14865D01*
X56324Y-15034D01*
X56389Y-15190D01*
X56400Y-15200D01*
X56400Y-16241D01*
X56382Y-16248D01*
X56249Y-16380D01*
X56118Y-16249D01*
X56100Y-16241D01*
X56100Y-15601D01*
X56110Y-15591D01*
X56174Y-15434D01*
X56175Y-15265D01*
X56110Y-15109D01*
X55991Y-14989D01*
X55834Y-14925D01*
X55665Y-14924D01*
X55509Y-14989D01*
X55389Y-15108D01*
X55325Y-15265D01*
X55324Y-15434D01*
X55389Y-15590D01*
X55400Y-15600D01*
X55400Y-16241D01*
X55382Y-16248D01*
X55249Y-16380D01*
X55118Y-16249D01*
X54879Y-16150D01*
X54621Y-16149D01*
X54382Y-16248D01*
X54249Y-16380D01*
X54118Y-16249D01*
X54100Y-16241D01*
X54100Y-16001D01*
X54110Y-15991D01*
X54174Y-15834D01*
X54175Y-15665D01*
X54110Y-15509D01*
X53991Y-15389D01*
X53834Y-15325D01*
X53665Y-15324D01*
X53509Y-15389D01*
X53389Y-15508D01*
X53325Y-15665D01*
X53324Y-15834D01*
X53389Y-15990D01*
X53400Y-16000D01*
X53400Y-16241D01*
X53382Y-16248D01*
X53365Y-16265D01*
X53362Y-16258D01*
X53291Y-16188D01*
X53199Y-16150D01*
X53100Y-16149D01*
X52300Y-16149D01*
X52208Y-16187D01*
X52138Y-16258D01*
X52100Y-16350D01*
X52099Y-16449D01*
X52099Y-16549D01*
X52051Y-16432D01*
X51868Y-16249D01*
X51850Y-16241D01*
X51850Y-15201D01*
X51860Y-15191D01*
X51924Y-15034D01*
X51925Y-14865D01*
X51860Y-14709D01*
X51741Y-14589D01*
X51584Y-14525D01*
X51415Y-14524D01*
X51259Y-14589D01*
X51139Y-14708D01*
X51075Y-14865D01*
X51074Y-15034D01*
X51139Y-15190D01*
X51150Y-15200D01*
X51150Y-16241D01*
X51132Y-16248D01*
X50999Y-16380D01*
X50868Y-16249D01*
X50850Y-16241D01*
X50850Y-15601D01*
X50860Y-15591D01*
X50924Y-15434D01*
X50925Y-15265D01*
X50860Y-15109D01*
X50741Y-14989D01*
X50584Y-14925D01*
X50415Y-14924D01*
X50259Y-14989D01*
X50139Y-15108D01*
X50075Y-15265D01*
X50074Y-15434D01*
X50139Y-15590D01*
X50150Y-15600D01*
X50150Y-16241D01*
X50132Y-16248D01*
X49999Y-16380D01*
X49868Y-16249D01*
X49629Y-16150D01*
X49371Y-16149D01*
X49132Y-16248D01*
X48999Y-16380D01*
X48868Y-16249D01*
X48850Y-16241D01*
X48850Y-16001D01*
X48860Y-15991D01*
X48924Y-15834D01*
X48925Y-15665D01*
X48860Y-15509D01*
X48741Y-15389D01*
X48584Y-15325D01*
X48415Y-15324D01*
X48259Y-15389D01*
X48139Y-15508D01*
X48075Y-15665D01*
X48074Y-15834D01*
X48139Y-15990D01*
X48150Y-16000D01*
X48150Y-16241D01*
X48132Y-16248D01*
X48115Y-16265D01*
X48112Y-16258D01*
X48041Y-16188D01*
X47949Y-16150D01*
X47850Y-16149D01*
X47050Y-16149D01*
X46958Y-16187D01*
X46888Y-16258D01*
X46850Y-16350D01*
X46849Y-16449D01*
X46849Y-16549D01*
X46801Y-16432D01*
X46618Y-16249D01*
X46600Y-16241D01*
X46600Y-15201D01*
X46610Y-15191D01*
X46674Y-15034D01*
X46675Y-14865D01*
X46610Y-14709D01*
X46491Y-14589D01*
X46334Y-14525D01*
X46165Y-14524D01*
X46009Y-14589D01*
X45889Y-14708D01*
X45825Y-14865D01*
X45824Y-15034D01*
X45889Y-15190D01*
X45900Y-15200D01*
X45900Y-16241D01*
X45882Y-16248D01*
X45749Y-16380D01*
X45618Y-16249D01*
X45600Y-16241D01*
X45600Y-15601D01*
X45610Y-15591D01*
X45674Y-15434D01*
X45675Y-15265D01*
X45610Y-15109D01*
X45491Y-14989D01*
X45334Y-14925D01*
X45165Y-14924D01*
X45009Y-14989D01*
X44889Y-15108D01*
X44825Y-15265D01*
X44824Y-15434D01*
X44889Y-15590D01*
X44900Y-15600D01*
X44900Y-16241D01*
X44882Y-16248D01*
X44749Y-16380D01*
X44618Y-16249D01*
X44379Y-16150D01*
X44121Y-16149D01*
X43882Y-16248D01*
X43749Y-16380D01*
X43618Y-16249D01*
X43600Y-16241D01*
X43600Y-16001D01*
X43610Y-15991D01*
X43674Y-15834D01*
X43675Y-15665D01*
X43610Y-15509D01*
X43491Y-15389D01*
X43334Y-15325D01*
X43165Y-15324D01*
X43009Y-15389D01*
X42889Y-15508D01*
X42825Y-15665D01*
X42824Y-15834D01*
X42889Y-15990D01*
X42900Y-16000D01*
X42900Y-16241D01*
X42882Y-16248D01*
X42865Y-16265D01*
X42862Y-16258D01*
X42791Y-16188D01*
X42699Y-16150D01*
X42600Y-16149D01*
X41800Y-16149D01*
X41708Y-16187D01*
X41638Y-16258D01*
X41600Y-16350D01*
X41599Y-16449D01*
X41599Y-16549D01*
X41551Y-16432D01*
X41368Y-16249D01*
X41350Y-16241D01*
X41350Y-15201D01*
X41360Y-15191D01*
X41424Y-15034D01*
X41425Y-14865D01*
X41360Y-14709D01*
X41241Y-14589D01*
X41084Y-14525D01*
X40915Y-14524D01*
X40759Y-14589D01*
X40639Y-14708D01*
X40575Y-14865D01*
X40574Y-15034D01*
X40639Y-15190D01*
X40650Y-15200D01*
X40650Y-16241D01*
X40632Y-16248D01*
X40499Y-16380D01*
X40368Y-16249D01*
X40350Y-16241D01*
X40350Y-15601D01*
X40360Y-15591D01*
X40424Y-15434D01*
X40425Y-15265D01*
X40360Y-15109D01*
X40241Y-14989D01*
X40084Y-14925D01*
X39915Y-14924D01*
X39759Y-14989D01*
X39639Y-15108D01*
X39575Y-15265D01*
X39574Y-15434D01*
X39639Y-15590D01*
X39650Y-15600D01*
X39650Y-16241D01*
X39632Y-16248D01*
X39499Y-16380D01*
X39368Y-16249D01*
X39129Y-16150D01*
X38871Y-16149D01*
X38632Y-16248D01*
X38499Y-16380D01*
X38368Y-16249D01*
X38350Y-16241D01*
X38350Y-16001D01*
X38360Y-15991D01*
X38424Y-15834D01*
X38425Y-15665D01*
X38360Y-15509D01*
X38241Y-15389D01*
X38084Y-15325D01*
X37915Y-15324D01*
X37759Y-15389D01*
X37639Y-15508D01*
X37575Y-15665D01*
X37574Y-15834D01*
X37639Y-15990D01*
X37650Y-16000D01*
X37650Y-16241D01*
X37632Y-16248D01*
X37615Y-16265D01*
X37612Y-16258D01*
X37541Y-16188D01*
X37449Y-16150D01*
X37350Y-16149D01*
X36550Y-16149D01*
X36458Y-16187D01*
X36388Y-16258D01*
X36350Y-16350D01*
X36349Y-16449D01*
X36349Y-16549D01*
X36301Y-16432D01*
X36118Y-16249D01*
X36100Y-16241D01*
X36100Y-15201D01*
X36110Y-15191D01*
X36174Y-15034D01*
X36175Y-14865D01*
X36110Y-14709D01*
X35991Y-14589D01*
X35834Y-14525D01*
X35665Y-14524D01*
X35509Y-14589D01*
X35389Y-14708D01*
X35325Y-14865D01*
X35324Y-15034D01*
X35389Y-15190D01*
X35400Y-15200D01*
X35400Y-16241D01*
X35382Y-16248D01*
X35249Y-16380D01*
X35118Y-16249D01*
X35100Y-16241D01*
X35100Y-15601D01*
X35110Y-15591D01*
X35174Y-15434D01*
X35175Y-15265D01*
X35110Y-15109D01*
X34991Y-14989D01*
X34834Y-14925D01*
X34665Y-14924D01*
X34509Y-14989D01*
X34389Y-15108D01*
X34325Y-15265D01*
X34324Y-15434D01*
X34389Y-15590D01*
X34400Y-15600D01*
X34400Y-16241D01*
X34382Y-16248D01*
X34249Y-16380D01*
X34118Y-16249D01*
X33879Y-16150D01*
X33621Y-16149D01*
X33382Y-16248D01*
X33249Y-16380D01*
X33118Y-16249D01*
X33100Y-16241D01*
X33100Y-16001D01*
X33110Y-15991D01*
X33174Y-15834D01*
X33175Y-15665D01*
X33110Y-15509D01*
X32991Y-15389D01*
X32834Y-15325D01*
X32665Y-15324D01*
X32509Y-15389D01*
X32389Y-15508D01*
X32325Y-15665D01*
X32324Y-15834D01*
X32389Y-15990D01*
X32400Y-16000D01*
X32400Y-16241D01*
X32382Y-16248D01*
X32365Y-16265D01*
X32362Y-16258D01*
X32291Y-16188D01*
X32199Y-16150D01*
X32100Y-16149D01*
X31350Y-16149D01*
X31350Y-11594D01*
X31602Y-11342D01*
X31620Y-11349D01*
X31878Y-11350D01*
X32117Y-11251D01*
X32250Y-11119D01*
X32381Y-11250D01*
X32400Y-11258D01*
X32400Y-11498D01*
X32389Y-11508D01*
X32325Y-11665D01*
X32324Y-11834D01*
X32389Y-11990D01*
X32508Y-12110D01*
X32665Y-12174D01*
X32834Y-12175D01*
X32990Y-12110D01*
X33110Y-11991D01*
X33174Y-11834D01*
X33175Y-11665D01*
X33110Y-11509D01*
X33100Y-11499D01*
X33100Y-11258D01*
X33117Y-11251D01*
X33250Y-11119D01*
X33381Y-11250D01*
X33400Y-11258D01*
X33400Y-11948D01*
X33389Y-11958D01*
X33325Y-12115D01*
X33324Y-12284D01*
X33389Y-12440D01*
X33508Y-12560D01*
X33665Y-12624D01*
X33834Y-12625D01*
X33990Y-12560D01*
X34110Y-12441D01*
X34174Y-12284D01*
X34175Y-12115D01*
X34110Y-11959D01*
X34100Y-11949D01*
X34100Y-11258D01*
X34117Y-11251D01*
X34250Y-11119D01*
X34381Y-11250D01*
X34620Y-11349D01*
X34878Y-11350D01*
X35117Y-11251D01*
X35250Y-11119D01*
X35381Y-11250D01*
X35620Y-11349D01*
X35878Y-11350D01*
X36117Y-11251D01*
X36300Y-11068D01*
X36375Y-10889D01*
X36448Y-11067D01*
X36631Y-11250D01*
X36870Y-11349D01*
X37128Y-11350D01*
X37367Y-11251D01*
X37500Y-11119D01*
X37631Y-11250D01*
X37650Y-11258D01*
X37650Y-11498D01*
X37639Y-11508D01*
X37575Y-11665D01*
X37574Y-11834D01*
X37639Y-11990D01*
X37758Y-12110D01*
X37915Y-12174D01*
X38084Y-12175D01*
X38240Y-12110D01*
X38360Y-11991D01*
X38424Y-11834D01*
X38425Y-11665D01*
X38360Y-11509D01*
X38350Y-11499D01*
X38350Y-11258D01*
X38367Y-11251D01*
X38500Y-11119D01*
X38631Y-11250D01*
X38650Y-11258D01*
X38650Y-11898D01*
X38639Y-11908D01*
X38575Y-12065D01*
X38574Y-12234D01*
X38639Y-12390D01*
X38758Y-12510D01*
X38915Y-12574D01*
X39084Y-12575D01*
X39240Y-12510D01*
X39360Y-12391D01*
X39424Y-12234D01*
X39425Y-12065D01*
X39360Y-11909D01*
X39350Y-11899D01*
X39350Y-11258D01*
X39367Y-11251D01*
X39500Y-11119D01*
X39631Y-11250D01*
X39870Y-11349D01*
X40128Y-11350D01*
X40367Y-11251D01*
X40500Y-11119D01*
X40631Y-11250D01*
X40870Y-11349D01*
X41128Y-11350D01*
X41367Y-11251D01*
X41550Y-11068D01*
X41625Y-10889D01*
X41698Y-11067D01*
X41881Y-11250D01*
X42120Y-11349D01*
X42378Y-11350D01*
X42617Y-11251D01*
X42750Y-11119D01*
X42881Y-11250D01*
X42900Y-11258D01*
X42900Y-11498D01*
X42889Y-11508D01*
X42825Y-11665D01*
X42824Y-11834D01*
X42889Y-11990D01*
X43008Y-12110D01*
X43165Y-12174D01*
X43334Y-12175D01*
X43490Y-12110D01*
X43610Y-11991D01*
X43674Y-11834D01*
X43675Y-11665D01*
X43610Y-11509D01*
X43600Y-11499D01*
X43600Y-11258D01*
X43617Y-11251D01*
X43750Y-11119D01*
X43881Y-11250D01*
X43900Y-11258D01*
X43900Y-11898D01*
X43889Y-11908D01*
X43825Y-12065D01*
X43824Y-12234D01*
X43889Y-12390D01*
X44008Y-12510D01*
X44165Y-12574D01*
X44334Y-12575D01*
X44490Y-12510D01*
X44610Y-12391D01*
X44674Y-12234D01*
X44675Y-12065D01*
X44610Y-11909D01*
X44600Y-11899D01*
X44600Y-11258D01*
X44617Y-11251D01*
X44750Y-11119D01*
X44881Y-11250D01*
X45120Y-11349D01*
X45378Y-11350D01*
X45617Y-11251D01*
X45750Y-11119D01*
X45881Y-11250D01*
X46120Y-11349D01*
X46378Y-11350D01*
X46617Y-11251D01*
X46800Y-11068D01*
X46875Y-10889D01*
X46948Y-11067D01*
X47131Y-11250D01*
X47370Y-11349D01*
X47628Y-11350D01*
X47867Y-11251D01*
X48000Y-11119D01*
X48131Y-11250D01*
X48150Y-11258D01*
X48150Y-11498D01*
X48139Y-11508D01*
X48075Y-11665D01*
X48074Y-11834D01*
X48139Y-11990D01*
X48258Y-12110D01*
X48415Y-12174D01*
X48584Y-12175D01*
X48740Y-12110D01*
X48860Y-11991D01*
X48924Y-11834D01*
X48925Y-11665D01*
X48860Y-11509D01*
X48850Y-11499D01*
X48850Y-11258D01*
X48867Y-11251D01*
X49000Y-11119D01*
X49131Y-11250D01*
X49150Y-11258D01*
X49150Y-11898D01*
X49139Y-11908D01*
X49075Y-12065D01*
X49074Y-12234D01*
X49139Y-12390D01*
X49258Y-12510D01*
X49415Y-12574D01*
X49584Y-12575D01*
X49740Y-12510D01*
X49860Y-12391D01*
X49924Y-12234D01*
X49925Y-12065D01*
X49860Y-11909D01*
X49850Y-11899D01*
X49850Y-11258D01*
X49867Y-11251D01*
X50000Y-11119D01*
X50131Y-11250D01*
X50370Y-11349D01*
X50628Y-11350D01*
X50867Y-11251D01*
X51000Y-11119D01*
X51131Y-11250D01*
X51370Y-11349D01*
X51628Y-11350D01*
X51867Y-11251D01*
X52050Y-11068D01*
X52125Y-10889D01*
X52198Y-11067D01*
X52381Y-11250D01*
X52620Y-11349D01*
X52878Y-11350D01*
X53117Y-11251D01*
X53250Y-11119D01*
X53381Y-11250D01*
X53400Y-11258D01*
X53400Y-11498D01*
X53389Y-11508D01*
X53325Y-11665D01*
X53324Y-11834D01*
X53389Y-11990D01*
X53508Y-12110D01*
X53665Y-12174D01*
X53834Y-12175D01*
X53990Y-12110D01*
X54110Y-11991D01*
X54174Y-11834D01*
X54175Y-11665D01*
X54110Y-11509D01*
X54100Y-11499D01*
X54100Y-11258D01*
X54117Y-11251D01*
X54250Y-11119D01*
X54381Y-11250D01*
X54400Y-11258D01*
X54400Y-11898D01*
X54389Y-11908D01*
X54325Y-12065D01*
X54324Y-12234D01*
X54389Y-12390D01*
X54508Y-12510D01*
X54665Y-12574D01*
X54834Y-12575D01*
X54990Y-12510D01*
X55110Y-12391D01*
X55174Y-12234D01*
X55175Y-12065D01*
X55110Y-11909D01*
X55100Y-11899D01*
X55100Y-11258D01*
X55117Y-11251D01*
X55250Y-11119D01*
X55381Y-11250D01*
X55620Y-11349D01*
X55878Y-11350D01*
X56117Y-11251D01*
X56250Y-11119D01*
X56381Y-11250D01*
X56620Y-11349D01*
X56878Y-11350D01*
X57117Y-11251D01*
X57300Y-11068D01*
X57375Y-10889D01*
X57448Y-11067D01*
X57631Y-11250D01*
X57870Y-11349D01*
X58128Y-11350D01*
X58367Y-11251D01*
X58500Y-11119D01*
X58631Y-11250D01*
X58870Y-11349D01*
X59128Y-11350D01*
X59367Y-11251D01*
X59500Y-11119D01*
X59631Y-11250D01*
X59870Y-11349D01*
X60128Y-11350D01*
X60367Y-11251D01*
X60500Y-11119D01*
X60631Y-11250D01*
X60870Y-11349D01*
X61128Y-11350D01*
X61367Y-11251D01*
X61500Y-11119D01*
X61631Y-11250D01*
X61870Y-11349D01*
X62128Y-11350D01*
X62367Y-11251D01*
X62550Y-11068D01*
X62649Y-10829D01*
X62650Y-10571D01*
X62551Y-10332D01*
X62368Y-10149D01*
X62129Y-10050D01*
X61871Y-10049D01*
X61632Y-10148D01*
X61499Y-10280D01*
X61368Y-10149D01*
X61129Y-10050D01*
X60871Y-10049D01*
X60632Y-10148D01*
X60499Y-10280D01*
X60368Y-10149D01*
X60129Y-10050D01*
X59871Y-10049D01*
X59632Y-10148D01*
X59499Y-10280D01*
X59368Y-10149D01*
X59129Y-10050D01*
X58871Y-10049D01*
X58632Y-10148D01*
X58499Y-10280D01*
X58368Y-10149D01*
X58129Y-10050D01*
X57871Y-10049D01*
X57632Y-10148D01*
X57449Y-10331D01*
X57374Y-10510D01*
X57301Y-10332D01*
X57118Y-10149D01*
X57100Y-10141D01*
X57100Y-9901D01*
X57110Y-9891D01*
X57174Y-9734D01*
X57175Y-9565D01*
X57160Y-9529D01*
X64220Y-9529D01*
X64220Y-26970D01*
M02*
