G04 (created by PCBNEW (2013-07-07 BZR 4022)-stable) date 07/12/2013 12:57:39*
%MOIN*%
G04 Gerber Fmt 3.4, Leading zero omitted, Abs format*
%FSLAX34Y34*%
G01*
G70*
G90*
G04 APERTURE LIST*
%ADD10C,0.00393701*%
%ADD11R,0.045748X0.065748*%
%ADD12R,0.095748X0.095748*%
%ADD13C,0.095748*%
%ADD14C,0.271648*%
%ADD15C,0.110248*%
%ADD16C,0.090748*%
%ADD17O,0.077748X0.105748*%
%ADD18R,0.077748X0.105748*%
%ADD19R,0.098448X0.098448*%
%ADD20C,0.102348*%
G04 APERTURE END LIST*
G54D10*
G54D11*
X31800Y-23000D03*
X32300Y-23000D03*
X32800Y-23000D03*
X33300Y-23000D03*
X33800Y-23000D03*
X34300Y-23000D03*
X34800Y-23000D03*
X35300Y-23000D03*
X35800Y-23000D03*
X36300Y-23000D03*
X36800Y-23000D03*
X37300Y-23000D03*
X31800Y-19200D03*
X32300Y-19200D03*
X32800Y-19200D03*
X33300Y-19200D03*
X33800Y-19200D03*
X34300Y-19200D03*
X34800Y-19200D03*
X35300Y-19200D03*
X35800Y-19200D03*
X36300Y-19200D03*
X36800Y-19200D03*
X37300Y-19200D03*
G54D12*
X58000Y-16800D03*
G54D13*
X59000Y-16800D03*
X60000Y-16800D03*
X61000Y-16800D03*
X62000Y-16800D03*
X62000Y-10700D03*
X61000Y-10700D03*
X60000Y-10700D03*
X59000Y-10700D03*
X58000Y-10700D03*
G54D12*
X31750Y-16800D03*
G54D13*
X32750Y-16800D03*
X33750Y-16800D03*
X34750Y-16800D03*
X35750Y-16800D03*
X35750Y-10700D03*
X34750Y-10700D03*
X33750Y-10700D03*
X32750Y-10700D03*
X31750Y-10700D03*
G54D12*
X52750Y-16800D03*
G54D13*
X53750Y-16800D03*
X54750Y-16800D03*
X55750Y-16800D03*
X56750Y-16800D03*
X56750Y-10700D03*
X55750Y-10700D03*
X54750Y-10700D03*
X53750Y-10700D03*
X52750Y-10700D03*
G54D12*
X47500Y-16800D03*
G54D13*
X48500Y-16800D03*
X49500Y-16800D03*
X50500Y-16800D03*
X51500Y-16800D03*
X51500Y-10700D03*
X50500Y-10700D03*
X49500Y-10700D03*
X48500Y-10700D03*
X47500Y-10700D03*
G54D12*
X42250Y-16800D03*
G54D13*
X43250Y-16800D03*
X44250Y-16800D03*
X45250Y-16800D03*
X46250Y-16800D03*
X46250Y-10700D03*
X45250Y-10700D03*
X44250Y-10700D03*
X43250Y-10700D03*
X42250Y-10700D03*
G54D12*
X37000Y-16800D03*
G54D13*
X38000Y-16800D03*
X39000Y-16800D03*
X40000Y-16800D03*
X41000Y-16800D03*
X41000Y-10700D03*
X40000Y-10700D03*
X39000Y-10700D03*
X38000Y-10700D03*
X37000Y-10700D03*
X39400Y-22550D03*
X39400Y-19550D03*
G54D12*
X27500Y-16250D03*
G54D13*
X27500Y-18250D03*
G54D14*
X62500Y-24750D03*
X27000Y-22250D03*
X62500Y-19000D03*
X28000Y-11000D03*
G54D13*
X57000Y-25000D03*
X55000Y-25000D03*
G54D15*
X40500Y-24750D03*
X43000Y-24750D03*
G54D12*
X44000Y-26250D03*
G54D13*
X45000Y-26250D03*
X46000Y-26250D03*
X47000Y-26250D03*
X48000Y-26250D03*
X49000Y-26250D03*
X50000Y-26250D03*
X51000Y-26250D03*
X40000Y-26250D03*
X43000Y-26250D03*
G54D12*
X60750Y-22750D03*
G54D13*
X60750Y-20750D03*
G54D16*
X58000Y-22500D03*
X58000Y-20500D03*
X39000Y-24750D03*
X37000Y-24750D03*
G54D13*
X52750Y-25000D03*
X52750Y-26000D03*
X59250Y-25000D03*
X59250Y-26000D03*
G54D17*
X44000Y-23000D03*
X45000Y-23000D03*
X46000Y-23000D03*
X47000Y-23000D03*
X48000Y-23000D03*
X49000Y-23000D03*
X50000Y-23000D03*
X51000Y-23000D03*
X52000Y-23000D03*
X53000Y-23000D03*
X54000Y-23000D03*
X55000Y-23000D03*
X56000Y-23000D03*
G54D18*
X43000Y-23000D03*
G54D17*
X56000Y-20000D03*
X55000Y-20000D03*
X54000Y-20000D03*
X53000Y-20000D03*
X52000Y-20000D03*
X51000Y-20000D03*
X50000Y-20000D03*
X49000Y-20000D03*
X48000Y-20000D03*
X47000Y-20000D03*
X46000Y-20000D03*
X45000Y-20000D03*
X44000Y-20000D03*
X43000Y-20000D03*
G54D19*
X26750Y-25000D03*
G54D20*
X27750Y-25000D03*
X28750Y-25000D03*
X29750Y-25000D03*
X30750Y-25000D03*
X31750Y-25000D03*
G54D19*
X26750Y-26250D03*
G54D20*
X27750Y-26250D03*
X28750Y-26250D03*
X29750Y-26250D03*
X30750Y-26250D03*
X31750Y-26250D03*
G54D19*
X57000Y-18500D03*
G54D20*
X56000Y-18500D03*
X55000Y-18500D03*
X54000Y-18500D03*
X53000Y-18500D03*
X52000Y-18500D03*
G54D19*
X48000Y-18500D03*
G54D20*
X47000Y-18500D03*
X46000Y-18500D03*
X45000Y-18500D03*
X44000Y-18500D03*
X43000Y-18500D03*
G54D19*
X33750Y-26250D03*
G54D20*
X34750Y-26250D03*
X35750Y-26250D03*
X36750Y-26250D03*
X37750Y-26250D03*
X38750Y-26250D03*
M02*
